<?xml version="1.0" encoding="utf-8"?>
<!-- Generator: Adobe Illustrator 27.8.1, SVG Export Plug-In . SVG Version: 6.00 Build 0)  -->
<svg version="1.1" id="Layer_1" xmlns="http://www.w3.org/2000/svg" xmlns:xlink="http://www.w3.org/1999/xlink" x="0px" y="0px"
	 viewBox="0 0 3000 3000" style="enable-background:new 0 0 3000 3000;" xml:space="preserve">
<style type="text/css">
	.st0{fill:none;stroke:#FF0000;stroke-width:258;stroke-miterlimit:10;}
	.st1{fill:#666666;}
	.st2{fill:#333333;}
	.st3{fill:#4D4D4D;}
	.st4{fill:#FF0000;}
</style>
<g>
	<circle class="st0" cx="1500" cy="1549" r="1103.75"/>
	<path class="st1" d="M1159.3,1331.71c-309.38,451.68-276.83,624.86-208.77,798.41c96.36,245.76,632.45,389.47,893.63,236.49
		c269.37-157.78,213.43-587.4,210.31-609.01c-61.15-424.3-354.62-875.34-623.74-862.94
		C1382.53,896.88,1199.43,1273.11,1159.3,1331.71z"/>
	
		<ellipse transform="matrix(0.7071 -0.7071 0.7071 0.7071 -84.7096 1312.4098)" class="st2" cx="1541.86" cy="758.46" rx="163.86" ry="53.96"/>
	
		<ellipse transform="matrix(0.3797 -0.9251 0.9251 0.3797 52.0301 1689.0559)" class="st3" cx="1285.54" cy="805.73" rx="60.87" ry="163.86"/>
	<path d="M1524.7,920.84l-141.47,36.16c-4.3,1.1-8.69-1.5-9.78-5.8l-13.64-53.4c-1.1-4.3,1.5-8.69,5.8-9.78l141.47-36.16
		c4.3-1.1,8.69,1.5,9.78,5.8l13.64,53.4C1531.6,915.36,1529.01,919.74,1524.7,920.84z"/>
	
		<rect x="327.71" y="1395.95" transform="matrix(0.819 -0.5737 0.5737 0.819 -613.6832 1105.2288)" class="st4" width="2235.09" height="259.05"/>
</g>
</svg>
