<?xml version="1.0" encoding="utf-8"?>
<!-- Generator: Adobe Illustrator 28.0.0, SVG Export Plug-In . SVG Version: 6.00 Build 0)  -->
<svg version="1.1" id="Layer_1" xmlns="http://www.w3.org/2000/svg" xmlns:xlink="http://www.w3.org/1999/xlink" x="0px" y="0px"
	 viewBox="0 0 3000 3000" style="enable-background:new 0 0 3000 3000;" xml:space="preserve">
<style type="text/css">
	.st0{fill:none;stroke:#FF0000;stroke-width:258;stroke-miterlimit:10;}
	.st1{fill:#666666;}
	.st2{fill:#333333;}
	.st3{fill:#4D4D4D;}
	.st4{fill:#FF0000;}
</style>
<g>
	<circle class="st0" cx="1500" cy="1501" r="1103.8"/>
	<path class="st1" d="M1159.3,1283.7c-309.4,451.7-276.8,624.9-208.8,798.4c96.4,245.8,632.4,389.5,893.6,236.5
		c269.4-157.8,213.4-587.4,210.3-609c-61.2-424.3-354.6-875.3-623.7-862.9C1382.5,848.9,1199.4,1225.1,1159.3,1283.7z"/>
	
		<ellipse transform="matrix(0.7071 -0.7071 0.7071 0.7071 -50.7801 1298.3413)" class="st2" cx="1541.8" cy="710.5" rx="163.9" ry="54"/>
	
		<ellipse transform="matrix(0.3797 -0.9251 0.9251 0.3797 96.4201 1659.2775)" class="st3" cx="1285.5" cy="757.7" rx="60.9" ry="163.9"/>
	<path d="M1524.7,872.8L1383.2,909c-4.3,1.1-8.7-1.5-9.8-5.8l-13.6-53.4c-1.1-4.3,1.5-8.7,5.8-9.8l141.5-36.2
		c4.3-1.1,8.7,1.5,9.8,5.8l13.6,53.4C1531.6,867.4,1529,871.7,1524.7,872.8z"/>
	
		<rect x="327.7" y="1347.9" transform="matrix(0.819 -0.5737 0.5737 0.819 -586.1507 1096.478)" class="st4" width="2235" height="259"/>
</g>
</svg>
