<?xml version="1.0" encoding="utf-8"?>
<!-- Generator: Adobe Illustrator 27.8.1, SVG Export Plug-In . SVG Version: 6.00 Build 0)  -->
<svg version="1.1" id="Layer_1" xmlns="http://www.w3.org/2000/svg" xmlns:xlink="http://www.w3.org/1999/xlink" x="0px" y="0px"
	 viewBox="0 0 4000 3000" style="enable-background:new 0 0 4000 3000;" xml:space="preserve">
<style type="text/css">
	.st0{fill:none;stroke:#FF0000;stroke-width:258;stroke-miterlimit:10;}
	.st1{fill:#666666;}
	.st2{fill:#333333;}
	.st3{fill:#4D4D4D;}
	.st4{fill:#FF0000;}
</style>
<g>
	<circle class="st0" cx="2000.5" cy="1500.5" r="1260.5"/>
	<path class="st1" d="M1611.41,1252.35c-353.32,515.83-316.14,713.6-238.42,911.8c110.05,280.66,722.27,444.78,1020.54,270.07
		c307.63-180.19,243.74-670.82,240.18-695.5c-69.83-484.56-404.98-999.65-712.32-985.49
		C1866.35,755.77,1657.24,1185.43,1611.41,1252.35z"/>
	
		<ellipse transform="matrix(0.7071 -0.7071 0.7071 0.7071 177.3156 1623.4436)" class="st2" cx="2048.33" cy="597.68" rx="187.13" ry="61.62"/>
	
		<ellipse transform="matrix(0.3797 -0.9251 0.9251 0.3797 486.1234 2028.3395)" class="st3" cx="1755.6" cy="651.67" rx="69.52" ry="187.13"/>
	<path d="M2028.71,783.13l-161.56,41.29c-4.91,1.26-9.92-1.71-11.17-6.62l-15.58-60.98c-1.26-4.91,1.71-9.92,6.62-11.17
		l161.56-41.29c4.91-1.26,9.92,1.71,11.17,6.62l15.58,60.98C2036.59,776.87,2033.63,781.87,2028.71,783.13z"/>
	
		<rect x="661.79" y="1325.73" transform="matrix(0.819 -0.5737 0.5737 0.819 -494.7715 1378.601)" class="st4" width="2552.64" height="295.85"/>
</g>
</svg>
