<?xml version="1.0" encoding="utf-8"?>
<!-- Generator: Adobe Illustrator 28.0.0, SVG Export Plug-In . SVG Version: 6.00 Build 0)  -->
<svg version="1.1" id="Layer_1" xmlns="http://www.w3.org/2000/svg" xmlns:xlink="http://www.w3.org/1999/xlink" x="0px" y="0px"
	 viewBox="0 0 3000 3000" style="enable-background:new 0 0 3000 3000;" xml:space="preserve">
<style type="text/css">
	.st0{fill:#96E072;stroke:#508E2F;stroke-width:60;stroke-linecap:round;stroke-miterlimit:10;}
	.st1{fill:#96E072;}
</style>
<g>
	<g>
		<path class="st0" d="M1487.7,2299.5c0,0-719.5-567.2-715.5-925.8c4.2-370.2,458.4-608.9,717.7-93.1"/>
		<path class="st0" d="M1487.4,2299.6c0,0,724-567.2,720-925.8c-4.2-370.2-458.4-608.9-717.7-93.1"/>
		<rect x="1457" y="1311.8" class="st1" width="66" height="916"/>
	</g>
	<path class="st0" d="M1117.2,1475.6c0,0,120.7-211,267.9-23.9"/>
	<path class="st0" d="M1578.8,1459.8c0,0,145.3-194.9,268.8,8.6"/>
	<path class="st0" d="M1729.4,1670.9c0,0-253.3,192-478.6-14.1"/>
	<g>
		<path class="st1" d="M1146.1,2352.7c-0.6-9.7-2.1-19.6-4.6-29c-2.5-9.5-6.3-18.6-10.5-27.5c-7.4-16-18.1-30.6-29.8-43.6
			c-12-13.2-26.2-24.7-41.4-34c-16.6-10.2-35.3-17.5-54.2-22.5c-20.9-5.6-42.7-8.4-64.3-9.5c-39.1-2.1-78.2,2.2-117.1,6.2
			c-37.4,3.9-75.2,7-112.8,3.8c-3.5-0.3-7-0.7-10.4-1.1c-17.1-2.6-33.9-6.8-50-13.1c-9.7-4.4-19-9.5-27.6-15.7
			c-7.7-6.3-14.7-13.4-21-21.1c-6-8.3-11.3-17.1-15.5-26.4c-3-7.9-5.3-16-6.8-24.3c-0.6-6.4-0.7-12.9-0.1-19.4
			c0.9-5.2,2.3-10.2,4.1-15.2c1.8-3.8,3.9-7.4,6.2-10.9c9.6,6.8,19.4,13.3,29.3,19.5c22.3,14,45.5,27.9,71,35.1
			c27,7.6,57.8,7.2,82-8.3c11.8-7.5,21.1-16.9,29.1-28.4c3.9-5.6,6.5-11.9,9-18.2c2.5-6.3,3.3-12.6,4.1-19.3
			c3.2-27.1-14.2-54.3-38.2-65.8c-6.5-3.1-13.3-5.9-20.3-7.7c-7.1-1.8-14.5-2.7-21.7-3.6c-9.5-1.2-19.2-1.6-28.8-1.8
			c-22.2-0.4-44.3,1.2-66.2,5.1c-9.3,1.7-18.5,4-27.5,7.1c-6.8,2.4-13.6,5.1-20.2,8.2c-4.3-4.4-8.4-9-12.3-13.8
			c-5.4-7.4-10.1-15.2-13.9-23.4c-3-7.8-5.2-15.8-6.6-24c-0.7-6.9-0.7-13.8-0.1-20.7c0.9-5.1,2.3-10.2,4-15.1
			c1.7-3.6,3.7-7,5.9-10.2c2.7-2.6,4.6-5.7,5.7-9.2c1.9-3.7,2.8-7.6,2.6-11.8c0-7.5-3.3-16.5-9-21.6c-5.8-5.3-13.5-9.3-21.6-9
			c-7.6,0.3-16.6,2.8-21.6,9c-4.7,5.7-9.3,11.6-12.8,18c-3.5,6.3-6.3,13.1-8.7,19.9c-4,11.6-5.8,24.3-6.1,36.5
			c-0.4,12.4,1.3,25.1,4,37.1c2.8,12.3,7.5,24.2,13.1,35.4c5.8,11.8,13.7,22.3,21.9,32.5c2.4,2.9,4.8,5.8,7.4,8.6
			c-4.2,5.4-8,11.1-11.1,17c-10.3,19.8-15.5,42.4-14.1,64.7c1.5,23.1,8,44.7,18.5,65.2c5.4,10.4,12.1,19.8,19.3,29
			c5.7,7.3,11.9,14.1,18.7,20.2c8.6,7.7,17.9,14.9,27.8,20.8c11.5,6.8,24,12.1,36.5,16.7c23.9,8.8,49.5,12.9,74.8,14.8
			c23.5,1.8,47.1,1.2,70.6-0.5c48.6-3.4,97-11.3,145.8-10.2c10.5,0.3,21.1,0.9,31.6,2.2c17,2.6,33.8,6.7,49.8,13
			c9.8,4.4,19,9.9,27.7,16.2c8.7,7.1,16.7,15,23.8,23.7c5.8,7.9,10.8,16.4,14.9,25.3c2.7,7.2,4.8,14.5,6.2,22.1
			c0.6,6,0.6,12.1,0.1,18.1c-1.2,6.5-3.1,12.9-5.6,19.1c-1.3,4.1-1.5,8.1-0.6,12.2c0.2,4.1,1.4,7.9,3.6,11.4
			c3.7,6.4,11,12.4,18.3,14.1c7.8,1.8,16.6,1.4,23.6-3.1c2.1-1.6,4.1-3.2,6.2-4.8c3.8-3.8,6.4-8.3,7.9-13.5c2.8-6.9,4.9-14.1,6-21.5
			C1145.7,2372.1,1146.8,2362.5,1146.1,2352.7z M731,2013.3c5.3,0.9,10.5,2.1,15.6,3.9c1.6,0.8,3.1,1.7,4.6,2.6
			c0.6,0.6,1.2,1.2,1.8,1.8c0.2,0.4,0.5,0.8,0.7,1.2c0.1,0.3,0.2,0.6,0.3,1c0,0.6,0,1.3,0,1.9c-0.3,1.4-0.7,2.8-1.2,4.1
			c-1.1,2.1-2.2,4.1-3.5,6c-1.9,2.1-3.9,4.1-6,6c-2.1,1.4-4.2,2.7-6.4,3.8c-2,0.7-4.1,1.3-6.2,1.7c-4.5,0.3-9.1,0.3-13.6-0.1
			c-7.6-1.4-15.1-3.7-22.3-6.5c-8.8-4-17.3-8.6-25.7-13.4c-1.4-0.3-2.4-1-3.2-1.9c-4.8-2.9-9.5-5.8-14.2-8.8
			c-0.4-0.2-0.8-0.5-1.2-0.7c4-0.8,7.9-1.5,11.9-2.1c11.4-1.3,22.9-1.9,34.4-1.9C708.2,2011.8,719.7,2012.1,731,2013.3z"/>
	</g>
	<g>
		<path class="st1" d="M1254.8,2336.5c-5.4,11.4-10,23.2-12.9,35.4c-2.8,12.3-4.5,25-4.8,37.6c-0.3,12.7,1.1,25.4,3.2,37.9
			c1.7,10.1,4.2,20,7.7,29.6c4.3,11.9,9.4,23.6,15.8,34.5c6.4,10.9,14,21.1,22.3,30.5c8.6,9.7,18.3,17.9,28.6,25.7
			c8.3,6.4,17.2,12,26.5,16.8c20.7,10.7,43.2,18.5,66.3,22.1c12.9,1.9,25.7,3.4,38.8,3.3c13.1-0.1,26.1-1.6,39-3.7
			c23.2-3.9,45.7-12.2,66.7-22.8c21-10.6,40.4-24.7,57.8-40.6c17.5-15.9,32.8-34.4,45.7-54.2c10.8-16.5,19.6-34.1,30.5-50.6
			c2.6-3.9,5.4-7.8,8.2-11.6c-1.6,2.1-3.2,4.1-4.8,6.2c5.7-7.4,12.1-14.2,19.5-19.9c-2.1,1.6-4.1,3.2-6.2,4.8
			c5-3.8,10.4-7.1,16.2-9.5c-2.4,1-4.9,2.1-7.3,3.1c2.7-1.1,5.5-2.1,8.3-2.9c7.4-2.1,14.4-7.4,18.3-14.1c2.2-3.5,3.4-7.3,3.6-11.4
			c0.9-4.1,0.7-8.1-0.6-12.2c-2.4-7.4-7-14.6-14.1-18.3c-7.3-3.9-15.5-5.3-23.6-3.1c-22.9,6.3-42.6,21.1-57.1,39.7
			c-7.5,9.6-14.5,19.5-20.8,29.9c-5.1,8.4-9.9,17.1-15,25.6c-6,10.2-12.5,20.1-19.7,29.5c1.6-2.1,3.2-4.1,4.8-6.2
			c-12.8,16.5-27.6,31.4-44.1,44.1c2.1-1.6,4.1-3.2,6.2-4.8c-15.6,12-32.6,22.1-50.7,29.8c2.4-1,4.9-2.1,7.3-3.1
			c-16.5,6.9-33.8,11.8-51.5,14.2c2.7-0.4,5.4-0.7,8.1-1.1c-17.3,2.3-34.8,2.3-52,0c2.7,0.4,5.4,0.7,8.1,1.1
			c-17-2.3-33.7-6.7-49.5-13.4c2.4,1,4.9,2.1,7.3,3.1c-14.1-6-27.4-13.6-39.6-23c2.1,1.6,4.1,3.2,6.2,4.8
			c-10.6-8.2-20.2-17.7-28.5-28.3c1.6,2.1,3.2,4.1,4.8,6.2c-8.6-11.2-15.7-23.4-21.2-36.4c1,2.4,2.1,4.9,3.1,7.3
			c-5.6-13.4-9.4-27.4-11.4-41.8c0.4,2.7,0.7,5.4,1.1,8.1c-1.8-13.9-1.9-27.9-0.1-41.8c-0.4,2.7-0.7,5.4-1.1,8.1
			c1.7-12.2,4.8-24.1,9.6-35.4c-1,2.4-2.1,4.9-3.1,7.3c0.8-2,1.7-3.9,2.6-5.8c2.2-3.5,3.4-7.3,3.6-11.4c0.9-4.1,0.7-8.1-0.6-12.2
			c-1.9-7.1-7.4-14.8-14.1-18.3c-7.1-3.8-15.7-5.6-23.6-3.1C1265.9,2324.8,1258.2,2329.4,1254.8,2336.5L1254.8,2336.5z"/>
	</g>
	<g>
		<path class="st1" d="M1863.3,2341.7c2.5-1.8,5.2-3.3,8-4.5c-2.4,1-4.9,2.1-7.3,3.1c3.9-1.6,7.9-2.7,12.1-3.3
			c-2.7,0.4-5.4,0.7-8.1,1.1c5.3-0.7,10.6-0.6,15.9,0.1c-2.7-0.4-5.4-0.7-8.1-1.1c7,1,13.8,2.9,20.3,5.6c-2.4-1-4.9-2.1-7.3-3.1
			c10.4,4.4,19.8,10.9,28.7,17.8c-2.1-1.6-4.1-3.2-6.2-4.8c13.8,10.7,26.9,22.5,41.5,32.2c6,4,12.3,7.5,18.8,10.5
			c8.5,3.9,17.3,7.6,26.3,10.2c6.8,2,13.9,3.6,20.9,4.6c9.5,1.3,18.8,2.5,28.4,2.5c9.7,0,19.3-1.2,28.9-2.6c6.9-1,13.7-2.5,20.4-4.5
			c8.8-2.7,17.3-6.2,25.6-10.1c5.7-2.7,11.3-5.8,16.6-9.2c12.8-8.3,24.9-18.1,35-29.4c5.9-6.6,11.4-13.6,16.4-20.9
			c3.6-5.3,6.9-10.8,9.8-16.6c7.5-14.8,13.6-30.8,15.9-47.3c1.4-10.4,2.6-20.6,1.3-31.1c-0.8-6.4-1.5-12.9-3.4-19.1
			c-1.6-5.4-3.9-10.6-6.2-15.7c-3.6-8-9.1-15.3-14.9-21.8c-2.1-2.4-4.5-4.6-7-6.6c-4.3-3.4-8.7-7-13.6-9.6
			c-4.9-2.6-10.1-4.8-15.4-6.5c-4.1-1.3-8.1-1.5-12.2-0.6c-4.1,0.2-7.9,1.4-11.4,3.6c-3.6,1.9-6.4,4.6-8.6,7.9
			c-2.7,3-4.5,6.4-5.5,10.4c-0.4,2.7-0.7,5.4-1.1,8.1c0,5.5,1.4,10.7,4.2,15.4c1.6,2.1,3.2,4.1,4.8,6.2c3.8,3.8,8.3,6.4,13.5,7.9
			c1.4,0.4,2.8,0.9,4.2,1.5c-2.4-1-4.9-2.1-7.3-3.1c3.9,1.7,7.6,3.8,10.9,6.4c-2.1-1.6-4.1-3.2-6.2-4.8c3.8,2.9,7.1,6.3,10.1,10.1
			c-1.6-2.1-3.2-4.1-4.8-6.2c3.2,4.2,5.9,8.8,8,13.7c-1-2.4-2.1-4.9-3.1-7.3c2.4,5.7,3.9,11.6,4.7,17.7c-0.4-2.7-0.7-5.4-1.1-8.1
			c1,7.7,0.8,15.5-0.2,23.2c0.4-2.7,0.7-5.4,1.1-8.1c-1.5,10.8-4.6,21.3-8.8,31.3c1-2.4,2.1-4.9,3.1-7.3
			c-4.8,11.2-11,21.8-18.4,31.4c1.6-2.1,3.2-4.1,4.8-6.2c-7.6,9.8-16.4,18.6-26.1,26.2c2.1-1.6,4.1-3.2,6.2-4.8
			c-9.6,7.4-20.2,13.7-31.4,18.4c2.4-1,4.9-2.1,7.3-3.1c-11.3,4.7-23.1,7.9-35.2,9.5c2.7-0.4,5.4-0.7,8.1-1.1
			c-12.7,1.7-25.6,1.6-38.4-0.1c2.7,0.4,5.4,0.7,8.1,1.1c-12.7-1.7-25.2-5.1-37-10.1c2.4,1,4.9,2.1,7.3,3.1
			c-12.4-5.3-23.6-12.4-34.3-20.6c2.1,1.6,4.1,3.2,6.2,4.8c-15.8-12.2-30.6-26.1-47.9-36.2c-3.5-2.1-7.1-3.9-10.9-5.5
			c-5.9-2.5-11.7-5-17.8-6.7c-6.3-1.7-12.9-2.6-19.5-3.3c-3.8-0.4-7.5-0.5-11.3-0.2c-4.7,0.4-9.5,1-14.1,1.9c-2,0.4-3.9,0.9-5.8,1.5
			c-4.4,1.5-8.7,3.3-12.9,5.4c-2,1-3.9,2.1-5.7,3.4c-3.6,1.9-6.4,4.6-8.6,7.9c-2.7,3-4.5,6.4-5.5,10.4c-1.3,4.1-1.5,8.1-0.6,12.2
			c0.2,4.1,1.4,7.9,3.6,11.4c4.2,6.5,10.5,12.3,18.3,14.1c2.7,0.4,5.4,0.7,8.1,1.1C1853.4,2345.8,1858.6,2344.4,1863.3,2341.7
			L1863.3,2341.7z"/>
	</g>
	<g>
		<path class="st1" d="M2499.7,1992.5c-2.3-10.3-6.3-20.4-11-29.8c-4.7-9.5-11-18-17.7-26.2c-5.1-6.2-10.8-11.9-16.9-17
			c-14.4-12-30-22.1-47.1-29.7c-11.5-5.1-23.2-9.7-35.3-13.2c4.6-27.1,11.3-53.8,19.1-80.2c9.8-32.7,21.5-64.8,33.9-96.6
			c7-17.9,14.2-35.8,21.5-53.6c1.3-4.1,1.5-8.1,0.6-12.2c-0.2-4.1-1.4-7.9-3.6-11.4c-3.7-6.3-11-12.4-18.3-14.1
			c-7.8-1.8-16.6-1.4-23.6,3.1c-2.1,1.6-4.1,3.2-6.2,4.8c-3.8,3.8-6.4,8.3-7.9,13.5c-14.6,35.6-28.9,71.3-41.6,107.6
			c-12.6,36.1-23.5,72.9-30.8,110.5c-1.3,6.9-2.5,13.8-3.6,20.7c-9,0.4-18.1,1.6-26.9,3.3c-10.8,2.1-20.8,6-30.8,10.5
			c-9,4-16.6,9.6-24.3,15.6c-5.6,4.4-10.8,9.4-15.3,15c-5.9,7.3-11.6,14.8-15.9,23.3c-4.2,8.4-7.9,17.3-9.9,26.4
			c-2,9.1-3.3,18.7-2.7,28c0.6,9.2,2,18.6,5.3,27.2c0.9,4,2.8,7.4,5.5,10.4c2.2,3.3,5,6,8.6,7.9c3.5,2.2,7.3,3.4,11.4,3.6
			c4.1,0.9,8.1,0.7,12.2-0.6c7.4-2.4,14.6-7,18.3-14.1c3.6-6.9,6-16,3.1-23.6c-1.3-3.4-2.3-6.9-3-10.4c-0.2-3.3-0.2-6.7,0-10
			c0.8-4.3,2-8.5,3.5-12.6c2.3-4.7,4.9-9.3,8-13.6c3.5-4.1,7.2-7.9,11.3-11.3c4.2-2.9,8.7-5.5,13.3-7.7c6.8-2.6,13.8-4.4,21-5.6
			c0.4,0,0.7-0.1,1.1-0.1c-0.5,12.4-0.4,24.9,0.2,37.3c0.5,9.5,1.4,18.9,2.6,28.4c1.3,9.9,2.6,19.7,4.9,29.4
			c1.6,6.8,3.6,13.5,6.2,20c3.4,8.7,7.1,17.5,11.9,25.6c1.7,2.9,3.6,5.7,5.7,8.4c3.5,4.6,6.9,9.2,10.9,13.2c4,4.1,8.5,7.4,13.1,10.9
			c2.6,2,5.3,3.7,8.2,5.2c5.1,2.7,10.4,4.9,15.9,6.7c5.8,1.9,11.8,2.6,17.8,3.3c9.4,1.1,19.2-0.1,28.3-2.4c5.8-1.5,11.3-4,16.8-6.4
			c3.3-1.4,6.5-3.2,9.5-5.1c7.9-5.1,15.6-11.3,21.7-18.6c3.8-4.6,7.6-9.4,10.7-14.5c3.1-5.2,5.4-10.9,7.6-16.5
			c3.8-9.8,5.4-20.6,6-31.1C2503.3,2013.6,2501.9,2002.8,2499.7,1992.5z M2427.3,2051.1c-2.6,1.8-5.3,3.4-8.1,4.8
			c-2.4,0.8-4.9,1.5-7.3,2c-2,0.1-4,0.1-6,0c-2-0.4-3.9-1-5.8-1.6c-2-1.1-4-2.2-5.9-3.5c-2.5-2.2-4.9-4.6-7.1-7.2
			c-3.5-5-6.5-10.3-9-15.9c-4.7-12.1-7.6-24.7-9.6-37.4c-2.1-17.7-2.9-35.6-2.6-53.4c3,1,6,2.1,8.9,3.3c0.8,0.2,1.6,0.5,2.1,0.9
			c11.6,5.2,22.7,11.5,32.9,19c6.3,5.2,12.1,10.9,17.3,17.1c3.6,5.1,6.8,10.5,9.5,16.2c2,5.4,3.6,11.1,4.7,16.8
			c0.4,4.7,0.4,9.4,0.1,14.1c-0.7,3.6-1.6,7.2-2.9,10.7c-1.3,2.6-2.8,5.1-4.4,7.5C2432,2046.7,2429.7,2049,2427.3,2051.1z"/>
	</g>
	<g>
		<path class="st1" d="M2463.4,1510.4c17.1-4.8,34.3-9.7,51.1-15.7c18.7-6.7,37.4-14.6,54.4-24.9c15.8-9.7,30.9-21.5,42.9-35.7
			c6.6-7.8,12.9-16,18.1-24.9c5.2-8.8,9.3-18.4,12.6-28.1c3.2-9.8,4.9-20.1,5.7-30.3c0.8-10.1-0.4-20.2-2.2-30.2
			c-1.8-9.7-5.4-18.7-9.4-27.7c-2.9-6.7-6.7-13.1-10.9-19c-5.7-7.9-11.9-15.6-18.8-22.5c-7.1-7-14.9-13.1-22.8-19.1
			c-12.3-9.2-25.9-16.8-40-22.9c-19.1-8.2-38.6-15-58.5-21.1c-17.5-5.4-35.1-10.5-52.3-16.9c-4.2-1.6-8.5-3.3-12.6-5
			c2.4,1,4.9,2.1,7.3,3.1c-15.3-6.5-29.9-14.4-43.1-24.6c2.1,1.6,4.1,3.2,6.2,4.8c-9.8-7.6-18.7-16.2-26.4-26
			c1.6,2.1,3.2,4.1,4.8,6.2c-5.9-7.7-11-16-14.7-24.9c1,2.4,2.1,4.9,3.1,7.3c-3-7.2-5.1-14.8-6.2-22.6c0.4,2.7,0.7,5.4,1.1,8.1
			c-0.6-4.6-0.8-9.3-0.7-13.9c0.2-4.2-0.7-8.1-2.6-11.8c-1.2-3.8-3.3-7.1-6.3-9.8c-2.8-3-6.1-5.1-9.9-6.3c-3.6-1.9-7.6-2.8-11.8-2.6
			c-7.9,0.3-16.1,2.9-21.6,9c-5.6,6.1-8.7,13.2-9,21.6c-0.7,21.2,5.3,42.2,15.2,60.7c5,9.3,11.5,17.9,18.3,26
			c5.4,6.4,11.4,12.4,17.8,17.8c15,12.7,31.1,23.3,49,31.4c20.6,9.3,41.8,16.5,63.4,23.1c21.5,6.6,43.2,12.9,64,21.6
			c-2.4-1-4.9-2.1-7.3-3.1c15.6,6.6,30.4,14.9,43.9,25.2c-2.1-1.6-4.1-3.2-6.2-4.8c9.8,7.6,18.8,16.2,26.3,26
			c-1.6-2.1-3.2-4.1-4.8-6.2c5.6,7.3,10.3,15.1,13.9,23.6c-1-2.4-2.1-4.9-3.1-7.3c3.1,7.4,5.2,15.1,6.3,23.1
			c-0.4-2.7-0.7-5.4-1.1-8.1c1,7.6,0.9,15.3-0.1,22.9c0.4-2.7,0.7-5.4,1.1-8.1c-1.2,8.6-3.6,17-6.9,25c1-2.4,2.1-4.9,3.1-7.3
			c-4.1,9.7-9.6,18.7-16,27c1.6-2.1,3.2-4.1,4.8-6.2c-7.4,9.5-16,18-25.5,25.4c2.1-1.6,4.1-3.2,6.2-4.8
			c-13.9,10.7-29.4,18.9-45.4,25.7c2.4-1,4.9-2.1,7.3-3.1c-22,9.2-44.9,15.7-67.8,22.2c-7.4,2.1-14.4,7.4-18.3,14.1
			c-2.2,3.5-3.4,7.3-3.6,11.4c-0.9,4.1-0.7,8.1,0.6,12.2c2.4,7.4,7,14.6,14.1,18.3C2447.1,1511.1,2455.3,1512.6,2463.4,1510.4
			L2463.4,1510.4z"/>
	</g>
	<g>
		<path class="st1" d="M2413.3,808.1c-1.8-11.4-6.4-22.5-11.7-32.7c-5.2-9.8-12.2-19-19.9-27c-15.7-16.6-36-28.6-57.6-35.7
			c-21.6-7.2-45.1-8-67.3-3.4c-1.9,0.4-3.8,0.9-5.7,1.4c-4.6-5.5-9.3-10.9-14.4-16c-30.1-30.4-69.1-51.9-110.2-63.2
			c-41.8-11.6-85.9-12.7-128.4-4.5c-21.6,4.2-42,11.5-62.1,20.2c-17.9,7.8-35,17.4-51,28.6c-18.1,12.6-35.3,26.7-50.8,42.4
			c-15.5,15.6-29.4,32.8-42,50.7c-2.8,4-5.5,8-8.1,12.1c-4.2,6.5-5.1,16.2-3.1,23.6c1.9,7.1,7.4,14.8,14.1,18.3
			c7.1,3.8,15.7,5.6,23.6,3.1c7.8-2.5,13.8-7.1,18.3-14.1c4.9-7.6,10.1-15,15.5-22.2c16-20.1,34.2-38.4,54.3-54.4
			c18.4-13.8,38.2-25.6,59.2-34.9c18.6-7.5,38-13,57.9-16.1c19-2.2,38.1-2.2,57.1,0c18.7,2.8,37.1,7.7,54.7,14.8
			c14.6,6.5,28.5,14.5,41.3,24c7.5,6,14.4,12.6,21,19.5c-31.9,32.1-46.4,80.1-36.4,124.4c1,4.3,2.2,8.4,3.8,12.5
			c0.9,4,2.8,7.5,5.5,10.4c2.2,3.3,5,6,8.6,7.9c6.6,3.8,16.2,5.5,23.6,3.1c7.4-2.4,14.6-7,18.3-14.1c3.6-6.9,6-16,3.1-23.6
			c-2-5.3-3.5-10.7-4.6-16.2c-0.5-5.9-0.5-11.9,0.1-17.8c1.2-6.7,3-13.2,5.4-19.6c2.7-5.8,5.9-11.3,9.5-16.5
			c1.5,2.3,2.9,4.6,4.4,6.8c0.9,0.8,1.6,1.8,1.9,3c1.6,2.5,3.2,5,4.9,7.4c7.6,11.5,15.7,22.6,24.2,33.5c6.7,8.5,13.8,16.9,22.3,23.7
			c11.8,9.4,23.9,17,38.4,21.5c6.6,2.1,13.8,3.1,20.7,3.3c4.6,0.2,9.2-0.7,13.7-1.3c2.3-0.3,4.6-0.8,6.8-1.6
			c9.2-3.3,16.3-7.3,23.5-14c5.1-4.7,9.6-10.8,12.4-17.2c1.9-4.3,3.9-8.7,5-13.3c1.1-4.8,1.7-9.7,2.1-14.5
			C2415.6,822.9,2414.5,815.5,2413.3,808.1z M2314.3,802c-8.3-11.1-16-22.6-23.5-34.3c0.7,0,1.4,0.1,2.1,0.2c6.6,1.2,13,3,19.3,5.3
			c6.2,2.9,12,6.3,17.6,10.2c4.6,3.9,8.9,8.1,12.8,12.7c3.1,4.3,5.7,8.9,8,13.6c1.4,3.8,2.5,7.7,3.3,11.6c0.1,2.3,0.2,4.5,0.1,6.8
			c-0.2,0.9-0.4,1.8-0.7,2.7c0,0.1-0.1,0.1-0.1,0.2c-0.6,0-1.2,0-1.9,0c-2.1-0.5-4.2-1.1-6.3-1.8c-4-2-7.8-4.2-11.4-6.8
			C2326.4,816.4,2320.1,809.3,2314.3,802z"/>
	</g>
	<g>
		<path class="st1" d="M1686.7,713.3c-3.7-6.3-11-12.4-18.3-14.1c-16.8-3.8-32.3,5.1-37.6,21.4c-0.4,1.2-0.8,2.4-1.2,3.6
			c-2.3,4.8-5,9.4-8.1,13.8c-3.9,4.7-8.3,8.9-12.9,12.8c-6.2,4.5-12.9,8.3-19.9,11.5c-9.1,3.5-18.6,6.1-28.3,7.7
			c-10.3,1.1-20.6,1.1-30.8,0.1c-9.3-1.5-18.3-4-27.1-7.4c-10.6-4.8-20.7-10.6-30.2-17.3c15.8-11.8,29.4-25.9,39.9-42.7
			c11.9-18.9,18.4-40.6,19.9-62.8c0.7-11-0.8-22.4-3.3-33.2c-2.5-10.7-6.9-21.2-12.1-30.8c-10.5-19.5-26.4-36.1-44.9-48.2
			c-9-5.9-19.3-10.5-29.6-13.6c-4-1.2-8-2.1-12.2-2.7c-6.7-1-13.4-2-20.2-1.8c-25.2,0.6-50.7,10.3-68.6,28.3
			c-9.9,9.9-17.3,22.5-21.1,36c-4.2,15-3.5,30.2-0.8,45.3c2.3,13.2,7.5,25.7,12.8,37.9c4,9.1,8.5,18.1,13.2,26.9
			c5.4,10.1,11.1,19.9,17.3,29.5c-9.9-1.8-19.7-4.6-29.1-8.3c-11.5-5.2-22.4-11.6-32.6-19.1c-11.5-9.3-21.7-20-30.9-31.5
			c-11-14.5-21.4-29.5-32.9-43.6c-5.3-6.5-11-12.7-17.2-18.3c-7.7-6.9-16.1-13.5-25.3-18.3c-22.2-11.4-47.8-14.8-72-7.4
			c-11.4,3.5-22.6,8.8-32.1,16c-5.8,4.3-11.6,8.8-16.8,13.9c-5.2,5.2-9.7,11-14.2,16.9c-16.2,21.2-25.7,46.7-35.3,71.3
			c-2.7,7-0.5,17.4,3.1,23.6c3.7,6.3,11,12.4,18.3,14.1c7.8,1.8,16.6,1.4,23.6-3.1c2.1-1.6,4.1-3.2,6.2-4.8
			c3.8-3.8,6.4-8.3,7.9-13.5c2.2-5.8,4.5-11.5,6.9-17.3c5.6-12.8,12-25.2,20.2-36.6c3.9-4.7,8.2-9,12.9-13c4-2.8,8.2-5.3,12.5-7.4
			c3.3-1.2,6.6-2.1,10-2.8c2.8-0.2,5.5-0.2,8.2,0c2.9,0.6,5.8,1.4,8.7,2.4c3.8,1.9,7.3,4,10.8,6.4c9,7.5,16.8,16.4,24,25.5
			c11.2,14.8,21.7,30,33.5,44.4c13.8,16.8,30.9,31.2,49.2,42.8c18.3,11.7,39,20.7,60.2,25.4c23.3,5.2,46.8,5.9,70.3,1.5
			c17.8,17.3,37.8,32.2,60.7,42.5c9.9,4.5,20,8.7,30.6,11.3c10,2.5,20.4,4,30.7,4.8c18.1,1.5,36.9-0.4,54.5-4.6
			c36.6-8.8,70.7-30.7,90.6-63c5.2-8.4,9.1-17.7,12.2-27C1692.2,729.6,1690.5,719.9,1686.7,713.3z M1417.4,571
			c4.4,0.8,8.6,2,12.8,3.5c4.8,2.3,9.5,5.1,13.9,8.2c4.7,3.9,8.9,8.2,12.8,12.9c3.6,5,6.7,10.4,9.4,16c1.9,5.2,3.4,10.5,4.4,15.9
			c0.4,5,0.4,10-0.1,14.9c-1.1,6-2.7,11.8-4.9,17.5c-3,6.3-6.5,12.3-10.6,17.9c-5.1,6.1-10.8,11.7-16.9,16.8
			c-3.2,2.3-6.6,4.5-10,6.5c-0.7-0.9-1.3-1.8-2-2.7c-1.6-0.8-2.5-2.3-2.9-4c-14.7-20.8-27.4-43.3-37.6-66.6
			c-3.2-7.9-5.8-16-7.3-24.4c-0.3-3.3-0.3-6.6-0.1-10c0.4-2,1-4,1.6-5.9c0.8-1.5,1.7-3,2.6-4.4c1.5-1.6,3.1-3.2,4.7-4.7
			c2.6-1.7,5.3-3.3,8.1-4.7c3.5-1.2,7.1-2.2,10.7-2.9C1409.8,570.7,1413.6,570.7,1417.4,571z"/>
	</g>
	<g>
		<path class="st1" d="M514.7,1692.2c5.8-3.9,11.4-8.2,16.9-12.5c3.6-2.8,7.1-5.8,10.5-8.9c8.5-7.9,15.8-16.8,22.5-26.2
			c6.8-9.5,11.7-20,15.7-30.9c1.5-4.2,2.8-8.6,3.7-13c1-4.7,1.5-9.6,2.1-14.3c0.3-2.2,0.5-4.5,0.6-6.7c0.2-4.5,0.1-8.9-0.5-13.4
			c-0.8-7-1.7-14-3.7-20.7c-0.6-2.1-1.4-4.2-2.2-6.2c-1.8-4.3-3.5-8.8-5.7-12.9c-3.2-6.1-7.5-11.6-11.8-16.9
			c-2.8-3.4-5.9-6.6-9.3-9.4c-5.2-4.4-10.6-8.6-16.4-12.2c-9.6-6-20.2-10.5-30.8-14.5c-17.7-6.8-36.3-10.8-54-17.4
			c-2.3-0.8-4.5-1.7-6.7-2.7c2.4,1,4.9,2.1,7.3,3.1c-8.6-3.6-17-8.1-24.4-13.8c2.1,1.6,4.1,3.2,6.2,4.8c-4.7-3.7-8.9-7.9-12.6-12.6
			c1.6,2.1,3.2,4.1,4.8,6.2c-3.5-4.6-6.5-9.6-8.8-14.9c1,2.4,2.1,4.9,3.1,7.3c-1.9-4.4-3.2-9.1-3.8-13.8c0.4,2.7,0.7,5.4,1.1,8.1
			c-0.5-3.9-0.5-7.8,0-11.7c-0.4,2.7-0.7,5.4-1.1,8.1c0.5-3.4,1.4-6.7,2.7-9.8c1.3-4.1,1.5-8.1,0.5-12.2c-0.2-4.1-1.4-7.9-3.6-11.4
			c-1.9-3.6-4.5-6.4-7.9-8.6c-3-2.7-6.4-4.5-10.4-5.5c-2.7-0.4-5.4-0.7-8.1-1.1c-5.5,0-10.7,1.4-15.4,4.2c-2.1,1.6-4.1,3.2-6.2,4.8
			c-3.8,3.8-6.4,8.3-7.9,13.5c-1,2.4-1.8,4.9-2.3,7.5c-1,5-1.8,10.2-1.9,15.3c-0.1,5.1,0.8,10.2,1.5,15.2c0.4,2.5,0.9,5,1.6,7.4
			c1.4,4.9,3.6,9.7,5.6,14.3c1.1,2.4,2.3,4.8,3.7,7.1c1.3,2.3,2.8,4.4,4.4,6.5c3.1,4,6.1,8.2,9.6,11.9c1.8,2,3.8,3.8,5.9,5.6
			c4,3.4,8.2,6.6,12.6,9.6c5,3.4,10.2,6.3,15.7,8.8c13.3,6.2,27,10.9,41.1,15.1c12.5,3.7,25,7.2,37,12.3c-2.4-1-4.9-2.1-7.3-3.1
			c9.1,3.8,17.8,8.5,25.6,14.5c-2.1-1.6-4.1-3.2-6.2-4.8c4.9,3.8,9.4,8.2,13.2,13.1c-1.6-2.1-3.2-4.1-4.8-6.2
			c3.3,4.4,6.1,9.1,8.2,14.1c-1-2.4-2.1-4.9-3.1-7.3c2.5,5.9,4,12,4.9,18.3c-0.4-2.7-0.7-5.4-1.1-8.1c0.9,7.3,0.9,14.6-0.1,21.9
			c0.4-2.7,0.7-5.4,1.1-8.1c-1.1,7.7-3.1,15.3-6.2,22.5c1-2.4,2.1-4.9,3.1-7.3c-3.6,8.3-8.2,16.1-13.8,23.3c1.6-2.1,3.2-4.1,4.8-6.2
			c-7.5,9.6-16.3,18.1-25.9,25.6c2.1-1.6,4.1-3.2,6.2-4.8c-3.4,2.6-6.8,5.1-10.4,7.4c-3.6,1.9-6.4,4.6-8.6,7.9
			c-2.7,2.9-4.5,6.4-5.5,10.4c-1.3,4.1-1.5,8.1-0.5,12.2c0.2,4.1,1.4,7.9,3.6,11.4c1.6,2.1,3.2,4.1,4.8,6.2
			c3.8,3.8,8.3,6.4,13.5,7.9c2.7,0.4,5.4,0.7,8.1,1.1C504.8,1696.4,510,1695,514.7,1692.2L514.7,1692.2z"/>
	</g>
	<g>
		<path class="st1" d="M948.7,695.8c-2.2-7.9-8.3-16.4-15.6-20.3c-7.9-4.2-17.5-6.3-26.2-3.4c-8.4,2.7-15.8,7.8-20.3,15.6
			c-1.9,3.2-3.9,6.3-6,9.3c-5,6-10.7,11.5-16.7,16.5c-9,6.5-18.7,12-28.8,16.5c-15.2,5.9-30.9,9.9-47,12.3
			c-48.5,5.7-97.6,0.2-146.3,1c-25.4,0.5-50.8,2-76.1,4.7c-26.9,2.8-54.1,6.3-80.6,11.9c-11,2.4-22,5.3-32.5,9.4
			c-12.6,4.9-25,10.4-36,18.3c-10.2,7.3-19.8,15.3-27.8,25c-8,9.8-15.5,20-20.8,31.6c-5.2,11.4-9.8,23.1-12,35.6
			c-2.2,13-3.5,26.1-2.1,39.3c1.5,13.1,3.6,25.9,8.4,38.2c4.8,12.3,10.3,24.1,18.3,34.7c7.7,10.3,15.8,19.7,25.9,27.7
			c10,7.8,20,15,31.3,20.7c16.1,8.1,33,14.2,50.4,18.8c1.4,6.5,2.6,13,3.6,19.5c1.3,11.7,1.6,23.4,0.4,35
			c-1.7,10.2-4.5,20.2-8.2,29.8c-4.2,9.1-9.2,17.7-15,25.8c-6,7.3-12.7,14-20,20c-8.2,5.9-17,11.1-26.2,15.3
			c-9.6,3.7-19.5,6.5-29.7,8.2c-2.5,0.3-5.1,0.5-7.6,0.6c-9,0.5-17.5,3.5-24,10c-5.9,5.9-10.3,15.6-10,24c0.4,8.8,3.3,17.9,10,24
			c6.4,5.9,15,10.4,24,10c13.1-0.7,26.4-2.6,39.2-5.9c12.6-3.3,25-8.4,36.7-14.2c12-5.9,22.6-13.6,33.1-21.8
			c8.3-6.5,15.9-13.9,22.6-22.1c8.5-10.3,16.3-21.1,22.5-33c6.1-11.8,11.3-24.4,14.9-37.2c3.7-13.1,5.7-26.8,6.5-40.3
			c0.7-12.1-0.4-24.1-1.9-36c6.1,0.6,12.1,1,18.2,1.2c14.3,0.4,28.2-1,42.3-3.1c11.1-1.6,22-4.4,32.3-8.7c7.1-2.9,14.3-5.8,21-9.7
			c6.3-3.7,12-8.2,17.7-12.7c9.7-7.6,17.4-16.8,24.8-26.7c7.2-9.7,12.3-20.8,16.2-32.2c1.5-4.3,2.6-8.8,3.3-13.3
			c1.1-7.1,2.2-14.3,1.9-21.5c-0.6-15.3-4.4-28.8-11-42.6c-2.1-4.4-4.7-8.5-7.6-12.4c-4.5-6-9.1-12-14.6-17.1
			c-9-8.3-19.4-15.9-30.7-20.9c-7.5-3.3-15.1-6.5-23.1-8.6c-8.2-2.1-16.7-3.2-25.1-4.1c-14.2-1.5-28.1-0.2-42.2,1.8
			c-10.6,1.5-21.1,3.9-31.1,7.9c-7.3,2.9-14.7,6-21.5,10c-6.6,3.9-12.8,8.7-18.5,13.8c-5.8,5.1-10.4,11.2-15,17.3
			c-2.8,3.8-5.3,7.7-7.4,11.9c-11.4,22.6-16,47.9-15.1,73.2c0.1,2.7,0.2,5.4,0.5,8c-7.7-3.7-15.1-8-22-13
			c-5.4-4.5-10.3-9.3-14.8-14.7c-3.9-5.5-7.2-11.2-10-17.3c-2.5-6.7-4.4-13.5-5.6-20.5c-0.6-6.7-0.6-13.5,0-20.2
			c1.2-6.6,3-13.1,5.4-19.4c3-6.2,6.4-12.2,10.4-17.9c4.2-5,8.9-9.7,13.9-14c6.1-4.3,12.6-8,19.5-11.1c22.9-8.9,47.6-12.8,71.8-16.1
			c28.2-3.7,56.6-6.1,85.1-7.1c28.7-1,57.2,0,85.9,0.7c31.6,0.8,62.8,0.1,94.1-4.8c25.1-3.9,49.7-12.2,72.1-24.1
			c26.6-14.2,50.1-35.4,65.3-61.6C949.7,714.3,951.1,704.3,948.7,695.8z M559.9,920.4c3.9-2.7,8-5,12.2-7c7.8-2.9,15.9-4.9,24.1-6.3
			c9-0.9,18.1-1,27.1-0.2c6.1,1.1,12.1,2.7,18,4.8c4.1,2,8.1,4.3,11.9,6.9c3.1,2.7,6,5.5,8.7,8.7c1.8,2.6,3.3,5.3,4.7,8.1
			c0.9,2.5,1.6,5.1,2.2,7.8c0.2,2.9,0.2,5.7,0,8.6c-0.8,3.7-1.8,7.4-3.1,11c-2.2,4.5-4.8,8.8-7.7,13c-3.7,4.4-7.8,8.4-12.1,12.1
			c-4.8,3.4-9.8,6.3-15.1,8.8c-8.7,3.2-17.6,5.6-26.7,7.1c-18.4,1.9-36.9,1-55.2-1.2c-1.2-0.2-2.3-0.3-3.4-0.5
			c-0.3-1.8-0.7-3.6-1-5.3c-0.1-0.3-0.1-0.7-0.2-1c-0.4-2.2-0.8-4.4-1.1-6.6c-1.2-11.2-1.5-22.6-0.5-33.9c1.1-6.1,2.6-12.1,4.7-17.9
			c1.7-3.4,3.6-6.8,5.7-9.9C555.1,924.9,557.4,922.6,559.9,920.4z"/>
	</g>
</g>
</svg>
