<?xml version="1.0" encoding="utf-8"?>
<!-- Generator: Adobe Illustrator 27.8.1, SVG Export Plug-In . SVG Version: 6.00 Build 0)  -->
<svg version="1.1" id="Layer_1" xmlns="http://www.w3.org/2000/svg" xmlns:xlink="http://www.w3.org/1999/xlink" x="0px" y="0px"
	 viewBox="0 0 4000 3000" style="enable-background:new 0 0 4000 3000;" xml:space="preserve">
<style type="text/css">
	.st0{fill:#96E072;}
	.st1{fill:#96E072;stroke:#508E2F;stroke-width:60;stroke-linecap:round;stroke-miterlimit:10;}
	.st2{fill:#96E072;stroke:#508E2F;stroke-width:40;stroke-miterlimit:10;}
</style>
<g>
	<g>
		<path class="st0" d="M3567.98,573.02c-0.62,17.07-2.48,34.07-5.59,50.87c-3.09,16.69-7.38,33.16-12.84,49.24
			c-3.11,9.16-6.6,18.18-10.46,27.05c-0.76,1.75,1.82,3.28,2.59,1.51c6.9-15.83,12.66-32.13,17.18-48.8
			c4.52-16.66,7.81-33.65,9.86-50.8c1.16-9.65,1.91-19.35,2.26-29.07C3571.05,571.09,3568.05,571.09,3567.98,573.02L3567.98,573.02z
			"/>
	</g>
</g>
<g>
	<g>
		<path class="st1" d="M1984.57,2427.11c0,0-901.85-710.88-896.77-1160.43c5.24-463.97,574.53-763.2,899.61-116.71"/>
		<path class="st1" d="M1984.21,2427.27c0,0,907.53-710.88,902.45-1160.43c-5.24-463.97-574.53-763.2-899.61-116.71"/>
	</g>
	<path class="st1" d="M1520.24,1394.39c0,0,151.28-264.5,335.76-30.02"/>
	<path class="st1" d="M2098.73,1374.64c0,0,182.16-244.27,336.92,10.81"/>
	<path class="st1" d="M2287.52,1639.28c0,0-317.45,240.71-599.91-17.72"/>
	<g>
		<path class="st2" d="M1556.47,2493.81c-0.8-12.17-2.59-24.52-5.75-36.33c-3.18-11.89-7.96-23.38-13.12-34.52
			c-9.29-20.03-22.63-38.38-37.42-54.69c-14.99-16.53-32.89-31.01-51.89-42.67c-20.85-12.79-44.31-21.93-67.89-28.23
			c-26.21-7-53.55-10.52-80.6-11.94c-49.03-2.58-98.03,2.81-146.73,7.81c-46.91,4.82-94.3,8.8-141.43,4.72
			c-4.37-0.38-8.73-0.86-13.08-1.38c-21.41-3.26-42.47-8.53-62.62-16.48c-12.17-5.46-23.78-11.89-34.58-19.72
			c-9.65-7.94-18.46-16.83-26.37-26.5c-7.58-10.37-14.13-21.46-19.46-33.15c-3.79-9.85-6.67-20.01-8.48-30.41
			c-0.78-8.09-0.85-16.21-0.14-24.3c1.18-6.48,2.89-12.84,5.15-19.02c2.27-4.73,4.87-9.29,7.76-13.66
			c11.98,8.54,24.27,16.65,36.69,24.47c27.95,17.6,57.01,35,89.05,44.05c33.78,9.54,72.42,8.99,102.79-10.36
			c14.82-9.45,26.48-21.19,36.44-35.58c4.87-7.04,8.15-14.87,11.29-22.8c3.11-7.87,4.15-15.8,5.15-24.21
			c4.01-33.92-17.75-68.02-47.91-82.53c-8.15-3.92-16.69-7.42-25.48-9.67c-8.93-2.29-18.12-3.39-27.25-4.54
			c-11.98-1.51-24.09-2.01-36.15-2.25c-27.78-0.56-55.56,1.45-82.92,6.4c-11.68,2.11-23.24,4.99-34.46,8.91
			c-8.53,2.98-17.04,6.34-25.25,10.26c-5.4-5.51-10.54-11.27-15.4-17.29c-6.71-9.25-12.61-19-17.41-29.37
			c-3.73-9.76-6.53-19.83-8.31-30.13c-0.84-8.63-0.93-17.3-0.16-25.93c1.16-6.42,2.83-12.73,5.06-18.86
			c2.16-4.45,4.62-8.73,7.39-12.82c3.33-3.31,5.72-7.17,7.16-11.58c2.4-4.57,3.5-9.5,3.3-14.78c0-9.41-4.18-20.64-11.23-27.12
			c-7.31-6.71-16.9-11.69-27.12-11.23c-9.57,0.43-20.79,3.49-27.12,11.23c-5.85,7.15-11.61,14.49-16.08,22.61
			c-4.36,7.9-7.9,16.38-10.87,24.89c-5.07,14.54-7.26,30.45-7.71,45.78c-0.45,15.53,1.61,31.43,5.06,46.54
			c3.5,15.38,9.44,30.31,16.42,44.41c7.31,14.76,17.15,27.95,27.44,40.74c2.97,3.7,6.08,7.28,9.28,10.79
			c-5.27,6.72-10.02,13.87-13.92,21.33c-12.95,24.8-19.44,53.1-17.63,81.1c1.87,28.9,10,56.04,23.25,81.74
			c6.74,13.08,15.21,24.78,24.21,36.38c7.08,9.12,14.88,17.64,23.47,25.35c10.76,9.67,22.47,18.65,34.9,26.08
			c14.36,8.57,30.05,15.23,45.71,20.99c29.98,11.02,62,16.14,93.74,18.6c29.45,2.29,59.07,1.47,88.51-0.6
			c60.93-4.29,121.54-14.22,182.79-12.74c13.23,0.32,26.44,1.19,39.58,2.75c21.31,3.22,42.32,8.43,62.39,16.31
			c12.26,5.56,23.86,12.42,34.72,20.37c10.91,8.88,20.89,18.83,29.78,29.74c7.26,9.95,13.58,20.54,18.72,31.73
			c3.43,8.97,6.05,18.21,7.72,27.67c0.7,7.57,0.74,15.17,0.07,22.75c-1.5,8.19-3.83,16.18-6.99,23.91
			c-1.6,5.1-1.83,10.19-0.68,15.29c0.23,5.1,1.75,9.86,4.55,14.26c4.66,7.95,13.78,15.54,22.92,17.62
			c9.82,2.24,20.84,1.75,29.55-3.87c2.59-2,5.17-4,7.76-6c4.75-4.78,8.04-10.43,9.86-16.92c3.55-8.65,6.1-17.66,7.52-26.9
			C1555.88,2518.17,1557.28,2506.12,1556.47,2493.81z M1036.18,2068.37c6.64,1.1,13.19,2.62,19.54,4.84c1.97,1,3.88,2.09,5.73,3.28
			c0.77,0.72,1.51,1.46,2.24,2.22c0.3,0.49,0.59,0.99,0.88,1.5c0.12,0.41,0.23,0.82,0.34,1.23c0.01,0.81,0.01,1.61-0.01,2.42
			c-0.41,1.75-0.9,3.49-1.47,5.2c-1.33,2.58-2.81,5.08-4.44,7.49c-2.35,2.66-4.86,5.16-7.52,7.5c-2.6,1.75-5.28,3.35-8.07,4.79
			c-2.53,0.85-5.09,1.58-7.71,2.13c-5.7,0.42-11.4,0.36-17.1-0.13c-9.58-1.76-18.9-4.6-27.98-8.13
			c-11.05-4.96-21.71-10.72-32.15-16.86c-1.71-0.37-3.02-1.22-3.95-2.36c-5.98-3.58-11.91-7.26-17.8-10.96
			c-0.48-0.3-0.96-0.61-1.44-0.91c4.96-1.03,9.95-1.92,14.96-2.68c14.31-1.65,28.71-2.37,43.11-2.41
			C1007.59,2066.49,1021.98,2066.83,1036.18,2068.37z"/>
	</g>
	<g>
		<path class="st2" d="M1692.66,2473.49c-6.76,14.25-12.58,29.03-16.13,44.42c-3.55,15.38-5.6,31.37-6.01,47.16
			c-0.41,15.94,1.39,31.82,3.96,47.54c2.07,12.65,5.33,25.11,9.69,37.16c5.39,14.87,11.83,29.58,19.85,43.25
			c7.98,13.61,17.58,26.42,27.99,38.25c10.72,12.17,22.99,22.37,35.83,32.22c10.44,8,21.53,15.08,33.22,21.11
			c25.99,13.43,54.11,23.24,83.06,27.64c16.12,2.45,32.26,4.25,48.57,4.18c16.4-0.08,32.75-1.95,48.92-4.65
			c29.13-4.85,57.32-15.3,83.6-28.61c26.33-13.34,50.7-31.01,72.51-50.83c21.91-19.91,41.08-43.16,57.25-67.92
			c13.5-20.66,24.61-42.79,38.26-63.36c3.28-4.95,6.72-9.79,10.34-14.49c-2,2.59-4,5.17-6,7.76c7.17-9.22,15.15-17.82,24.4-24.99
			c-2.59,2-5.17,4-7.76,6c6.27-4.79,13.04-8.83,20.31-11.91c-3.05,1.29-6.11,2.58-9.16,3.87c3.41-1.41,6.88-2.6,10.43-3.58
			c9.3-2.57,18.04-9.29,22.92-17.62c2.8-4.4,4.32-9.15,4.55-14.26c1.14-5.1,0.91-10.19-0.68-15.29c-3-9.28-8.75-18.23-17.62-22.92
			c-9.13-4.82-19.4-6.67-29.55-3.87c-28.74,7.94-53.37,26.51-71.61,49.76c-9.45,12.05-18.14,24.42-26.06,37.53
			c-6.4,10.6-12.46,21.39-18.76,32.05c-7.56,12.8-15.65,25.21-24.75,36.99c2-2.59,4-5.17,6-7.76
			c-16.04,20.66-34.59,39.29-55.26,55.32c2.59-2,5.17-4,7.76-6c-19.52,15.05-40.82,27.7-63.53,37.32c3.05-1.29,6.11-2.58,9.16-3.87
			c-20.65,8.67-42.32,14.81-64.52,17.84c3.4-0.46,6.8-0.91,10.19-1.37c-21.64,2.88-43.58,2.85-65.23,0c3.4,0.46,6.8,0.91,10.19,1.37
			c-21.31-2.87-42.18-8.45-62.02-16.75c3.05,1.29,6.11,2.58,9.16,3.87c-17.68-7.47-34.39-17.07-49.61-28.78c2.59,2,5.17,4,7.76,6
			c-13.32-10.33-25.36-22.18-35.72-35.48c2,2.59,4,5.17,6,7.76c-10.79-13.98-19.67-29.33-26.53-45.6c1.29,3.05,2.58,6.11,3.87,9.16
			c-7.01-16.78-11.83-34.39-14.32-52.41c0.46,3.4,0.91,6.8,1.37,10.19c-2.32-17.38-2.44-35-0.12-52.39
			c-0.46,3.4-0.91,6.8-1.37,10.19c2.1-15.24,6.07-30.15,11.99-44.35c-1.29,3.05-2.58,6.11-3.87,9.16c1.04-2.46,2.13-4.89,3.27-7.29
			c2.8-4.4,4.32-9.15,4.55-14.26c1.14-5.1,0.91-10.19-0.68-15.29c-2.45-8.9-9.33-18.54-17.62-22.92c-8.9-4.7-19.68-7.06-29.55-3.87
			C1706.54,2458.79,1696.88,2464.58,1692.66,2473.49L1692.66,2473.49z"/>
	</g>
	<g>
		<path class="st2" d="M2455.43,2479.98c3.14-2.22,6.47-4.08,9.99-5.61c-3.05,1.29-6.11,2.58-9.16,3.87
			c4.86-2.04,9.94-3.37,15.15-4.1c-3.4,0.46-6.8,0.91-10.19,1.37c6.62-0.86,13.28-0.74,19.89,0.11c-3.4-0.46-6.8-0.91-10.19-1.37
			c8.76,1.2,17.27,3.65,25.43,7.04c-3.05-1.29-6.11-2.58-9.16-3.87c13.08,5.54,24.82,13.64,36.02,22.28c-2.59-2-5.17-4-7.76-6
			c17.34,13.43,33.73,28.17,52,40.36c7.5,5.01,15.39,9.43,23.59,13.2c10.7,4.93,21.69,9.47,33,12.82
			c8.59,2.54,17.37,4.45,26.24,5.71c11.86,1.68,23.63,3.16,35.61,3.18c12.21,0.02,24.21-1.47,36.28-3.22
			c8.63-1.25,17.18-3.14,25.52-5.68c10.97-3.33,21.67-7.8,32.03-12.68c7.19-3.39,14.14-7.27,20.81-11.59
			c15.99-10.38,31.14-22.73,43.92-36.91c7.43-8.24,14.28-17.09,20.58-26.22c4.57-6.63,8.7-13.56,12.34-20.74
			c9.39-18.56,17-38.56,19.89-59.24c1.82-13.07,3.28-25.8,1.65-38.96c-1-8.05-1.93-16.14-4.21-23.95
			c-1.96-6.74-4.87-13.3-7.75-19.65c-4.54-10.01-11.37-19.13-18.65-27.28c-2.68-2.99-5.6-5.74-8.74-8.24
			c-5.41-4.3-10.85-8.76-16.98-12.04c-6.16-3.28-12.71-6.04-19.37-8.12c-5.1-1.6-10.19-1.83-15.29-0.68
			c-5.1,0.23-9.86,1.75-14.26,4.55c-4.47,2.41-8.06,5.7-10.76,9.88c-3.39,3.7-5.68,8.05-6.86,13.04c-0.46,3.4-0.91,6.8-1.37,10.19
			c0.02,6.92,1.77,13.37,5.24,19.36c2,2.59,4,5.17,6,7.76c4.78,4.75,10.43,8.04,16.92,9.86c1.77,0.55,3.51,1.18,5.22,1.89
			c-3.05-1.29-6.11-2.58-9.16-3.87c4.91,2.08,9.49,4.79,13.72,8.03c-2.59-2-5.17-4-7.76-6c4.72,3.68,8.91,7.95,12.59,12.67
			c-2-2.59-4-5.17-6-7.76c4.05,5.29,7.4,11.05,10.03,17.17c-1.29-3.05-2.58-6.11-3.87-9.16c2.98,7.09,4.89,14.53,5.93,22.15
			c-0.46-3.4-0.91-6.8-1.37-10.19c1.24,9.69,1.04,19.46-0.23,29.14c0.46-3.4,0.91-6.8,1.37-10.19c-1.86,13.52-5.73,26.7-11.01,39.27
			c1.29-3.05,2.58-6.11,3.87-9.16c-5.97,14.07-13.77,27.3-23.09,39.41c2-2.59,4-5.17,6-7.76c-9.5,12.25-20.5,23.27-32.74,32.79
			c2.59-2,5.17-4,7.76-6c-12.1,9.34-25.31,17.15-39.38,23.13c3.05-1.29,6.11-2.58,9.16-3.87c-14.12,5.93-28.96,9.91-44.14,11.96
			c3.4-0.46,6.8-0.91,10.19-1.37c-15.97,2.09-32.14,2.05-48.1-0.06c3.4,0.46,6.8,0.91,10.19,1.37c-15.95-2.17-31.56-6.38-46.4-12.62
			c3.05,1.29,6.11,2.58,9.16,3.87c-15.52-6.6-29.61-15.51-42.94-25.8c2.59,2,5.17,4,7.76,6c-19.8-15.35-38.4-32.68-60.08-45.41
			c-4.4-2.58-8.95-4.85-13.64-6.85c-7.35-3.14-14.61-6.31-22.33-8.41c-7.96-2.17-16.23-3.21-24.4-4.1
			c-4.7-0.51-9.44-0.64-14.16-0.28c-5.93,0.46-11.89,1.24-17.72,2.39c-2.47,0.49-4.91,1.12-7.3,1.92
			c-5.51,1.84-10.95,4.16-16.15,6.75c-2.49,1.24-4.86,2.68-7.13,4.29c-4.47,2.41-8.06,5.7-10.76,9.88
			c-3.39,3.7-5.68,8.05-6.86,13.04c-1.6,5.1-1.83,10.19-0.68,15.29c0.23,5.1,1.75,9.86,4.55,14.26c5.28,8.19,13.14,15.4,22.92,17.62
			c3.4,0.46,6.8,0.91,10.19,1.37C2443,2485.19,2449.45,2483.45,2455.43,2479.98L2455.43,2479.98z"/>
	</g>
	<g>
		<path class="st2" d="M3253.08,2042.33c-2.83-12.96-7.95-25.54-13.79-37.4c-5.87-11.92-13.81-22.53-22.21-32.79
			c-6.36-7.77-13.51-14.87-21.22-21.31c-18.05-15.08-37.56-27.69-59.06-37.24c-14.46-6.43-29.15-12.18-44.26-16.55
			c5.8-33.96,14.11-67.48,24-100.48c12.28-40.97,26.95-81.19,42.52-121.02c8.78-22.47,17.86-44.83,26.99-67.16
			c1.6-5.1,1.83-10.19,0.68-15.29c-0.23-5.1-1.75-9.86-4.55-14.26c-4.66-7.95-13.78-15.54-22.92-17.62
			c-9.82-2.24-20.84-1.75-29.55,3.87c-2.59,2-5.17,4-7.76,6c-4.75,4.78-8.04,10.43-9.86,16.92
			c-18.23,44.63-36.28,89.36-52.16,134.88c-15.79,45.26-29.47,91.38-38.57,138.48c-1.66,8.61-3.19,17.26-4.58,25.93
			c-11.32,0.49-22.66,1.97-33.72,4.16c-13.47,2.66-26.05,7.54-38.56,13.12c-11.27,5.02-20.81,12.01-30.5,19.58
			c-7.08,5.52-13.53,11.8-19.2,18.76c-7.46,9.16-14.58,18.6-19.87,29.2c-5.23,10.48-9.91,21.66-12.45,33.14
			c-2.52,11.36-4.14,23.45-3.41,35.13c0.73,11.5,2.46,23.27,6.61,34.08c1.19,4.99,3.47,9.34,6.86,13.04
			c2.7,4.18,6.29,7.47,10.76,9.88c4.4,2.8,9.15,4.32,14.26,4.55c5.1,1.14,10.19,0.91,15.29-0.69c9.28-3,18.23-8.75,22.92-17.62
			c4.55-8.61,7.51-20.07,3.87-29.55c-1.64-4.26-2.9-8.62-3.81-13.08c-0.28-4.17-0.26-8.35,0.05-12.52
			c1.04-5.39,2.53-10.67,4.41-15.82c2.84-5.94,6.19-11.61,9.99-16.99c4.34-5.13,9.08-9.89,14.21-14.23
			c5.29-3.7,10.87-6.92,16.7-9.69c8.53-3.2,17.35-5.53,26.33-7.07c0.46-0.05,0.91-0.1,1.37-0.14c-0.6,15.6-0.53,31.21,0.3,46.8
			c0.64,11.89,1.72,23.75,3.27,35.56c1.62,12.36,3.24,24.67,6.13,36.8c2.03,8.53,4.57,16.94,7.72,25.12
			c4.22,10.95,8.84,21.95,14.9,32.03c2.19,3.63,4.56,7.14,7.13,10.52c4.33,5.71,8.62,11.49,13.66,16.61
			c5,5.08,10.71,9.34,16.39,13.63c3.25,2.45,6.66,4.68,10.27,6.57c6.35,3.34,13.09,6.18,19.91,8.41c7.22,2.36,14.73,3.21,22.25,4.11
			c11.72,1.4,24.1-0.17,35.46-3.06c7.29-1.86,14.21-4.97,21.08-7.98c4.13-1.81,8.11-3.97,11.89-6.43
			c9.9-6.44,19.59-14.13,27.17-23.27c4.79-5.77,9.55-11.76,13.4-18.23c3.89-6.53,6.78-13.69,9.53-20.73
			c4.8-12.28,6.8-25.88,7.54-38.96C3257.64,2068.8,3255.89,2055.2,3253.08,2042.33z M3162.31,2115.76
			c-3.27,2.23-6.68,4.25-10.22,6.01c-3.01,1.04-6.08,1.89-9.19,2.56c-2.49,0.14-4.98,0.15-7.46,0.02c-2.46-0.54-4.88-1.23-7.27-2.03
			c-2.55-1.31-5.02-2.77-7.4-4.37c-3.18-2.8-6.14-5.83-8.9-9.05c-4.37-6.27-8.1-12.96-11.32-19.89
			c-5.86-15.11-9.59-30.91-11.98-46.93c-2.65-22.23-3.68-44.63-3.27-67c3.75,1.29,7.48,2.66,11.18,4.12c1.05,0.21,1.94,0.6,2.7,1.13
			c14.52,6.55,28.45,14.39,41.31,23.81c7.86,6.48,15.15,13.61,21.68,21.44c4.57,6.39,8.56,13.15,11.92,20.25
			c2.55,6.83,4.52,13.85,5.83,21.02c0.5,5.87,0.55,11.76,0.08,17.64c-0.87,4.54-2.07,9-3.6,13.36c-1.64,3.26-3.5,6.39-5.55,9.41
			C3168.19,2110.28,3165.34,2113.12,3162.31,2115.76z"/>
	</g>
	<g>
		<path class="st2" d="M3207.58,1438.01c21.49-6.03,42.99-12.1,64.01-19.64c23.48-8.42,46.85-18.24,68.18-31.27
			c19.83-12.12,38.67-26.97,53.77-44.72c8.29-9.74,16.19-20.09,22.65-31.16c6.47-11.08,11.71-23.09,15.76-35.25
			c4.07-12.22,6.08-25.16,7.1-37.96c1.01-12.66-0.49-25.38-2.73-37.84c-2.19-12.17-6.76-23.42-11.72-34.71
			c-3.7-8.41-8.36-16.39-13.71-23.85c-7.14-9.95-14.85-19.6-23.55-28.25c-8.85-8.79-18.65-16.47-28.61-23.94
			c-15.46-11.6-32.42-21.1-50.16-28.75c-23.95-10.32-48.37-18.77-73.29-26.4c-21.96-6.73-44.03-13.17-65.56-21.22
			c-5.33-1.99-10.62-4.09-15.86-6.29c3.05,1.29,6.11,2.58,9.16,3.87c-19.21-8.14-37.45-18.07-54.01-30.83c2.59,2,5.17,4,7.76,6
			c-12.26-9.52-23.48-20.36-33.02-32.62c2,2.59,4,5.17,6,7.76c-7.42-9.62-13.74-20.03-18.47-31.24c1.29,3.05,2.58,6.11,3.87,9.16
			c-3.76-9.07-6.42-18.53-7.75-28.27c0.46,3.4,0.91,6.8,1.37,10.19c-0.75-5.79-1.03-11.62-0.83-17.46c0.2-5.28-0.9-10.21-3.3-14.78
			c-1.55-4.75-4.19-8.87-7.93-12.34c-3.47-3.74-7.59-6.38-12.34-7.93c-4.57-2.4-9.5-3.5-14.78-3.3c-9.92,0.44-20.2,3.7-27.12,11.23
			c-7.02,7.65-10.87,16.61-11.23,27.12c-0.91,26.56,6.59,52.88,19.09,76.13c6.28,11.69,14.42,22.41,22.91,32.56
			c6.74,8.06,14.23,15.49,22.25,22.28c18.75,15.89,39.01,29.22,61.42,39.32c25.8,11.63,52.41,20.69,79.44,28.95
			c26.99,8.25,54.14,16.17,80.2,27.13c-3.05-1.29-6.11-2.58-9.16-3.87c19.56,8.28,38.17,18.65,55.02,31.62c-2.59-2-5.17-4-7.76-6
			c12.26,9.5,23.5,20.28,33,32.56c-2-2.59-4-5.17-6-7.76c6.99,9.12,12.94,18.97,17.44,29.55c-1.29-3.05-2.58-6.11-3.87-9.16
			c3.88,9.27,6.58,18.96,7.93,28.93c-0.46-3.4-0.91-6.8-1.37-10.19c1.23,9.53,1.18,19.14-0.07,28.67c0.46-3.4,0.91-6.8,1.37-10.19
			c-1.5,10.81-4.5,21.31-8.72,31.36c1.29-3.05,2.58-6.11,3.87-9.16c-5.15,12.11-11.97,23.4-20,33.81c2-2.59,4-5.17,6-7.76
			c-9.28,11.92-20.07,22.58-32,31.83c2.59-2,5.17-4,7.76-6c-17.36,13.34-36.83,23.69-56.96,32.2c3.05-1.29,6.11-2.58,9.16-3.87
			c-27.53,11.57-56.3,19.73-85,27.79c-9.32,2.62-18.02,9.26-22.92,17.62c-2.8,4.4-4.32,9.15-4.55,14.26
			c-1.14,5.1-0.91,10.19,0.68,15.29c3,9.28,8.75,18.23,17.62,22.92C3187.13,1438.95,3197.45,1440.85,3207.58,1438.01
			L3207.58,1438.01z"/>
	</g>
	<g>
		<path class="st2" d="M3144.83,557.8c-2.23-14.29-7.97-28.27-14.7-40.97c-6.53-12.32-15.32-23.8-24.89-33.89
			c-19.73-20.79-45.17-35.8-72.25-44.79c-27.09-8.99-56.48-10.09-84.33-4.25c-2.4,0.5-4.78,1.1-7.15,1.75
			c-5.71-6.94-11.7-13.66-18.09-20.09c-37.79-38.09-86.58-65.01-138.14-79.28c-52.42-14.51-107.67-15.92-160.97-5.67
			c-27.02,5.2-52.7,14.37-77.89,25.3c-22.46,9.74-43.87,21.85-63.94,35.85c-22.69,15.82-44.22,33.51-63.71,53.15
			c-19.39,19.54-36.87,41.07-52.67,63.59c-3.51,5-6.9,10.07-10.2,15.2c-5.24,8.17-6.4,20.35-3.87,29.55
			c2.45,8.9,9.33,18.54,17.62,22.92c8.9,4.7,19.68,7.06,29.55,3.87c9.74-3.15,17.34-8.93,22.92-17.62
			c6.12-9.54,12.63-18.82,19.46-27.86c20.04-25.19,42.81-48.14,68.03-68.15c23.04-17.3,47.89-32.08,74.26-43.69
			c23.35-9.42,47.68-16.32,72.58-20.15c23.76-2.75,47.77-2.75,71.54-0.07c23.47,3.51,46.48,9.65,68.52,18.48
			c18.29,8.15,35.68,18.17,51.78,30.08c9.35,7.56,18.09,15.75,26.27,24.49c-40.03,40.27-58.14,100.45-45.66,155.93
			c1.2,5.35,2.82,10.58,4.79,15.7c1.19,4.99,3.47,9.34,6.86,13.04c2.7,4.17,6.29,7.47,10.76,9.88c8.22,4.81,20.33,6.85,29.55,3.87
			c9.28-3,18.23-8.75,22.92-17.62c4.55-8.6,7.52-20.07,3.87-29.55c-2.54-6.6-4.43-13.4-5.7-20.33c-0.65-7.42-0.61-14.87,0.07-22.29
			c1.49-8.38,3.76-16.58,6.77-24.55c3.38-7.22,7.37-14.13,11.93-20.67c1.84,2.86,3.68,5.71,5.52,8.56c1.19,0.95,1.97,2.25,2.39,3.7
			c2.02,3.11,4.04,6.22,6.09,9.32c9.53,14.44,19.65,28.38,30.35,41.99c8.41,10.69,17.3,21.15,27.98,29.65
			c14.79,11.77,29.92,21.29,48.17,26.98c8.32,2.6,17.33,3.91,26,4.19c5.76,0.19,11.49-0.85,17.17-1.67c2.9-0.42,5.72-1.01,8.48-2.01
			c11.54-4.19,20.38-9.16,29.47-17.52c6.43-5.91,11.99-13.52,15.56-21.54c2.4-5.4,4.94-10.94,6.31-16.74
			c1.4-5.95,2.1-12.14,2.65-18.22C3147.67,576.33,3146.26,566.98,3144.83,557.8z M3020.72,550.11
			c-10.44-13.86-20.03-28.36-29.48-42.94c0.86,0.06,1.71,0.14,2.57,0.22c8.24,1.47,16.31,3.7,24.14,6.65
			c7.72,3.6,15.08,7.89,22.01,12.83c5.79,4.85,11.16,10.16,16.03,15.94c3.83,5.41,7.2,11.12,10.06,17.1
			c1.74,4.75,3.14,9.61,4.13,14.57c0.19,2.84,0.23,5.68,0.09,8.52c-0.26,1.14-0.56,2.27-0.89,3.39c-0.04,0.07-0.08,0.15-0.12,0.22
			c-0.78,0.01-1.55,0-2.33-0.03c-2.66-0.6-5.28-1.35-7.86-2.25c-5-2.45-9.77-5.32-14.33-8.51
			C3035.79,568.21,3028.02,559.32,3020.72,550.11z"/>
	</g>
	<g>
		<path class="st2" d="M2234.03,438.98c-4.66-7.95-13.78-15.54-22.92-17.62c-21.07-4.8-40.5,6.36-47.17,26.78
			c-0.49,1.51-1.01,3.01-1.56,4.49c-2.87,6.05-6.25,11.82-10.1,17.3c-4.92,5.84-10.36,11.2-16.22,16.09
			c-7.83,5.58-16.17,10.35-24.9,14.38c-11.45,4.42-23.32,7.62-35.43,9.62c-12.86,1.36-25.81,1.41-38.67,0.09
			c-11.63-1.94-22.94-5.05-33.93-9.29c-13.31-6-25.95-13.31-37.88-21.69c19.8-14.76,36.83-32.45,50.06-53.55
			c14.86-23.7,23.12-50.84,24.89-78.67c0.88-13.82-0.94-28.13-4.1-41.56c-3.16-13.4-8.62-26.55-15.13-38.65
			c-13.16-24.48-33.12-45.23-56.3-60.38c-11.32-7.4-24.15-13.11-37.05-17.07c-4.98-1.53-10.07-2.66-15.23-3.41
			c-8.42-1.22-16.81-2.46-25.34-2.25c-31.61,0.77-63.5,12.9-86,35.48c-12.42,12.47-21.71,28.2-26.43,45.16
			c-5.24,18.84-4.36,37.79-1.01,56.82c2.92,16.58,9.44,32.15,16.11,47.51c4.98,11.46,10.63,22.65,16.5,33.67
			c6.71,12.61,13.9,24.99,21.63,37.01c-12.47-2.29-24.67-5.81-36.5-10.43c-14.42-6.51-28.07-14.54-40.82-23.9
			c-14.44-11.69-27.2-25-38.74-39.55c-13.77-18.21-26.77-36.99-41.29-54.64c-6.67-8.11-13.74-15.93-21.55-22.96
			c-9.62-8.66-20.19-16.98-31.76-22.91c-27.85-14.26-59.97-18.62-90.21-9.27c-14.23,4.4-28.28,11.07-40.27,19.99
			c-7.3,5.44-14.53,11-21,17.42c-6.58,6.53-12.19,13.83-17.8,21.2c-20.27,26.63-32.24,58.51-44.29,89.42
			c-3.4,8.71-0.67,21.81,3.87,29.55c4.66,7.95,13.78,15.54,22.92,17.62c9.82,2.24,20.84,1.75,29.55-3.87c2.59-2,5.17-4,7.76-6
			c4.75-4.79,8.04-10.43,9.86-16.92c2.83-7.25,5.69-14.48,8.66-21.67c7.01-16.03,15.02-31.63,25.29-45.83
			c4.92-5.87,10.27-11.32,16.12-16.27c4.99-3.52,10.23-6.65,15.72-9.31c4.08-1.46,8.24-2.63,12.49-3.5c3.45-0.22,6.89-0.22,10.34,0
			c3.7,0.76,7.33,1.77,10.9,3.01c4.71,2.33,9.21,5.04,13.51,8.06c11.27,9.43,21.03,20.51,30.14,32.03
			c14.05,18.51,27.22,37.67,42.02,55.6c17.36,21.02,38.7,39.05,61.65,53.69c22.9,14.61,48.92,25.92,75.45,31.89
			c29.24,6.58,58.66,7.37,88.1,1.92c22.28,21.75,47.42,40.4,76.03,53.28c12.44,5.6,25.08,10.85,38.32,14.21
			c12.57,3.18,25.58,4.99,38.48,6.06c22.73,1.89,46.2-0.5,68.33-5.81c45.84-11.01,88.57-38.41,113.51-78.95
			c6.47-10.52,11.44-22.19,15.26-33.9C2240.9,459.34,2238.82,447.18,2234.03,438.98z M1896.49,260.6
			c5.46,1.05,10.81,2.55,16.04,4.45c6.08,2.92,11.88,6.36,17.38,10.26c5.82,4.91,11.19,10.31,16.09,16.15
			c4.5,6.33,8.43,13.01,11.75,20.03c2.41,6.48,4.27,13.13,5.53,19.92c0.51,6.24,0.47,12.49-0.07,18.72
			c-1.37,7.51-3.42,14.85-6.1,21.99c-3.72,7.9-8.18,15.4-13.27,22.49c-6.38,7.68-13.48,14.72-21.17,21.08
			c-4.05,2.92-8.22,5.65-12.5,8.2c-0.84-1.13-1.67-2.28-2.5-3.43c-1.98-1.05-3.17-2.91-3.6-5.02
			c-18.44-26.06-34.38-54.29-47.16-83.43c-3.95-9.92-7.22-20.1-9.17-30.6c-0.33-4.16-0.4-8.32-0.15-12.48c0.53-2.51,1.2-4.99,2-7.43
			c0.99-1.89,2.07-3.73,3.23-5.52c1.86-2.06,3.84-4.01,5.91-5.85c3.24-2.18,6.6-4.14,10.1-5.87c4.4-1.56,8.88-2.79,13.46-3.69
			C1887.02,260.23,1891.75,260.24,1896.49,260.6z"/>
	</g>
	<g>
		<path class="st2" d="M765.03,1665.93c7.33-4.89,14.27-10.26,21.22-15.68c4.52-3.52,8.9-7.22,13.1-11.12
			c10.63-9.86,19.86-21.08,28.25-32.88c8.46-11.9,14.68-25.12,19.72-38.8c1.95-5.29,3.48-10.72,4.6-16.24
			c1.2-5.94,1.89-11.99,2.65-17.99c0.36-2.79,0.6-5.6,0.74-8.42c0.27-5.6,0.09-11.22-0.56-16.79c-1.03-8.73-2.08-17.53-4.61-25.97
			c-0.79-2.65-1.72-5.27-2.76-7.83c-2.22-5.43-4.4-10.98-7.13-16.19c-4.01-7.65-9.41-14.48-14.85-21.14
			c-3.5-4.29-7.42-8.21-11.64-11.79c-6.49-5.49-13.34-10.76-20.56-15.29c-12.05-7.55-25.38-13.12-38.61-18.19
			c-22.16-8.49-45.47-13.52-67.71-21.8c-2.84-1.06-5.65-2.17-8.44-3.34c3.05,1.29,6.11,2.58,9.16,3.87
			c-10.81-4.56-21.28-10.1-30.6-17.27c2.59,2,5.17,4,7.76,6c-5.89-4.59-11.16-9.89-15.76-15.78c2,2.59,4,5.17,6,7.76
			c-4.44-5.76-8.18-12-11.02-18.7c1.29,3.05,2.58,6.11,3.87,9.16c-2.32-5.57-3.98-11.38-4.79-17.36c0.46,3.4,0.91,6.8,1.37,10.19
			c-0.62-4.87-0.65-9.77-0.01-14.64c-0.46,3.4-0.91,6.8-1.37,10.19c0.6-4.25,1.71-8.38,3.33-12.35c1.6-5.1,1.83-10.19,0.68-15.29
			c-0.23-5.1-1.75-9.86-4.55-14.26c-2.41-4.47-5.7-8.06-9.88-10.76c-3.7-3.39-8.05-5.68-13.04-6.86c-3.4-0.46-6.8-0.91-10.19-1.37
			c-6.92,0.02-13.37,1.77-19.36,5.24c-2.59,2-5.17,4-7.76,6c-4.75,4.78-8.04,10.43-9.86,16.92c-1.23,3.02-2.19,6.14-2.83,9.35
			c-1.25,6.29-2.21,12.8-2.34,19.24c-0.13,6.38,1,12.76,1.89,19.04c0.44,3.13,1.09,6.23,1.98,9.27c1.79,6.17,4.51,12.11,7.06,17.97
			c1.34,3.07,2.88,6.05,4.59,8.92c1.68,2.83,3.53,5.56,5.52,8.17c3.86,5.07,7.67,10.25,12.04,14.9c2.31,2.45,4.76,4.78,7.33,6.95
			c5.04,4.26,10.31,8.32,15.76,12.03c6.22,4.23,12.85,7.85,19.67,11.01c16.7,7.72,33.9,13.66,51.5,18.88
			c15.62,4.63,31.3,9.07,46.35,15.38c-3.05-1.29-6.11-2.58-9.16-3.87c11.36,4.8,22.33,10.62,32.11,18.17c-2.59-2-5.17-4-7.76-6
			c6.16,4.81,11.76,10.27,16.55,16.46c-2-2.59-4-5.17-6-7.76c4.16,5.46,7.59,11.39,10.28,17.71c-1.29-3.05-2.58-6.11-3.87-9.16
			c3.07,7.36,5.08,15.09,6.15,22.99c-0.46-3.4-0.91-6.8-1.37-10.19c1.18,9.11,1.09,18.33-0.12,27.43c0.46-3.4,0.91-6.8,1.37-10.19
			c-1.34,9.69-3.94,19.15-7.74,28.17c1.29-3.05,2.58-6.11,3.87-9.16c-4.47,10.46-10.35,20.22-17.26,29.23c2-2.59,4-5.17,6-7.76
			c-9.33,12.07-20.39,22.68-32.43,32.03c2.59-2,5.17-4,7.76-6c-4.23,3.26-8.56,6.37-13,9.34c-4.47,2.41-8.06,5.7-10.76,9.88
			c-3.39,3.7-5.68,8.05-6.86,13.04c-1.6,5.1-1.83,10.19-0.68,15.29c0.23,5.1,1.75,9.86,4.55,14.26c2,2.59,4,5.17,6,7.76
			c4.78,4.75,10.43,8.04,16.92,9.86c3.4,0.46,6.8,0.91,10.19,1.37C752.59,1671.15,759.04,1669.4,765.03,1665.93L765.03,1665.93z"/>
	</g>
	<g>
		<path class="st2" d="M1309.02,416.94c-2.72-9.88-10.36-20.6-19.58-25.47c-9.89-5.22-21.87-7.84-32.83-4.3
			c-10.55,3.41-19.79,9.8-25.47,19.58c-2.33,4.03-4.86,7.92-7.55,11.71c-6.33,7.55-13.35,14.44-20.94,20.72
			c-11.27,8.14-23.39,15-36.06,20.73c-18.99,7.44-38.77,12.41-58.93,15.49c-60.82,7.1-122.33,0.18-183.36,1.29
			c-31.85,0.58-63.68,2.54-95.36,5.88c-33.76,3.56-67.77,7.85-100.99,14.97c-13.83,2.96-27.55,6.67-40.74,11.81
			c-15.77,6.15-31.37,13.01-45.15,22.95c-12.77,9.2-24.85,19.17-34.83,31.38c-10.09,12.34-19.36,25.13-26.03,39.65
			c-6.58,14.33-12.32,28.99-14.98,44.58c-2.8,16.36-4.41,32.77-2.59,49.31c1.81,16.43,4.5,32.49,10.57,47.92
			c6.07,15.45,12.93,30.24,22.94,43.54c9.67,12.86,19.77,24.73,32.44,34.71c12.47,9.83,25.08,18.83,39.29,25.96
			c20.18,10.13,41.41,17.86,63.19,23.63c1.71,8.12,3.28,16.28,4.56,24.48c1.63,14.62,1.97,29.28,0.5,43.92
			c-2.18,12.79-5.65,25.3-10.33,37.4c-5.23,11.37-11.53,22.2-18.86,32.34c-7.55,9.15-15.92,17.54-25.07,25.09
			c-10.28,7.46-21.26,13.88-32.79,19.19c-12.05,4.66-24.5,8.13-37.23,10.29c-3.18,0.33-6.36,0.61-9.55,0.78
			c-11.29,0.61-21.99,4.34-30.13,12.48c-7.39,7.39-12.96,19.52-12.48,30.13c0.49,11.02,4.11,22.45,12.48,30.13
			c8.08,7.41,18.82,13.09,30.13,12.48c16.47-0.88,33.14-3.22,49.11-7.45c15.86-4.2,31.31-10.49,45.99-17.76
			c15.01-7.44,28.3-17.02,41.45-27.34c10.42-8.17,19.94-17.46,28.34-27.69c10.62-12.94,20.46-26.44,28.17-41.33
			c7.66-14.81,14.15-30.54,18.63-46.62c4.57-16.37,7.1-33.54,8.1-50.48c0.9-15.16-0.47-30.14-2.43-45.12
			c7.59,0.72,15.2,1.25,22.85,1.44c17.87,0.45,35.38-1.21,53.05-3.82c13.86-2.05,27.52-5.57,40.49-10.9
			c8.94-3.67,17.91-7.3,26.26-12.18c7.89-4.61,15.05-10.23,22.23-15.87c12.19-9.57,21.82-21.07,31.02-33.52
			c8.96-12.12,15.44-26.1,20.31-40.31c1.87-5.44,3.23-11.03,4.11-16.72c1.38-8.9,2.75-17.95,2.41-27
			c-0.72-19.2-5.49-36.14-13.73-53.35c-2.63-5.49-5.85-10.65-9.5-15.51c-5.66-7.55-11.36-15-18.29-21.42
			c-11.29-10.46-24.29-19.95-38.44-26.19c-9.44-4.16-18.9-8.17-28.9-10.77c-10.27-2.67-20.9-4.02-31.42-5.17
			c-17.82-1.94-35.25-0.19-52.93,2.25c-13.31,1.84-26.47,4.88-38.97,9.88c-9.19,3.67-18.47,7.47-26.99,12.56
			c-8.27,4.94-16.05,10.93-23.26,17.28c-7.26,6.39-13.02,13.97-18.83,21.69c-3.54,4.7-6.66,9.68-9.3,14.94
			c-14.29,28.36-20.03,60.08-18.94,91.73c0.12,3.36,0.32,6.72,0.57,10.06c-9.64-4.69-18.9-10.09-27.62-16.34
			c-6.7-5.59-12.92-11.71-18.54-18.37c-4.83-6.84-9.02-14.08-12.59-21.66c-3.11-8.33-5.46-16.91-7.03-25.66
			c-0.77-8.44-0.81-16.91-0.06-25.35c1.5-8.31,3.76-16.44,6.72-24.34c3.7-7.84,8.07-15.32,13.09-22.39
			c5.31-6.33,11.13-12.19,17.44-17.51c7.68-5.42,15.86-10.02,24.39-13.96c28.69-11.1,59.61-16.03,90.04-20.21
			c35.39-4.66,71-7.64,106.67-8.85c35.92-1.21,71.76-0.02,107.67,0.9c39.59,1.02,78.72,0.14,117.93-6
			c31.48-4.93,62.26-15.24,90.38-30.26c33.31-17.79,62.8-44.42,81.81-77.22C1310.28,440.18,1311.97,427.65,1309.02,416.94z
			 M821.62,698.52c4.86-3.32,9.97-6.22,15.28-8.75c9.77-3.61,19.89-6.14,30.17-7.84c11.3-1.15,22.66-1.31,33.96-0.26
			c7.68,1.36,15.21,3.34,22.54,6.01c5.18,2.51,10.15,5.39,14.88,8.65c3.89,3.35,7.53,6.96,10.9,10.84
			c2.19,3.24,4.18,6.61,5.95,10.11c1.09,3.19,1.99,6.44,2.69,9.74c0.22,3.59,0.2,7.18-0.03,10.77c-0.95,4.68-2.24,9.26-3.85,13.76
			c-2.76,5.67-5.98,11.09-9.6,16.26c-4.65,5.47-9.73,10.54-15.2,15.18c-6.01,4.22-12.33,7.89-18.97,11.03
			c-10.85,4.08-22.07,6.96-33.51,8.86c-23.03,2.42-46.25,1.29-69.21-1.52c-1.44-0.21-2.88-0.43-4.31-0.64
			c-0.44-2.23-0.87-4.46-1.28-6.7c-0.11-0.41-0.18-0.82-0.23-1.24c-0.5-2.75-0.97-5.51-1.4-8.27c-1.57-14.1-1.94-28.33-0.57-42.46
			c1.33-7.62,3.25-15.11,5.88-22.38c2.11-4.31,4.5-8.47,7.19-12.44C815.61,704.12,818.52,701.22,821.62,698.52z"/>
	</g>
</g>
</svg>
