<?xml version="1.0" encoding="utf-8"?>
<!-- Generator: Adobe Illustrator 27.8.1, SVG Export Plug-In . SVG Version: 6.00 Build 0)  -->
<svg version="1.1" id="Layer_1" xmlns="http://www.w3.org/2000/svg" xmlns:xlink="http://www.w3.org/1999/xlink" x="0px" y="0px"
	 viewBox="0 0 3000 3000" style="enable-background:new 0 0 3000 3000;" xml:space="preserve">
<style type="text/css">
	.st0{fill:#96E072;stroke:#508E2F;stroke-width:60;stroke-linecap:round;stroke-miterlimit:10;}
	.st1{fill:#96E072;}
</style>
<g>
	<g>
		<path class="st0" d="M1487.68,2336.49c0,0-719.5-567.15-715.45-925.79c4.18-370.16,458.37-608.89,717.72-93.11"/>
		<path class="st0" d="M1487.39,2336.61c0,0,724.03-567.15,719.98-925.79c-4.18-370.16-458.37-608.89-717.72-93.11"/>
		<rect x="1456.99" y="1348.83" class="st1" width="66" height="916"/>
	</g>
	<path class="st0" d="M1117.23,1512.58c0,0,120.69-211.02,267.87-23.95"/>
	<path class="st0" d="M1578.76,1496.82c0,0,145.33-194.88,268.8,8.62"/>
	<path class="st0" d="M1729.37,1707.95c0,0-253.26,192.04-478.61-14.14"/>
	<g>
		<path class="st1" d="M1146.14,2389.7c-0.64-9.71-2.07-19.57-4.59-28.98c-2.54-9.49-6.35-18.65-10.47-27.54
			c-7.41-15.98-18.05-30.62-29.85-43.63c-11.96-13.19-26.24-24.74-41.4-34.04c-16.63-10.21-35.35-17.49-54.17-22.52
			c-20.91-5.59-42.72-8.39-64.31-9.53c-39.11-2.06-78.21,2.24-117.06,6.23c-37.43,3.85-75.23,7.02-112.83,3.77
			c-3.49-0.3-6.96-0.68-10.43-1.1c-17.08-2.6-33.88-6.8-49.96-13.15c-9.71-4.35-18.97-9.49-27.58-15.73
			c-7.7-6.33-14.73-13.42-21.04-21.14c-6.05-8.28-11.27-17.12-15.52-26.44c-3.02-7.86-5.32-15.96-6.77-24.26
			c-0.62-6.45-0.68-12.93-0.11-19.39c0.94-5.17,2.31-10.24,4.11-15.18c1.81-3.78,3.88-7.41,6.19-10.9
			c9.56,6.82,19.36,13.29,29.27,19.52c22.3,14.04,45.48,27.93,71.04,35.14c26.95,7.61,57.78,7.17,82-8.27
			c11.83-7.54,21.12-16.91,29.07-28.39c3.89-5.61,6.5-11.86,9-18.19c2.48-6.28,3.31-12.6,4.11-19.32
			c3.2-27.06-14.16-54.27-38.22-65.84c-6.5-3.13-13.32-5.92-20.33-7.72c-7.13-1.82-14.46-2.7-21.74-3.62
			c-9.55-1.21-19.22-1.6-28.84-1.79c-22.16-0.45-44.32,1.16-66.15,5.11c-9.32,1.69-18.54,3.98-27.49,7.1
			c-6.8,2.37-13.59,5.06-20.15,8.19c-4.31-4.39-8.41-8.99-12.29-13.79c-5.36-7.38-10.06-15.16-13.89-23.43
			c-2.98-7.79-5.21-15.82-6.63-24.04c-0.67-6.88-0.74-13.8-0.12-20.69c0.93-5.12,2.26-10.15,4.03-15.05
			c1.72-3.55,3.68-6.96,5.9-10.23c2.65-2.64,4.56-5.72,5.71-9.24c1.92-3.65,2.79-7.58,2.64-11.79c0-7.5-3.33-16.47-8.96-21.63
			c-5.83-5.35-13.49-9.33-21.63-8.96c-7.63,0.34-16.59,2.79-21.63,8.96c-4.66,5.71-9.26,11.56-12.83,18.04
			c-3.48,6.31-6.3,13.07-8.67,19.86c-4.04,11.6-5.79,24.29-6.15,36.53c-0.36,12.39,1.29,25.07,4.03,37.13
			c2.79,12.27,7.53,24.18,13.1,35.43c5.83,11.77,13.68,22.3,21.89,32.51c2.37,2.95,4.85,5.81,7.4,8.6c-4.2,5.36-8,11.07-11.1,17.02
			c-10.33,19.78-15.51,42.37-14.06,64.7c1.49,23.06,7.97,44.71,18.55,65.21c5.38,10.43,12.13,19.77,19.32,29.02
			c5.65,7.27,11.87,14.07,18.73,20.23c8.59,7.71,17.92,14.88,27.85,20.8c11.46,6.84,23.98,12.15,36.47,16.74
			c23.92,8.79,49.46,12.87,74.79,14.84c23.5,1.82,47.13,1.18,70.61-0.48c48.61-3.43,96.97-11.34,145.83-10.16
			c10.55,0.26,21.09,0.95,31.58,2.19c17,2.57,33.76,6.73,49.78,13.01c9.78,4.44,19.04,9.91,27.7,16.25
			c8.7,7.09,16.67,15.02,23.76,23.72c5.79,7.94,10.83,16.39,14.93,25.32c2.74,7.16,4.83,14.53,6.16,22.07
			c0.56,6.04,0.59,12.11,0.06,18.15c-1.19,6.53-3.05,12.91-5.58,19.07c-1.28,4.07-1.46,8.13-0.55,12.2
			c0.18,4.07,1.39,7.86,3.63,11.38c3.71,6.35,10.99,12.4,18.28,14.06c7.83,1.78,16.62,1.4,23.58-3.08c2.06-1.59,4.13-3.19,6.19-4.78
			c3.79-3.82,6.41-8.32,7.87-13.5c2.83-6.9,4.87-14.09,6-21.46C1145.67,2409.13,1146.79,2399.52,1146.14,2389.7z M731.05,2050.28
			c5.3,0.88,10.52,2.09,15.59,3.86c1.57,0.8,3.09,1.67,4.58,2.61c0.61,0.57,1.21,1.16,1.78,1.77c0.24,0.39,0.47,0.79,0.7,1.19
			c0.09,0.33,0.19,0.65,0.27,0.98c0.01,0.64,0.01,1.29-0.01,1.93c-0.33,1.4-0.72,2.78-1.17,4.15c-1.06,2.06-2.24,4.05-3.54,5.98
			c-1.87,2.12-3.88,4.11-6,5.98c-2.07,1.4-4.22,2.68-6.44,3.82c-2.02,0.68-4.06,1.26-6.15,1.7c-4.55,0.34-9.1,0.29-13.64-0.1
			c-7.64-1.41-15.07-3.67-22.32-6.48c-8.82-3.96-17.32-8.55-25.65-13.45c-1.36-0.29-2.41-0.97-3.15-1.88
			c-4.77-2.86-9.5-5.79-14.2-8.75c-0.38-0.24-0.77-0.49-1.15-0.73c3.96-0.82,7.94-1.53,11.93-2.14c11.41-1.31,22.9-1.89,34.39-1.92
			C708.24,2048.78,719.72,2049.05,731.05,2050.28z"/>
	</g>
	<g>
		<path class="st1" d="M1254.79,2373.49c-5.39,11.37-10.04,23.16-12.87,35.44c-2.83,12.27-4.47,25.03-4.79,37.62
			c-0.33,12.72,1.11,25.39,3.16,37.93c1.65,10.09,4.25,20.03,7.73,29.65c4.3,11.87,9.44,23.6,15.83,34.5
			c6.36,10.85,14.03,21.08,22.33,30.51c8.55,9.71,18.34,17.85,28.59,25.7c8.33,6.38,17.18,12.03,26.5,16.84
			c20.73,10.71,43.17,18.54,66.27,22.05c12.86,1.95,25.73,3.39,38.75,3.33c13.08-0.06,26.13-1.56,39.03-3.71
			c23.24-3.87,45.73-12.2,66.7-22.83c21.01-10.64,40.45-24.74,57.85-40.55c17.48-15.89,32.77-34.43,45.68-54.19
			c10.77-16.49,19.63-34.13,30.52-50.55c2.62-3.95,5.36-7.81,8.25-11.56c-1.59,2.06-3.19,4.13-4.78,6.19
			c5.72-7.36,12.09-14.22,19.47-19.94c-2.06,1.59-4.13,3.19-6.19,4.78c5-3.82,10.4-7.05,16.21-9.5c-2.44,1.03-4.87,2.06-7.31,3.08
			c2.72-1.12,5.49-2.07,8.32-2.86c7.42-2.05,14.4-7.41,18.28-14.06c2.24-3.51,3.45-7.3,3.63-11.38c0.91-4.07,0.73-8.13-0.55-12.2
			c-2.4-7.4-6.98-14.55-14.06-18.28c-7.28-3.85-15.48-5.32-23.58-3.08c-22.93,6.33-42.58,21.15-57.13,39.7
			c-7.54,9.62-14.47,19.48-20.79,29.94c-5.11,8.45-9.94,17.07-14.97,25.57c-6.03,10.21-12.49,20.11-19.74,29.51
			c1.59-2.06,3.19-4.13,4.78-6.19c-12.8,16.48-27.6,31.35-44.09,44.14c2.06-1.59,4.13-3.19,6.19-4.78
			c-15.57,12.01-32.57,22.1-50.68,29.78c2.44-1.03,4.87-2.06,7.31-3.08c-16.47,6.92-33.76,11.81-51.47,14.23
			c2.71-0.36,5.42-0.73,8.13-1.09c-17.27,2.3-34.77,2.27-52.04,0c2.71,0.36,5.42,0.73,8.13,1.09c-17-2.29-33.65-6.74-49.48-13.37
			c2.44,1.03,4.87,2.06,7.31,3.08c-14.1-5.96-27.44-13.62-39.58-22.96c2.06,1.59,4.13,3.19,6.19,4.78
			c-10.62-8.24-20.24-17.69-28.5-28.31c1.59,2.06,3.19,4.13,4.78,6.19c-8.61-11.16-15.69-23.4-21.17-36.38
			c1.03,2.44,2.06,4.87,3.08,7.31c-5.59-13.39-9.44-27.44-11.42-41.81c0.36,2.71,0.73,5.42,1.09,8.13
			c-1.85-13.87-1.95-27.92-0.09-41.79c-0.36,2.71-0.73,5.42-1.09,8.13c1.68-12.16,4.84-24.05,9.57-35.38
			c-1.03,2.44-2.06,4.87-3.08,7.31c0.83-1.96,1.7-3.9,2.61-5.82c2.24-3.51,3.45-7.3,3.63-11.38c0.91-4.07,0.73-8.13-0.55-12.2
			c-1.95-7.1-7.44-14.79-14.06-18.28c-7.1-3.75-15.7-5.63-23.58-3.08C1265.87,2361.76,1258.16,2366.38,1254.79,2373.49
			L1254.79,2373.49z"/>
	</g>
	<g>
		<path class="st1" d="M1863.34,2378.66c2.5-1.77,5.16-3.26,7.97-4.47c-2.44,1.03-4.87,2.06-7.31,3.08
			c3.88-1.63,7.93-2.69,12.09-3.27c-2.71,0.36-5.42,0.73-8.13,1.09c5.28-0.69,10.59-0.59,15.87,0.09c-2.71-0.36-5.42-0.73-8.13-1.09
			c6.99,0.96,13.78,2.91,20.29,5.62c-2.44-1.03-4.87-2.06-7.31-3.08c10.44,4.42,19.8,10.88,28.74,17.78
			c-2.06-1.59-4.13-3.19-6.19-4.78c13.83,10.72,26.91,22.47,41.49,32.2c5.99,4,12.28,7.52,18.82,10.53
			c8.54,3.93,17.3,7.55,26.33,10.23c6.85,2.03,13.86,3.55,20.94,4.55c9.46,1.34,18.85,2.52,28.41,2.54
			c9.74,0.02,19.32-1.17,28.95-2.57c6.89-1,13.7-2.51,20.36-4.53c8.75-2.66,17.29-6.22,25.55-10.12c5.74-2.7,11.28-5.8,16.6-9.25
			c12.76-8.28,24.85-18.13,35.04-29.45c5.92-6.58,11.4-13.64,16.42-20.92c3.65-5.29,6.94-10.82,9.84-16.55
			c7.49-14.81,13.56-30.76,15.86-47.26c1.45-10.43,2.62-20.58,1.31-31.08c-0.8-6.43-1.54-12.87-3.36-19.11
			c-1.57-5.38-3.89-10.61-6.19-15.68c-3.62-7.99-9.07-15.26-14.88-21.76c-2.13-2.39-4.47-4.58-6.97-6.57
			c-4.31-3.43-8.66-6.99-13.55-9.6c-4.91-2.62-10.14-4.82-15.45-6.48c-4.07-1.27-8.13-1.46-12.2-0.55
			c-4.07,0.18-7.86,1.39-11.38,3.63c-3.57,1.92-6.43,4.55-8.58,7.88c-2.7,2.96-4.53,6.42-5.48,10.4c-0.36,2.71-0.73,5.42-1.09,8.13
			c0.02,5.52,1.41,10.67,4.18,15.44c1.59,2.06,3.19,4.13,4.78,6.19c3.82,3.79,8.32,6.41,13.5,7.87c1.41,0.44,2.8,0.94,4.16,1.5
			c-2.44-1.03-4.87-2.06-7.31-3.08c3.92,1.66,7.57,3.82,10.95,6.4c-2.06-1.59-4.13-3.19-6.19-4.78c3.77,2.94,7.11,6.34,10.05,10.11
			c-1.59-2.06-3.19-4.13-4.78-6.19c3.23,4.22,5.9,8.82,8,13.7c-1.03-2.44-2.06-4.87-3.08-7.31c2.38,5.66,3.9,11.6,4.73,17.67
			c-0.36-2.71-0.73-5.42-1.09-8.13c0.99,7.73,0.83,15.53-0.18,23.25c0.36-2.71,0.73-5.42,1.09-8.13
			c-1.48,10.79-4.57,21.3-8.78,31.33c1.03-2.44,2.06-4.87,3.08-7.31c-4.76,11.23-10.98,21.78-18.42,31.44
			c1.59-2.06,3.19-4.13,4.78-6.19c-7.58,9.78-16.35,18.57-26.12,26.16c2.06-1.59,4.13-3.19,6.19-4.78
			c-9.65,7.45-20.19,13.68-31.42,18.45c2.44-1.03,4.87-2.06,7.31-3.08c-11.26,4.73-23.1,7.91-35.21,9.54
			c2.71-0.36,5.42-0.73,8.13-1.09c-12.74,1.67-25.64,1.64-38.37-0.05c2.71,0.36,5.42,0.73,8.13,1.09
			c-12.73-1.73-25.18-5.09-37.02-10.07c2.44,1.03,4.87,2.06,7.31,3.08c-12.38-5.26-23.63-12.37-34.26-20.58
			c2.06,1.59,4.13,3.19,6.19,4.78c-15.79-12.25-30.63-26.07-47.93-36.23c-3.51-2.06-7.14-3.87-10.88-5.47
			c-5.86-2.5-11.66-5.04-17.81-6.71c-6.35-1.73-12.95-2.56-19.47-3.27c-3.75-0.41-7.53-0.51-11.29-0.22
			c-4.73,0.36-9.49,0.99-14.14,1.91c-1.97,0.39-3.92,0.9-5.82,1.53c-4.4,1.47-8.74,3.32-12.88,5.39c-1.98,0.99-3.87,2.14-5.68,3.42
			c-3.57,1.92-6.43,4.55-8.58,7.88c-2.7,2.96-4.53,6.42-5.48,10.4c-1.28,4.07-1.46,8.13-0.55,12.2c0.18,4.07,1.39,7.86,3.63,11.38
			c4.21,6.53,10.48,12.28,18.28,14.06c2.71,0.36,5.42,0.73,8.13,1.09C1853.42,2382.82,1858.57,2381.43,1863.34,2378.66
			L1863.34,2378.66z"/>
	</g>
	<g>
		<path class="st1" d="M2499.7,2029.5c-2.26-10.34-6.34-20.37-11-29.84c-4.68-9.51-11.02-17.98-17.72-26.16
			c-5.07-6.2-10.78-11.87-16.93-17c-14.4-12.03-29.97-22.09-47.12-29.71c-11.53-5.13-23.25-9.72-35.31-13.2
			c4.63-27.1,11.26-53.83,19.15-80.17c9.8-32.69,21.5-64.77,33.92-96.55c7.01-17.93,14.25-35.76,21.53-53.58
			c1.27-4.07,1.46-8.13,0.55-12.2c-0.18-4.07-1.4-7.86-3.63-11.38c-3.71-6.35-10.99-12.4-18.28-14.06
			c-7.83-1.78-16.62-1.4-23.58,3.08c-2.06,1.59-4.13,3.19-6.19,4.78c-3.79,3.82-6.41,8.32-7.87,13.5
			c-14.55,35.6-28.95,71.29-41.62,107.61c-12.59,36.11-23.51,72.9-30.77,110.48c-1.33,6.87-2.54,13.77-3.65,20.69
			c-9.03,0.39-18.08,1.57-26.9,3.32c-10.75,2.12-20.78,6.02-30.77,10.47c-8.99,4.01-16.6,9.58-24.34,15.62
			c-5.65,4.41-10.79,9.41-15.32,14.97c-5.95,7.31-11.63,14.84-15.85,23.29c-4.17,8.36-7.9,17.28-9.93,26.44
			c-2.01,9.07-3.31,18.71-2.72,28.03c0.58,9.17,1.96,18.56,5.27,27.19c0.95,3.98,2.77,7.45,5.48,10.4c2.16,3.33,5.02,5.96,8.58,7.88
			c3.51,2.24,7.3,3.45,11.38,3.63c4.07,0.91,8.13,0.73,12.2-0.55c7.4-2.4,14.55-6.98,18.28-14.06c3.63-6.87,5.99-16.01,3.08-23.58
			c-1.31-3.4-2.31-6.88-3.04-10.43c-0.23-3.33-0.21-6.66,0.04-9.99c0.83-4.3,2.02-8.51,3.52-12.62c2.27-4.74,4.94-9.26,7.97-13.55
			c3.46-4.09,7.25-7.89,11.34-11.35c4.22-2.95,8.67-5.52,13.33-7.73c6.81-2.55,13.84-4.41,21.01-5.64c0.36-0.04,0.73-0.08,1.09-0.11
			c-0.48,12.44-0.43,24.9,0.24,37.33c0.51,9.48,1.38,18.95,2.61,28.37c1.29,9.86,2.58,19.68,4.89,29.36
			c1.62,6.8,3.64,13.52,6.16,20.04c3.37,8.74,7.05,17.51,11.89,25.56c1.74,2.9,3.64,5.7,5.69,8.39c3.46,4.55,6.88,9.17,10.9,13.25
			c3.99,4.05,8.54,7.45,13.08,10.87c2.59,1.96,5.32,3.73,8.19,5.24c5.07,2.66,10.44,4.93,15.88,6.71
			c5.76,1.88,11.75,2.56,17.75,3.28c9.35,1.12,19.23-0.13,28.29-2.44c5.82-1.48,11.33-3.96,16.82-6.37c3.3-1.45,6.47-3.17,9.49-5.13
			c7.9-5.13,15.63-11.27,21.67-18.56c3.82-4.6,7.62-9.38,10.69-14.54c3.1-5.21,5.41-10.92,7.61-16.54
			c3.83-9.8,5.43-20.65,6.01-31.09C2503.34,2050.62,2501.94,2039.77,2499.7,2029.5z M2427.29,2088.09c-2.61,1.78-5.33,3.39-8.15,4.8
			c-2.4,0.83-4.85,1.51-7.33,2.04c-1.99,0.11-3.97,0.12-5.96,0.01c-1.96-0.43-3.89-0.98-5.8-1.62c-2.04-1.05-4-2.21-5.9-3.49
			c-2.54-2.23-4.9-4.65-7.1-7.22c-3.49-5-6.46-10.34-9.03-15.87c-4.68-12.06-7.65-24.66-9.55-37.44
			c-2.12-17.74-2.94-35.6-2.61-53.45c3,1.03,5.97,2.12,8.92,3.28c0.83,0.17,1.55,0.48,2.15,0.9c11.59,5.23,22.7,11.48,32.95,19
			c6.27,5.17,12.09,10.86,17.29,17.1c3.64,5.1,6.83,10.49,9.51,16.16c2.04,5.45,3.61,11.05,4.66,16.77
			c0.4,4.69,0.44,9.39,0.07,14.08c-0.7,3.62-1.65,7.18-2.87,10.66c-1.31,2.6-2.79,5.1-4.43,7.51
			C2431.98,2083.71,2429.71,2085.98,2427.29,2088.09z"/>
	</g>
	<g>
		<path class="st1" d="M2463.4,1547.37c17.14-4.81,34.3-9.66,51.07-15.67c18.73-6.72,37.38-14.55,54.4-24.95
			c15.82-9.67,30.85-21.51,42.9-35.67c6.62-7.77,12.92-16.03,18.07-24.86c5.16-8.84,9.34-18.42,12.57-28.12
			c3.25-9.75,4.85-20.07,5.67-30.29c0.8-10.1-0.39-20.25-2.18-30.19c-1.75-9.71-5.39-18.69-9.35-27.69
			c-2.95-6.71-6.67-13.07-10.94-19.03c-5.7-7.94-11.85-15.64-18.79-22.54c-7.06-7.01-14.88-13.14-22.83-19.1
			c-12.34-9.25-25.86-16.84-40.02-22.93c-19.1-8.23-38.59-14.97-58.47-21.06c-17.52-5.37-35.13-10.51-52.3-16.93
			c-4.25-1.59-8.47-3.26-12.65-5.02c2.44,1.03,4.87,2.06,7.31,3.08c-15.33-6.5-29.88-14.41-43.09-24.6
			c2.06,1.59,4.13,3.19,6.19,4.78c-9.78-7.6-18.73-16.24-26.35-26.02c1.59,2.06,3.19,4.13,4.78,6.19
			c-5.92-7.67-10.96-15.98-14.74-24.92c1.03,2.44,2.06,4.87,3.08,7.31c-3-7.24-5.12-14.78-6.18-22.55c0.36,2.71,0.73,5.42,1.09,8.13
			c-0.6-4.62-0.82-9.27-0.66-13.93c0.16-4.21-0.72-8.14-2.64-11.79c-1.23-3.79-3.34-7.08-6.33-9.85c-2.77-2.98-6.05-5.09-9.85-6.33
			c-3.65-1.92-7.58-2.79-11.79-2.64c-7.91,0.35-16.12,2.95-21.63,8.96c-5.6,6.1-8.67,13.25-8.96,21.63
			c-0.73,21.19,5.26,42.19,15.23,60.74c5.01,9.33,11.5,17.88,18.27,25.98c5.38,6.43,11.35,12.36,17.75,17.78
			c14.96,12.68,31.13,23.31,49,31.37c20.58,9.28,41.81,16.51,63.38,23.1c21.53,6.58,43.2,12.9,63.98,21.64
			c-2.44-1.03-4.87-2.06-7.31-3.08c15.61,6.61,30.45,14.88,43.9,25.23c-2.06-1.59-4.13-3.19-6.19-4.78
			c9.78,7.58,18.75,16.18,26.33,25.98c-1.59-2.06-3.19-4.13-4.78-6.19c5.57,7.27,10.32,15.13,13.91,23.57
			c-1.03-2.44-2.06-4.87-3.08-7.31c3.1,7.4,5.25,15.13,6.33,23.08c-0.36-2.71-0.73-5.42-1.09-8.13c0.98,7.61,0.94,15.27-0.06,22.87
			c0.36-2.71,0.73-5.42,1.09-8.13c-1.19,8.62-3.59,17-6.95,25.02c1.03-2.44,2.06-4.87,3.08-7.31c-4.11,9.66-9.55,18.67-15.96,26.98
			c1.59-2.06,3.19-4.13,4.78-6.19c-7.4,9.51-16.01,18.01-25.53,25.39c2.06-1.59,4.13-3.19,6.19-4.78
			c-13.85,10.65-29.39,18.9-45.44,25.69c2.44-1.03,4.87-2.06,7.31-3.08c-21.96,9.23-44.91,15.74-67.81,22.17
			c-7.43,2.09-14.38,7.39-18.28,14.06c-2.24,3.51-3.45,7.3-3.63,11.38c-0.91,4.07-0.73,8.13,0.55,12.2
			c2.4,7.4,6.98,14.55,14.06,18.28C2447.09,1548.12,2455.32,1549.64,2463.4,1547.37L2463.4,1547.37z"/>
	</g>
	<g>
		<path class="st1" d="M2413.34,845.14c-1.78-11.4-6.36-22.55-11.73-32.69c-5.21-9.83-12.22-18.98-19.86-27.04
			c-15.74-16.59-36.04-28.56-57.65-35.73c-21.62-7.17-45.06-8.05-67.28-3.39c-1.91,0.4-3.81,0.88-5.7,1.39
			c-4.55-5.54-9.34-10.9-14.43-16.03c-30.15-30.39-69.08-51.87-110.21-63.25c-41.82-11.58-85.9-12.7-128.42-4.52
			c-21.56,4.15-42.04,11.47-62.14,20.19c-17.92,7.77-35,17.43-51.02,28.6c-18.1,12.62-35.28,26.74-50.83,42.4
			c-15.47,15.59-29.41,32.76-42.02,50.73c-2.8,3.99-5.5,8.03-8.14,12.13c-4.18,6.51-5.1,16.24-3.08,23.58
			c1.95,7.1,7.44,14.79,14.06,18.28c7.1,3.75,15.7,5.63,23.58,3.08c7.77-2.51,13.83-7.12,18.28-14.06
			c4.89-7.61,10.07-15.01,15.52-22.22c15.98-20.1,34.16-38.4,54.27-54.37c18.38-13.8,38.21-25.6,59.25-34.86
			c18.63-7.52,38.04-13.02,57.91-16.07c18.96-2.19,38.11-2.2,57.07-0.05c18.73,2.8,37.08,7.7,54.66,14.75
			c14.59,6.5,28.46,14.5,41.31,24c7.46,6.03,14.43,12.56,20.96,19.54c-31.94,32.13-46.39,80.14-36.43,124.4
			c0.96,4.27,2.25,8.44,3.82,12.53c0.95,3.98,2.77,7.45,5.48,10.4c2.16,3.33,5.02,5.96,8.58,7.88c6.56,3.84,16.22,5.46,23.58,3.08
			c7.4-2.4,14.55-6.98,18.28-14.06c3.63-6.86,6-16.01,3.08-23.58c-2.03-5.27-3.53-10.69-4.55-16.22
			c-0.52-5.92-0.48-11.86,0.06-17.78c1.19-6.69,3-13.23,5.4-19.58c2.7-5.76,5.88-11.27,9.51-16.49c1.46,2.28,2.93,4.56,4.4,6.83
			c0.95,0.76,1.57,1.8,1.9,2.95c1.61,2.49,3.23,4.97,4.86,7.44c7.61,11.52,15.67,22.64,24.21,33.5c6.71,8.53,13.8,16.87,22.32,23.65
			c11.8,9.39,23.87,16.98,38.43,21.53c6.64,2.07,13.83,3.12,20.74,3.34c4.6,0.15,9.17-0.68,13.7-1.33c2.31-0.33,4.56-0.81,6.76-1.6
			c9.21-3.34,16.26-7.3,23.51-13.98c5.13-4.72,9.57-10.79,12.41-17.18c1.92-4.31,3.94-8.73,5.03-13.35
			c1.12-4.75,1.68-9.68,2.12-14.53C2415.61,859.92,2414.48,852.46,2413.34,845.14z M2314.33,839
			c-8.33-11.06-15.98-22.62-23.52-34.26c0.68,0.05,1.37,0.11,2.05,0.17c6.57,1.17,13.01,2.95,19.26,5.31
			c6.16,2.88,12.03,6.3,17.56,10.24c4.62,3.87,8.9,8.11,12.79,12.71c3.05,4.32,5.74,8.87,8.03,13.64c1.39,3.79,2.5,7.67,3.29,11.63
			c0.15,2.27,0.18,4.53,0.08,6.8c-0.21,0.91-0.45,1.81-0.71,2.7c-0.03,0.06-0.06,0.12-0.09,0.17c-0.62,0.01-1.24,0-1.86-0.02
			c-2.12-0.48-4.22-1.08-6.27-1.79c-3.99-1.96-7.8-4.24-11.43-6.79C2326.35,853.44,2320.15,846.35,2314.33,839z"/>
	</g>
	<g>
		<path class="st1" d="M1686.7,750.35c-3.71-6.35-10.99-12.4-18.28-14.06c-16.81-3.83-32.31,5.07-37.64,21.37
			c-0.39,1.2-0.81,2.4-1.25,3.59c-2.29,4.82-4.99,9.43-8.06,13.8c-3.93,4.66-8.26,8.93-12.94,12.84
			c-6.24,4.45-12.9,8.26-19.86,11.48c-9.13,3.53-18.6,6.08-28.26,7.68c-10.26,1.08-20.59,1.12-30.85,0.07
			c-9.27-1.55-18.3-4.03-27.07-7.41c-10.62-4.79-20.7-10.62-30.22-17.31c15.8-11.77,29.38-25.89,39.94-42.72
			c11.86-18.9,18.44-40.56,19.86-62.76c0.7-11.03-0.75-22.44-3.28-33.16c-2.52-10.69-6.88-21.18-12.07-30.84
			c-10.5-19.53-26.42-36.09-44.92-48.17c-9.03-5.9-19.27-10.46-29.55-13.62c-3.97-1.22-8.03-2.12-12.15-2.72
			c-6.72-0.98-13.41-1.96-20.22-1.8c-25.22,0.61-50.66,10.29-68.61,28.31c-9.91,9.94-17.32,22.5-21.09,36.03
			c-4.18,15.03-3.48,30.15-0.81,45.33c2.33,13.23,7.53,25.65,12.85,37.9c3.97,9.14,8.48,18.07,13.17,26.87
			c5.36,10.06,11.09,19.93,17.26,29.53c-9.95-1.83-19.69-4.64-29.12-8.32c-11.5-5.19-22.39-11.6-32.56-19.07
			c-11.52-9.33-21.7-19.95-30.91-31.55c-10.99-14.53-21.36-29.51-32.95-43.59c-5.32-6.47-10.96-12.71-17.19-18.32
			c-7.68-6.91-16.11-13.55-25.34-18.27c-22.22-11.37-47.85-14.85-71.97-7.4c-11.36,3.51-22.57,8.83-32.12,15.95
			c-5.82,4.34-11.59,8.78-16.76,13.9c-5.25,5.21-9.72,11.04-14.2,16.91c-16.17,21.24-25.72,46.68-35.34,71.34
			c-2.71,6.95-0.53,17.4,3.08,23.58c3.71,6.35,10.99,12.4,18.28,14.06c7.83,1.78,16.62,1.4,23.58-3.08
			c2.06-1.59,4.13-3.19,6.19-4.78c3.79-3.82,6.41-8.32,7.87-13.5c2.25-5.78,4.54-11.55,6.91-17.29
			c5.59-12.79,11.98-25.23,20.17-36.56c3.92-4.68,8.2-9.03,12.86-12.98c3.98-2.81,8.16-5.3,12.54-7.43c3.26-1.16,6.58-2.1,9.96-2.79
			c2.75-0.18,5.5-0.18,8.25,0c2.95,0.6,5.85,1.41,8.7,2.4c3.76,1.86,7.34,4.02,10.78,6.43c9,7.52,16.78,16.36,24.04,25.55
			c11.21,14.76,21.72,30.05,33.53,44.36c13.85,16.77,30.88,31.15,49.18,42.83c18.27,11.66,39.03,20.68,60.19,25.44
			c23.33,5.25,46.8,5.88,70.29,1.53c17.77,17.35,37.83,32.23,60.66,42.51c9.92,4.47,20.01,8.66,30.57,11.34
			c10.03,2.54,20.41,3.98,30.7,4.84c18.13,1.51,36.86-0.4,54.51-4.64c36.57-8.78,70.66-30.65,90.56-62.99
			c5.16-8.39,9.12-17.7,12.18-27.05C1692.18,766.59,1690.52,756.88,1686.7,750.35z M1417.41,608.03c4.36,0.84,8.63,2.03,12.8,3.55
			c4.85,2.33,9.48,5.07,13.87,8.18c4.65,3.92,8.93,8.23,12.83,12.89c3.59,5.05,6.73,10.38,9.38,15.98
			c1.92,5.17,3.4,10.47,4.41,15.89c0.41,4.98,0.38,9.96-0.05,14.94c-1.09,5.99-2.73,11.85-4.87,17.55
			c-2.97,6.3-6.52,12.29-10.59,17.94c-5.09,6.13-10.75,11.74-16.89,16.82c-3.23,2.33-6.56,4.51-9.97,6.54
			c-0.67-0.91-1.33-1.82-2-2.73c-1.58-0.84-2.53-2.32-2.87-4c-14.71-20.79-27.43-43.32-37.63-66.56
			c-3.15-7.92-5.76-16.03-7.32-24.41c-0.26-3.32-0.32-6.64-0.12-9.96c0.43-2.01,0.96-3.98,1.6-5.93c0.79-1.51,1.65-2.98,2.58-4.4
			c1.48-1.64,3.06-3.2,4.72-4.67c2.58-1.74,5.27-3.3,8.06-4.68c3.51-1.25,7.09-2.23,10.74-2.94
			C1409.85,607.74,1413.63,607.74,1417.41,608.03z"/>
	</g>
	<g>
		<path class="st1" d="M514.72,1729.21c5.85-3.9,11.39-8.19,16.93-12.51c3.6-2.81,7.1-5.76,10.45-8.87
			c8.48-7.86,15.85-16.82,22.54-26.23c6.75-9.5,11.71-20.04,15.73-30.95c1.55-4.22,2.78-8.55,3.67-12.96
			c0.96-4.74,1.51-9.56,2.12-14.35c0.28-2.23,0.48-4.47,0.59-6.72c0.22-4.47,0.08-8.95-0.45-13.4c-0.82-6.97-1.66-13.98-3.68-20.72
			c-0.63-2.12-1.37-4.2-2.2-6.25c-1.77-4.34-3.51-8.76-5.69-12.92c-3.2-6.1-7.51-11.55-11.85-16.87c-2.79-3.42-5.92-6.55-9.28-9.4
			c-5.18-4.38-10.64-8.59-16.4-12.2c-9.61-6.02-20.25-10.46-30.8-14.51c-17.68-6.78-36.27-10.78-54.02-17.39
			c-2.26-0.84-4.51-1.73-6.73-2.66c2.44,1.03,4.87,2.06,7.31,3.08c-8.62-3.64-16.98-8.05-24.41-13.78c2.06,1.59,4.13,3.19,6.19,4.78
			c-4.7-3.66-8.91-7.89-12.57-12.59c1.59,2.06,3.19,4.13,4.78,6.19c-3.54-4.59-6.52-9.58-8.79-14.92c1.03,2.44,2.06,4.87,3.08,7.31
			c-1.85-4.45-3.18-9.08-3.83-13.85c0.36,2.71,0.73,5.42,1.09,8.13c-0.49-3.89-0.52-7.79-0.01-11.68c-0.36,2.71-0.73,5.42-1.09,8.13
			c0.48-3.39,1.36-6.68,2.66-9.85c1.28-4.07,1.46-8.13,0.55-12.2c-0.18-4.07-1.39-7.86-3.63-11.38c-1.92-3.57-4.55-6.43-7.88-8.58
			c-2.96-2.7-6.42-4.53-10.4-5.48c-2.71-0.36-5.42-0.73-8.13-1.09c-5.52,0.02-10.67,1.41-15.44,4.18c-2.06,1.59-4.13,3.19-6.19,4.78
			c-3.79,3.82-6.41,8.32-7.87,13.5c-0.98,2.41-1.75,4.9-2.26,7.46c-1,5.02-1.76,10.21-1.87,15.35c-0.11,5.09,0.8,10.18,1.51,15.19
			c0.35,2.5,0.87,4.97,1.58,7.39c1.43,4.92,3.6,9.67,5.64,14.33c1.07,2.45,2.3,4.82,3.66,7.12c1.34,2.26,2.82,4.43,4.41,6.52
			c3.08,4.04,6.12,8.18,9.61,11.89c1.84,1.96,3.79,3.81,5.85,5.55c4.02,3.4,8.22,6.64,12.58,9.6c4.96,3.38,10.25,6.26,15.7,8.78
			c13.32,6.16,27.05,10.9,41.09,15.07c12.46,3.7,24.98,7.23,36.98,12.27c-2.44-1.03-4.87-2.06-7.31-3.08
			c9.06,3.83,17.81,8.47,25.62,14.49c-2.06-1.59-4.13-3.19-6.19-4.78c4.92,3.84,9.39,8.19,13.2,13.13
			c-1.59-2.06-3.19-4.13-4.78-6.19c3.32,4.36,6.06,9.09,8.2,14.13c-1.03-2.44-2.06-4.87-3.08-7.31c2.45,5.88,4.05,12.04,4.91,18.34
			c-0.36-2.71-0.73-5.42-1.09-8.13c0.94,7.27,0.87,14.62-0.09,21.89c0.36-2.71,0.73-5.42,1.09-8.13
			c-1.07,7.73-3.14,15.28-6.17,22.47c1.03-2.44,2.06-4.87,3.08-7.31c-3.56,8.34-8.25,16.13-13.77,23.32
			c1.59-2.06,3.19-4.13,4.78-6.19c-7.45,9.63-16.27,18.1-25.87,25.55c2.06-1.59,4.13-3.19,6.19-4.78c-3.37,2.6-6.83,5.08-10.37,7.45
			c-3.57,1.92-6.43,4.55-8.58,7.88c-2.7,2.95-4.53,6.42-5.48,10.4c-1.28,4.07-1.46,8.13-0.55,12.2c0.18,4.07,1.39,7.86,3.63,11.38
			c1.59,2.06,3.19,4.13,4.78,6.19c3.82,3.79,8.32,6.41,13.5,7.87c2.71,0.36,5.42,0.73,8.13,1.09
			C504.8,1733.37,509.95,1731.98,514.72,1729.21L514.72,1729.21z"/>
	</g>
	<g>
		<path class="st1" d="M948.72,732.76c-2.17-7.89-8.27-16.43-15.62-20.32c-7.89-4.17-17.45-6.26-26.2-3.43
			c-8.42,2.72-15.79,7.82-20.32,15.62c-1.86,3.21-3.87,6.32-6.02,9.34c-5.05,6.02-10.65,11.52-16.7,16.53
			c-8.99,6.5-18.66,11.97-28.77,16.53c-15.15,5.94-30.93,9.9-47.01,12.35c-48.52,5.66-97.59,0.15-146.29,1.03
			c-25.41,0.46-50.8,2.02-76.08,4.69c-26.93,2.84-54.07,6.26-80.57,11.94c-11.04,2.37-21.98,5.32-32.5,9.42
			c-12.58,4.9-25.03,10.38-36.02,18.31c-10.18,7.34-19.82,15.29-27.79,25.04c-8.05,9.84-15.45,20.05-20.77,31.63
			c-5.25,11.44-9.83,23.13-11.95,35.57c-2.23,13.05-3.52,26.14-2.06,39.34c1.45,13.11,3.59,25.92,8.43,38.23
			c4.84,12.32,10.32,24.13,18.3,34.74c7.71,10.26,15.77,19.73,25.88,27.69c9.95,7.84,20.01,15.02,31.34,20.71
			c16.1,8.08,33.04,14.25,50.41,18.85c1.37,6.48,2.62,12.99,3.64,19.53c1.3,11.67,1.58,23.36,0.4,35.04
			c-1.74,10.2-4.51,20.18-8.24,29.84c-4.17,9.07-9.2,17.71-15.04,25.8c-6.02,7.3-12.7,13.99-20,20.02
			c-8.2,5.95-16.96,11.07-26.16,15.31c-9.61,3.72-19.55,6.49-29.7,8.21c-2.53,0.26-5.07,0.48-7.62,0.62
			c-9,0.48-17.54,3.46-24.04,9.96c-5.9,5.9-10.34,15.57-9.96,24.04c0.39,8.79,3.28,17.91,9.96,24.04
			c6.44,5.92,15.02,10.44,24.04,9.96c13.14-0.71,26.44-2.57,39.18-5.94c12.65-3.35,24.98-8.37,36.69-14.17
			c11.97-5.93,22.58-13.58,33.07-21.81c8.31-6.52,15.91-13.93,22.61-22.09c8.47-10.32,16.33-21.1,22.47-32.97
			c6.11-11.81,11.29-24.37,14.87-37.19c3.65-13.06,5.66-26.76,6.46-40.27c0.72-12.09-0.38-24.05-1.93-36
			c6.06,0.57,12.13,0.99,18.23,1.15c14.26,0.36,28.22-0.97,42.33-3.05c11.06-1.63,21.96-4.44,32.3-8.69
			c7.13-2.93,14.29-5.82,20.95-9.72c6.3-3.68,12-8.16,17.73-12.66c9.73-7.64,17.41-16.81,24.75-26.74
			c7.15-9.67,12.32-20.82,16.21-32.16c1.49-4.34,2.58-8.8,3.28-13.34c1.1-7.1,2.19-14.32,1.92-21.54
			c-0.57-15.31-4.38-28.83-10.95-42.56c-2.1-4.38-4.67-8.5-7.58-12.38c-4.52-6.02-9.06-11.96-14.59-17.09
			c-9.01-8.35-19.38-15.92-30.67-20.9c-7.53-3.32-15.08-6.52-23.06-8.59c-8.19-2.13-16.67-3.21-25.07-4.13
			c-14.22-1.55-28.12-0.15-42.23,1.8c-10.62,1.47-21.12,3.9-31.09,7.88c-7.33,2.93-14.73,5.96-21.53,10.02
			c-6.59,3.94-12.8,8.72-18.55,13.78c-5.79,5.1-10.39,11.15-15.02,17.3c-2.82,3.75-5.31,7.73-7.42,11.92
			c-11.4,22.62-15.98,47.94-15.11,73.18c0.09,2.68,0.25,5.36,0.45,8.03c-7.69-3.74-15.08-8.05-22.04-13.04
			c-5.35-4.46-10.31-9.34-14.79-14.66c-3.85-5.46-7.2-11.24-10.04-17.28c-2.48-6.65-4.36-13.49-5.61-20.47
			c-0.62-6.73-0.65-13.49-0.05-20.23c1.2-6.63,3-13.11,5.36-19.42c2.95-6.25,6.44-12.22,10.44-17.86
			c4.23-5.05,8.88-9.72,13.91-13.97c6.12-4.32,12.65-7.99,19.46-11.14c22.89-8.86,47.56-12.79,71.83-16.12
			c28.24-3.72,56.64-6.1,85.11-7.06c28.66-0.97,57.25-0.02,85.9,0.72c31.59,0.82,62.81,0.11,94.08-4.79
			c25.12-3.93,49.67-12.16,72.11-24.14c26.58-14.2,50.1-35.44,65.27-61.61C949.73,751.3,951.07,741.3,948.72,732.76z M559.87,957.4
			c3.88-2.65,7.96-4.96,12.19-6.98c7.8-2.88,15.87-4.9,24.07-6.26c9.01-0.92,18.08-1.05,27.1-0.21c6.13,1.09,12.14,2.66,17.98,4.79
			c4.13,2,8.09,4.3,11.87,6.9c3.1,2.67,6.01,5.55,8.69,8.65c1.75,2.59,3.34,5.28,4.74,8.06c0.87,2.55,1.59,5.14,2.15,7.77
			c0.17,2.86,0.16,5.73-0.02,8.6c-0.76,3.73-1.79,7.39-3.07,10.98c-2.2,4.53-4.77,8.85-7.66,12.97c-3.71,4.37-7.76,8.41-12.13,12.11
			c-4.79,3.36-9.84,6.29-15.13,8.8c-8.66,3.25-17.61,5.55-26.73,7.07c-18.37,1.93-36.9,1.03-55.22-1.22
			c-1.15-0.17-2.29-0.34-3.44-0.51c-0.35-1.78-0.69-3.56-1.02-5.34c-0.08-0.32-0.14-0.66-0.18-0.99c-0.4-2.2-0.77-4.39-1.12-6.6
			c-1.25-11.25-1.54-22.6-0.45-33.87c1.06-6.08,2.59-12.06,4.69-17.86c1.68-3.44,3.59-6.75,5.73-9.92
			C555.08,961.87,557.4,959.56,559.87,957.4z"/>
	</g>
</g>
</svg>
