<?xml version="1.0" encoding="utf-8"?>
<!-- Generator: Adobe Illustrator 27.8.1, SVG Export Plug-In . SVG Version: 6.00 Build 0)  -->
<svg version="1.1" id="Layer_1" xmlns="http://www.w3.org/2000/svg" xmlns:xlink="http://www.w3.org/1999/xlink" x="0px" y="0px"
	 viewBox="0 0 3000 3000" style="enable-background:new 0 0 3000 3000;" xml:space="preserve">
<style type="text/css">
	.st0{fill:#FBD07A;}
	.st1{fill:#8A0000;}
	.st2{fill:#F15A24;}
	.st3{fill:#FFFFFF;}
</style>
<g>
	<path class="st0" d="M2463.36,2194.12l-1180,211.18l-82.47,248.18l1168.05-190.54c17.92-2.86,32.88-15.25,39.04-32.31
		L2463.36,2194.12z"/>
	<path class="st0" d="M1290.29,2405.3L650.93,792.86c-6.26-15.87-29.09-14.81-33.84,1.58c-22.37,77.31-55.63,193.48-79.05,254.5
		c-3.68,9.59-3.72,20.18-0.12,29.79c61.36,163.51,637.2,1579.63,662.98,1574.75C1251.82,2643.84,1274.69,2497.89,1290.29,2405.3z"/>
	<path class="st1" d="M2425.66,2229.24l-1106.88,184.27c-21.48,3.58-42.59-8.15-50.88-28.3L623.26,821.32
		c-11.34-27.52,5.58-58.48,34.86-63.79L1717.46,565.2c21.26-3.86,42.41,7.36,51.12,27.15l692.18,1571.96
		C2473.05,2192.21,2455.75,2224.23,2425.66,2229.24z"/>
	<polygon class="st2" points="1662.64,564.02 1468.33,602.55 1593.44,890.8 1665.44,812.96 1780.48,843.79 	"/>
	<polygon class="st3" points="1902.19,1364.48 1134.31,1494.3 1026.59,1274.7 1805.52,1149.03 	"/>
</g>
</svg>
