<?xml version="1.0" encoding="utf-8"?>
<!-- Generator: Adobe Illustrator 27.8.1, SVG Export Plug-In . SVG Version: 6.00 Build 0)  -->
<svg version="1.1" id="Layer_1" xmlns="http://www.w3.org/2000/svg" xmlns:xlink="http://www.w3.org/1999/xlink" x="0px" y="0px"
	 viewBox="0 0 4000 3000" style="enable-background:new 0 0 4000 3000;" xml:space="preserve">
<style type="text/css">
	.st0{fill:#FBD07A;}
	.st1{fill:#8A0000;}
	.st2{fill:#F15A24;}
	.st3{fill:#FFFFFF;}
</style>
<g>
	<path class="st0" d="M3249.92,2259.5l-1531,274l-107,322l1515.5-247.22c23.26-3.72,42.66-19.78,50.66-41.93L3249.92,2259.5z"/>
	<path class="st0" d="M1727.92,2533.5L898.36,441.42c-8.13-20.59-37.75-19.22-43.91,2.05c-29.02,100.3-72.18,251.04-102.57,330.21
		c-4.77,12.44-4.83,26.18-0.15,38.65c79.61,212.14,826.74,2049.5,860.19,2043.18C1678,2843,1707.67,2653.63,1727.92,2533.5z"/>
	<path class="st1" d="M3201.02,2305.07l-1436.13,239.08c-27.87,4.64-55.25-10.58-66.02-36.71L862.46,478.34
		c-14.71-35.7,7.24-75.87,45.23-82.77l1374.46-249.53c27.59-5.01,55.02,9.56,66.33,35.23l898.08,2039.55
		C3262.5,2257.03,3240.05,2298.57,3201.02,2305.07z"/>
	<polygon class="st2" points="2211.02,144.5 1958.92,194.5 2121.24,568.5 2214.65,467.5 2363.92,507.5 	"/>
	<polygon class="st3" points="2521.83,1183.07 1525.54,1351.51 1385.77,1066.59 2396.4,903.53 	"/>
</g>
</svg>
