<?xml version="1.0" encoding="utf-8"?>
<!-- Generator: Adobe Illustrator 28.0.0, SVG Export Plug-In . SVG Version: 6.00 Build 0)  -->
<svg version="1.1" id="Layer_1" xmlns="http://www.w3.org/2000/svg" xmlns:xlink="http://www.w3.org/1999/xlink" x="0px" y="0px"
	 viewBox="0 0 3000 3000" style="enable-background:new 0 0 3000 3000;" xml:space="preserve">
<style type="text/css">
	.st0{fill:#FBD07A;}
	.st1{fill:#8A0000;}
	.st2{fill:#F15A24;}
	.st3{fill:#FFFFFF;}
</style>
<g>
	<path class="st0" d="M2463.4,2116.1l-1180,211.2l-82.5,248.2l1168.1-190.5c17.9-2.9,32.9-15.2,39-32.3L2463.4,2116.1z"/>
	<path class="st0" d="M1290.3,2327.3L650.9,714.9c-6.3-15.9-29.1-14.8-33.8,1.6c-22.4,77.3-55.6,193.5-79,254.5
		c-3.7,9.6-3.7,20.2-0.1,29.8c61.4,163.5,637.2,1579.6,663,1574.8C1251.8,2565.8,1274.7,2419.9,1290.3,2327.3z"/>
	<path class="st1" d="M2425.7,2151.2l-1106.9,184.3c-21.5,3.6-42.6-8.1-50.9-28.3L623.3,743.3c-11.3-27.5,5.6-58.5,34.9-63.8
		l1059.3-192.3c21.3-3.9,42.4,7.4,51.1,27.2l692.2,1572C2473.1,2114.2,2455.8,2146.2,2425.7,2151.2z"/>
	<polygon class="st2" points="1662.6,486 1468.3,524.5 1593.4,812.8 1665.4,735 1780.5,765.8 	"/>
	<polygon class="st3" points="1902.2,1286.5 1134.3,1416.3 1026.6,1196.7 1805.5,1071 	"/>
</g>
</svg>
