<?xml version="1.0" encoding="utf-8"?>
<!-- Generator: Adobe Illustrator 27.8.1, SVG Export Plug-In . SVG Version: 6.00 Build 0)  -->
<svg version="1.1" id="Layer_1" xmlns="http://www.w3.org/2000/svg" xmlns:xlink="http://www.w3.org/1999/xlink" x="0px" y="0px"
	 viewBox="0 0 3000 3000" style="enable-background:new 0 0 3000 3000;" xml:space="preserve">
<style type="text/css">
	.st0{fill:#C1272D;}
	.st1{fill:#45793D;}
	.st2{fill:#225D36;}
	.st3{fill:#4A8536;}
</style>
<g>
	<path class="st0" d="M1640.5,1797.21c-1.72-26.92-3.44-53.85-5.16-80.77c1.33-41.55,12.68-79.6,34.03-114.16
		c6.47-16.01,14.54-30.93,24.19-44.77c-26.28-35.56-43.98-75.36-53.07-119.41l-5.16-80.77c1.13-35.23,9.46-67.94,24.99-98.14
		c-80.68-115.36-214.51-190.82-365.97-190.82c-115.62,0-220.96,43.96-300.23,116.09c14.81-1.22,29.91-1,45.3,0.66
		c54.32,3.97,104,21.21,149.05,51.72c19.21,17.11,38.42,34.22,57.63,51.33c34.68,40.17,57.39,86.24,68.12,138.23l5.16,80.77
		c-1.33,41.55-12.68,79.6-34.03,114.16c-11.68,28.89-28.56,54.25-50.6,76.07c3.01,9.69,5.56,19.61,7.66,29.75l5.16,80.77
		c-1.33,41.55-12.68,79.6-34.03,114.16c-14.75,36.47-37.75,67.31-69.01,92.52c-24.92,23.33-53.03,40.18-84.34,50.56
		c71.34,86.36,155.59,144.87,244.57,144.87c149.43,0,277.89-165.01,355.88-349.87C1651.77,1840.23,1645.06,1819.25,1640.5,1797.21z"
		/>
	<path class="st0" d="M1915.3,2038.49c-54.32-3.97-104-21.21-149.05-51.72c-19.21-17.11-38.42-34.22-57.63-51.33
		c-34.68-40.17-57.39-86.24-68.12-138.23c-1.72-26.92-3.44-53.85-5.16-80.77c1.33-41.55,12.68-79.6,34.03-114.16
		c6.47-16.01,14.54-30.93,24.19-44.77c-26.28-35.56-43.98-75.36-53.07-119.41l-5.16-80.77c1.33-41.55,12.68-79.6,34.03-114.16
		c14.75-36.47,37.75-67.31,69.01-92.52c21.44-20.07,45.24-35.34,71.41-45.83c-50.48-19.81-105.45-30.69-162.95-30.69
		c-167.19,0-312.9,91.94-389.35,228.01c28.3,36.78,47.21,78.19,56.72,124.24l5.16,80.77c-1.33,41.55-12.68,79.6-34.03,114.16
		c-11.68,28.89-28.57,54.23-50.61,76.05c3.01,9.7,5.57,19.62,7.66,29.77l1.76,27.51c74.06,224.14,233.99,461.13,413.07,461.13
		c99.59,0,189.86-73.29,262.09-176.9C1917.98,2038.76,1916.64,2038.63,1915.3,2038.49z"/>
	<path class="st1" d="M1488.69,1079.06c-25.42,15.49-84.54-35.19-132.06-113.19s-50.57-187.54-41.69-171.21
		c15.72,28.92,86.2,37.14,133.73,115.14S1514.1,1063.57,1488.69,1079.06z"/>
	<g>
		<path class="st2" d="M2682.54,1427.7h-260.97c0-514-380.65-932.16-894.65-932.16c-279.35,0-545.71,56.73-699.3,164.05
			c-163.08,113.95-244.59,282.02-249.2,513.81l-260.92-5.19c3.16-159.14,36.56-302.09,99.26-424.87
			c60.6-118.69,148.54-218.84,261.37-297.68c103.47-72.3,228.38-126.85,371.27-162.13c131.57-32.49,317.12-48.97,477.51-48.97
			c161.02,0,279.77,31.56,426.95,93.82c142.09,60.1,269.68,146.11,379.21,255.65c109.53,109.53,195.55,237.12,255.65,379.21
			C2650.97,1110.41,2682.54,1266.68,2682.54,1427.7z"/>
	</g>
	<polyline class="st2" points="2552.05,1407.31 2883.07,1407.31 2552.05,1805.34 	"/>
	<polyline class="st2" points="2552.05,1407.31 2221.03,1407.31 2552.05,1805.34 	"/>
	<g>
		<path class="st3" d="M1510.6,2868.77c-161.02,0-317.28-31.56-464.46-93.82c-142.09-60.1-269.68-146.11-379.21-255.65
			c-109.53-109.53-195.55-237.12-255.65-379.21c-62.25-147.18-93.82-303.45-93.82-464.46h260.97c0,514,418.17,932.16,932.16,932.16
			c279.35,0,508.19-56.73,661.78-164.05c163.08-113.95,244.59-282.02,249.2-513.81l260.92,5.19
			c-3.17,159.14-36.56,302.09-99.26,424.87c-60.61,118.69-148.55,218.84-261.38,297.68c-103.47,72.3-228.38,126.85-371.27,162.13
			C1819.03,2852.29,1670.99,2868.77,1510.6,2868.77z"/>
	</g>
	<polyline class="st3" points="447.95,1696.01 116.93,1696.01 447.95,1297.98 	"/>
	<polyline class="st3" points="447.95,1696.01 778.97,1696.01 447.95,1297.98 	"/>
</g>
</svg>
