<?xml version="1.0" encoding="utf-8"?>
<!-- Generator: Adobe Illustrator 28.0.0, SVG Export Plug-In . SVG Version: 6.00 Build 0)  -->
<svg version="1.1" id="Layer_1" xmlns="http://www.w3.org/2000/svg" xmlns:xlink="http://www.w3.org/1999/xlink" x="0px" y="0px"
	 viewBox="0 0 3000 3000" style="enable-background:new 0 0 3000 3000;" xml:space="preserve">
<style type="text/css">
	.st0{fill:#C1272D;}
	.st1{fill:#45793D;}
	.st2{fill:#225D36;}
	.st3{fill:#4A8536;}
</style>
<g>
	<path class="st0" d="M1640.5,1755.2c-1.7-26.9-3.4-53.8-5.2-80.8c1.3-41.6,12.7-79.6,34-114.2c6.5-16,14.5-30.9,24.2-44.8
		c-26.3-35.6-44-75.4-53.1-119.4l-5.2-80.8c1.1-35.2,9.5-67.9,25-98.1c-80.7-115.4-214.5-190.8-366-190.8
		c-115.6,0-221,44-300.2,116.1c14.8-1.2,29.9-1,45.3,0.7c54.3,4,104,21.2,149.1,51.7c19.2,17.1,38.4,34.2,57.6,51.3
		c34.7,40.2,57.4,86.2,68.1,138.2l5.2,80.8c-1.3,41.6-12.7,79.6-34,114.2c-11.7,28.9-28.6,54.2-50.6,76.1c3,9.7,5.6,19.6,7.7,29.8
		l5.2,80.8c-1.3,41.6-12.7,79.6-34,114.2c-14.8,36.5-37.8,67.3-69,92.5c-24.9,23.3-53,40.2-84.3,50.6
		c71.3,86.4,155.6,144.9,244.6,144.9c149.4,0,277.9-165,355.9-349.9C1651.8,1798.2,1645.1,1777.2,1640.5,1755.2z"/>
	<path class="st0" d="M1915.3,1996.5c-54.3-4-104-21.2-149.1-51.7c-19.2-17.1-38.4-34.2-57.6-51.3c-34.7-40.2-57.4-86.2-68.1-138.2
		c-1.7-26.9-3.4-53.8-5.2-80.8c1.3-41.6,12.7-79.6,34-114.2c6.5-16,14.5-30.9,24.2-44.8c-26.3-35.6-44-75.4-53.1-119.4l-5.2-80.8
		c1.3-41.6,12.7-79.6,34-114.2c14.8-36.5,37.8-67.3,69-92.5c21.4-20.1,45.2-35.3,71.4-45.8c-50.5-19.8-105.4-30.7-162.9-30.7
		c-167.2,0-312.9,91.9-389.3,228c28.3,36.8,47.2,78.2,56.7,124.2l5.2,80.8c-1.3,41.6-12.7,79.6-34,114.2
		c-11.7,28.9-28.6,54.2-50.6,76.1c3,9.7,5.6,19.6,7.7,29.8l1.8,27.5c74.1,224.1,234,461.1,413.1,461.1
		c99.6,0,189.9-73.3,262.1-176.9C1918,1996.8,1916.6,1996.6,1915.3,1996.5z"/>
	<path class="st1" d="M1488.7,1037.1c-25.4,15.5-84.5-35.2-132.1-113.2s-50.6-187.5-41.7-171.2c15.7,28.9,86.2,37.1,133.7,115.1
		S1514.1,1021.6,1488.7,1037.1z"/>
	<g>
		<path class="st2" d="M2682.5,1385.7h-261c0-514-380.7-932.2-894.7-932.2c-279.3,0-545.7,56.7-699.3,164
			c-163.1,114-244.6,282-249.2,513.8l-260.9-5.2c3.2-159.1,36.6-302.1,99.3-424.9c60.6-118.7,148.5-218.8,261.4-297.7
			c103.5-72.3,228.4-126.9,371.3-162.1c131.6-32.5,317.1-49,477.5-49c161,0,279.8,31.6,427,93.8c142.1,60.1,269.7,146.1,379.2,255.6
			c109.5,109.5,195.6,237.1,255.6,379.2C2651,1068.4,2682.5,1224.7,2682.5,1385.7z"/>
	</g>
	<polyline class="st2" points="2552.1,1365.3 2883.1,1365.3 2552.1,1763.3 	"/>
	<polyline class="st2" points="2552.1,1365.3 2221,1365.3 2552.1,1763.3 	"/>
	<g>
		<path class="st3" d="M1510.6,2826.8c-161,0-317.3-31.6-464.5-93.8c-142.1-60.1-269.7-146.1-379.2-255.6
			c-109.5-109.5-195.5-237.1-255.6-379.2c-62.2-147.2-93.8-303.4-93.8-464.5h261c0,514,418.2,932.2,932.2,932.2
			c279.3,0,508.2-56.7,661.8-164.1c163.1-113.9,244.6-282,249.2-513.8l260.9,5.2c-3.2,159.1-36.6,302.1-99.3,424.9
			c-60.6,118.7-148.6,218.8-261.4,297.7c-103.5,72.3-228.4,126.9-371.3,162.1C1819,2810.3,1671,2826.8,1510.6,2826.8z"/>
	</g>
	<polyline class="st3" points="448,1654 116.9,1654 448,1256 	"/>
	<polyline class="st3" points="448,1654 779,1654 448,1256 	"/>
</g>
</svg>
