<?xml version="1.0" encoding="utf-8"?>
<!-- Generator: Adobe Illustrator 28.0.0, SVG Export Plug-In . SVG Version: 6.00 Build 0)  -->
<svg version="1.1" id="Layer_1" xmlns="http://www.w3.org/2000/svg" xmlns:xlink="http://www.w3.org/1999/xlink" x="0px" y="0px"
	 viewBox="0 0 3000 3000" style="enable-background:new 0 0 3000 3000;" xml:space="preserve">
<style type="text/css">
	.st0{fill:#0B0B0A;}
	.st1{fill:#45793D;}
	.st2{fill:#225D36;}
	.st3{fill:#4A8536;}
	.st4{fill:url(#SVGID_1_);}
</style>
<g id="Layer_2_00000062897541403969117050000005176090578112648340_">
	<g>
		<path class="st0" d="M567.5,983.8H437.9c-4.6,0-8.4-3.8-8.4-8.4V785.1c0-40.4,32.8-73.2,73.2-73.2l0,0c40.4,0,73.2,32.8,73.2,73.2
			v190.3C575.9,980,572.1,983.8,567.5,983.8z"/>
		<path class="st1" d="M720.6,1646.7h-75.8c-152.4,0-276-123.6-276-276v-304.8c0-29.9,24.3-54.2,54.2-54.2h519.4
			c29.9,0,54.2,24.3,54.2,54.2v304.8C996.6,1523.1,873,1646.7,720.6,1646.7z"/>
		<path class="st1" d="M675.3,1789.7h-3.7c-57.5,0-104-46.6-104-104v-9.1c0-7.5,6.1-13.6,13.5-13.6h184.6c7.5,0,13.5,6.1,13.5,13.6
			v9.1C779.3,1743.2,732.7,1789.7,675.3,1789.7z"/>
		<path class="st0" d="M923,983.8H793.4c-4.6,0-8.4-3.8-8.4-8.4V785.1c0-40.4,32.8-73.2,73.2-73.2l0,0c40.4,0,73.2,32.8,73.2,73.2
			v190.3C931.4,980,927.6,983.8,923,983.8z"/>
		<g>
			<path class="st1" d="M1281,2629.2c-105.2-20.5-205.3-62.3-294.1-122.6c-229.1-155.8-363.4-399.4-375.7-665.5
				c-1-22.1,16.7-40.5,38.7-40.5h44.7c20.6,0,37.4,16.4,38.5,37.1c19.3,381.1,333.4,685.3,716.7,685.3
				c395.7,0,717.6-324.1,717.6-722.4h121.8c0,225.7-87.3,437.9-245.9,597.5C1845.4,2597.3,1566.2,2684.8,1281,2629.2z"/>
		</g>
		<path class="st1" d="M2235.5,1144.9c-5-48.4-4.1-38.8,0.5,5.6C2235.9,1148.6,2235.7,1146.7,2235.5,1144.9z"/>
		<path class="st2" d="M2203.1,659.9c-1.2,1.7-2.6,3.3-4.2,4.7c-62.8,74.3-542.4,659.9-364.5,981.7
			c190.2,344,383.9,124.9,383.9,124.9L2205.7,663C2204.8,662,2203.9,661,2203.1,659.9z"/>
		<path class="st3" d="M2206.1,663.4c-1-1-1.9-1.9-2.7-3c-0.1-0.1-0.2-0.2-0.3-0.3c-1.1,1.5-2.4,2.9-3.8,4.2l16.1,1106
			c0,0,199.2,214,380.5-134.8C2765.8,1308.4,2269.3,734.4,2206.1,663.4z"/>
		
			<linearGradient id="SVGID_1_" gradientUnits="userSpaceOnUse" x1="2065.1086" y1="1231.2417" x2="2401.8086" y2="1814.4237" gradientTransform="matrix(1 0 0 -1 0 3002)">
			<stop  offset="0" style="stop-color:#45793D"/>
			<stop  offset="0.1471" style="stop-color:#41733A"/>
			<stop  offset="0.3527" style="stop-color:#376031"/>
			<stop  offset="0.5927" style="stop-color:#264322"/>
			<stop  offset="0.8567" style="stop-color:#0F190D"/>
			<stop  offset="1" style="stop-color:#000000"/>
		</linearGradient>
		<polyline class="st4" points="2169,1830.7 2207.3,1075.3 2289.1,1831.8 		"/>
	</g>
</g>
</svg>
