<?xml version="1.0" encoding="utf-8"?>
<!-- Generator: Adobe Illustrator 27.8.1, SVG Export Plug-In . SVG Version: 6.00 Build 0)  -->
<svg version="1.1" id="Layer_1" xmlns="http://www.w3.org/2000/svg" xmlns:xlink="http://www.w3.org/1999/xlink" x="0px" y="0px"
	 viewBox="0 0 3000 3000" style="enable-background:new 0 0 3000 3000;" xml:space="preserve">
<style type="text/css">
	.st0{fill:#0B0B0A;}
	.st1{fill:#45793D;}
	.st2{fill:#225D36;}
	.st3{fill:#4A8536;}
	.st4{fill:url(#SVGID_1_);}
</style>
<g id="Layer_2_00000062897541403969117050000005176090578112648340_">
	<g>
		<path class="st0" d="M567.5,1058.76H437.87c-4.62,0-8.37-3.75-8.37-8.37V860.11c0-40.43,32.78-73.18,73.18-73.18l0,0
			c40.43,0,73.18,32.78,73.18,73.18v190.29C575.87,1055.02,572.12,1058.76,567.5,1058.76z"/>
		<path class="st1" d="M720.64,1721.66h-75.8c-152.42,0-275.99-123.57-275.99-275.99V1140.9c0-29.94,24.26-54.2,54.2-54.2h519.41
			c29.94,0,54.2,24.26,54.2,54.2v304.77C996.62,1598.09,873.05,1721.66,720.64,1721.66z"/>
		<path class="st1" d="M675.27,1864.71h-3.68c-57.45,0-103.99-46.55-103.99-103.99v-9.08c0-7.46,6.06-13.55,13.55-13.55h184.61
			c7.46,0,13.55,6.06,13.55,13.55v9.08C779.27,1818.16,732.69,1864.71,675.27,1864.71z"/>
		<path class="st0" d="M923.01,1058.76H793.38c-4.62,0-8.37-3.75-8.37-8.37V860.11c0-40.43,32.78-73.18,73.18-73.18l0,0
			c40.43,0,73.18,32.78,73.18,73.18v190.29C931.37,1055.02,927.63,1058.76,923.01,1058.76z"/>
		<g>
			<path class="st1" d="M1281.04,2704.19c-105.15-20.51-205.34-62.28-294.13-122.63c-229.12-155.76-363.37-399.43-375.74-665.49
				c-1.03-22.07,16.67-40.46,38.65-40.46h44.71c20.64,0,37.43,16.39,38.46,37.12c19.26,381.14,333.37,685.28,716.69,685.28
				c395.72,0,717.63-324.07,717.63-722.4h121.82c0,225.72-87.32,437.93-245.86,597.52
				C1845.41,2672.32,1566.17,2759.8,1281.04,2704.19z"/>
		</g>
		<path class="st1" d="M2235.47,1219.89c-5.03-48.45-4.06-38.81,0.53,5.62C2235.85,1223.64,2235.69,1221.73,2235.47,1219.89z"/>
		<path class="st2" d="M2203.1,734.88c-1.25,1.65-2.59,3.28-4.18,4.68c-62.75,74.34-542.36,659.93-364.46,981.72
			c190.22,343.98,383.85,124.91,383.85,124.91L2205.7,738C2204.75,737.01,2203.88,735.98,2203.1,734.88z"/>
		<path class="st3" d="M2206.12,738.38c-1-0.97-1.94-1.94-2.72-3.03c-0.09-0.09-0.19-0.22-0.28-0.31c-1.12,1.5-2.37,2.87-3.78,4.15
			l16.14,1105.98c0,0,199.25,213.98,380.48-134.84C2765.75,1383.45,2269.28,809.38,2206.12,738.38z"/>
		
			<linearGradient id="SVGID_1_" gradientUnits="userSpaceOnUse" x1="2065.1101" y1="1843.756" x2="2401.8101" y2="1260.574" gradientTransform="matrix(1 0 0 1 0 2)">
			<stop  offset="0" style="stop-color:#45793D"/>
			<stop  offset="0.1471" style="stop-color:#41733A"/>
			<stop  offset="0.3527" style="stop-color:#376031"/>
			<stop  offset="0.5927" style="stop-color:#264322"/>
			<stop  offset="0.8567" style="stop-color:#0F190D"/>
			<stop  offset="1" style="stop-color:#000000"/>
		</linearGradient>
		<polyline class="st4" points="2169,1905.74 2207.34,1150.3 2289.14,1906.83 		"/>
	</g>
</g>
</svg>
