<?xml version="1.0" encoding="utf-8"?>
<!-- Generator: Adobe Illustrator 27.8.1, SVG Export Plug-In . SVG Version: 6.00 Build 0)  -->
<svg version="1.1" xmlns="http://www.w3.org/2000/svg" xmlns:xlink="http://www.w3.org/1999/xlink" x="0px" y="0px"
	 viewBox="0 0 1920 1080" style="enable-background:new 0 0 1920 1080;" xml:space="preserve">
<style type="text/css">
	.st0{fill:#0B0B0A;}
	.st1{fill:#45793D;}
	.st2{fill:#225D36;}
	.st3{fill:#4A8536;}
	.st4{fill:url(#SVGID_1_);}
</style>
<g id="Layer_1">
</g>
<g id="Layer_2">
	<g>
		<path class="st0" d="M677.55,356.36h-41.52c-1.48,0-2.68-1.2-2.68-2.68v-60.95c0-12.95,10.5-23.44,23.44-23.44h0
			c12.95,0,23.44,10.5,23.44,23.44v60.95C680.23,355.16,679.03,356.36,677.55,356.36z"/>
		<path class="st1" d="M726.6,568.69h-24.28c-48.82,0-88.4-39.58-88.4-88.4v-97.62c0-9.59,7.77-17.36,17.36-17.36h166.37
			c9.59,0,17.36,7.77,17.36,17.36v97.62C815,529.11,775.42,568.69,726.6,568.69z"/>
		<path class="st1" d="M712.07,614.51h-1.18c-18.4,0-33.31-14.91-33.31-33.31v-2.91c0-2.39,1.94-4.34,4.34-4.34h59.13
			c2.39,0,4.34,1.94,4.34,4.34v2.91C745.38,599.6,730.46,614.51,712.07,614.51z"/>
		<path class="st0" d="M791.42,356.36H749.9c-1.48,0-2.68-1.2-2.68-2.68v-60.95c0-12.95,10.5-23.44,23.44-23.44h0
			c12.95,0,23.44,10.5,23.44,23.44v60.95C794.1,355.16,792.9,356.36,791.42,356.36z"/>
		<g>
			<path class="st1" d="M906.1,883.4c-33.68-6.57-65.77-19.95-94.21-39.28C738.5,794.23,695.5,716.18,691.54,630.96
				c-0.33-7.07,5.34-12.96,12.38-12.96h14.32c6.61,0,11.99,5.25,12.32,11.89c6.17,122.08,106.78,219.5,229.56,219.5
				c126.75,0,229.86-103.8,229.86-231.39H1229c0,72.3-27.97,140.27-78.75,191.39C1086.87,873.19,997.43,901.21,906.1,883.4z"/>
		</g>
		<path class="st1" d="M1211.81,407.97c-1.61-15.52-1.3-12.43,0.17,1.8C1211.93,409.17,1211.88,408.56,1211.81,407.97z"/>
		<path class="st2" d="M1201.44,252.62c-0.4,0.53-0.83,1.05-1.34,1.5c-20.1,23.81-173.72,211.38-116.74,314.45
			c60.93,110.18,122.95,40.01,122.95,40.01l-4.04-354.96C1201.97,253.3,1201.69,252.97,1201.44,252.62z"/>
		<path class="st3" d="M1202.41,253.74c-0.32-0.31-0.62-0.62-0.87-0.97c-0.03-0.03-0.06-0.07-0.09-0.1
			c-0.36,0.48-0.76,0.92-1.21,1.33l5.17,354.25c0,0,63.82,68.54,121.87-43.19C1381.66,460.36,1222.64,276.48,1202.41,253.74z"/>
		<linearGradient id="SVGID_1_" gradientUnits="userSpaceOnUse" x1="1157.2439" y1="608.4408" x2="1265.0903" y2="421.6452">
			<stop  offset="0" style="stop-color:#45793D"/>
			<stop  offset="0.1471" style="stop-color:#41733A"/>
			<stop  offset="0.3527" style="stop-color:#376031"/>
			<stop  offset="0.5927" style="stop-color:#264322"/>
			<stop  offset="0.8567" style="stop-color:#0F190D"/>
			<stop  offset="1" style="stop-color:#000000"/>
		</linearGradient>
		<polyline class="st4" points="1190.52,627.65 1202.8,385.68 1229,628 		"/>
	</g>
</g>
</svg>
