<?xml version="1.0" encoding="utf-8"?>
<!-- Generator: Adobe Illustrator 27.8.1, SVG Export Plug-In . SVG Version: 6.00 Build 0)  -->
<svg version="1.1" id="Layer_1" xmlns="http://www.w3.org/2000/svg" xmlns:xlink="http://www.w3.org/1999/xlink" x="0px" y="0px"
	 viewBox="0 0 375 100" style="enable-background:new 0 0 375 100;" xml:space="preserve">
<style type="text/css">
	.st0{fill:#9CCE73;}
	.st1{fill:#010101;}
	.st2{fill:#FFFFFF;}
</style>
<g>
	
		<rect x="188.92" y="6.27" transform="matrix(-0.9981 -0.0613 0.0613 -0.9981 525.5643 44.5894)" class="st0" width="149.09" height="15.94"/>
	<path class="st0" d="M189.89,1.73c-0.01,0-0.03,0-0.04,0c-0.07,0-0.12-0.01-0.18-0.03c0,0-0.01,0-0.01,0c-0.01,0-0.02,0-0.03,0
		c-0.01,0-0.02,0-0.03,0c-0.01,0-0.03,0-0.04,0c-0.02,0-0.04,0-0.06-0.01c0,0-0.01,0-0.01,0h-0.05c-0.02,0-0.03,0-0.05-0.01
		c-0.06,0.01-0.13,0.01-0.19,0h-0.05c-0.02,0-0.04-0.01-0.06-0.01c-0.04,0.01-0.08,0.02-0.12,0.02c-0.04,0-0.08-0.01-0.12-0.02
		L43.35,10.6c-0.29,0.06-0.57,0.13-0.87,0.14c-0.29,0.01-0.58,0.04-0.87,0.05c-0.05,0-0.1,0.01-0.16,0.01
		c-0.19,0.11-0.39,0.14-0.63,0.15c-0.01,0-0.03,0-0.04,0c-0.08,0.01-0.16,0.02-0.23,0.06c-0.11,0.07-0.23,0.09-0.33,0.06l0.97,15.88
		l149.67-9.19L189.89,1.73z"/>
	<g>
		<path class="st1" d="M328.98,98.33H41.76C19.47,98.33,1.4,80.26,1.4,57.97v0c0-22.29,18.07-40.36,40.36-40.36h287.22
			c22.29,0,40.36,18.07,40.36,40.36v0C369.34,80.26,351.27,98.33,328.98,98.33z"/>
		<path class="st0" d="M333.24,10.68H46.02c-1.89,0-3.75,0.13-5.57,0.38c-0.06,0.02-0.11,0.03-0.17,0.02
			C20.71,13.87,5.66,30.69,5.66,51.04v0c0,22.29,18.07,40.36,40.36,40.36h287.22c22.29,0,40.36-18.07,40.36-40.36v0
			C373.6,28.75,355.53,10.68,333.24,10.68z"/>
		<g>
			<g>
				<g>
					<g>
						<path d="M39.95,74.05c-0.09-0.68-0.19-1.67-0.3-2.97c-0.11-1.3-0.24-2.79-0.39-4.47c-0.15-1.68-0.29-3.45-0.43-5.31
							s-0.28-3.69-0.42-5.51s-0.27-3.51-0.38-5.07s-0.21-2.9-0.29-4.02c-0.08-1.11-0.14-1.88-0.17-2.29
							c0.65-0.07,1.48-0.16,2.48-0.24s2.06-0.17,3.18-0.23c1.12-0.07,2.19-0.1,3.22-0.1c2.77,0,5.13,0.29,7.05,0.86
							c1.93,0.57,3.49,1.47,4.68,2.69c1.19,1.22,2.06,2.81,2.6,4.75c0.54,1.94,0.81,4.28,0.81,7.01c0,3.13-0.43,5.68-1.28,7.63
							s-2.16,3.46-3.93,4.52c-1.77,1.05-4.01,1.77-6.73,2.16C46.94,73.83,43.7,74.03,39.95,74.05z M47.45,65.75
							c1.54-0.03,2.75-0.28,3.63-0.76c0.88-0.47,1.49-1.15,1.85-2.03c0.36-0.88,0.53-1.94,0.53-3.2c0-1.47-0.18-2.89-0.53-4.27
							s-0.94-2.51-1.74-3.41c-0.8-0.89-1.88-1.33-3.25-1.33c-0.25,0-0.52,0-0.8,0.01c-0.28,0.01-0.52,0.02-0.71,0.03
							c0.1,1.42,0.21,3.02,0.33,4.77c0.12,1.76,0.24,3.52,0.36,5.3C47.23,62.64,47.34,64.26,47.45,65.75z"/>
						<path d="M81.39,73.63c-1.41-0.09-2.81-0.17-4.2-0.26S74.4,73.21,73,73.14c-1.28-0.06-2.56-0.13-3.86-0.2
							c-1.3-0.07-2.59-0.15-3.88-0.22c-0.09-2.57-0.16-5.03-0.2-7.4c-0.04-2.37-0.07-4.59-0.07-6.67c0-3.17,0.03-5.9,0.09-8.18
							c0.06-2.28,0.12-3.94,0.18-5c2.85-0.55,5.49-0.95,7.93-1.19c2.44-0.25,4.48-0.4,6.11-0.46c1.63-0.06,2.65-0.09,3.05-0.09
							c0,1.07-0.03,2.13-0.1,3.17c-0.07,1.05-0.15,2.15-0.26,3.3l-8.9,0.73c-0.03,0.13-0.05,0.37-0.06,0.7
							c-0.01,0.33-0.02,0.7-0.02,1.09C73,53.13,73,53.5,73,53.83s0,0.58,0,0.72c0.36,0,0.78,0,1.28-0.01
							c0.5-0.01,1.04-0.02,1.62-0.03c0.59-0.01,1.17-0.03,1.76-0.03c0.59-0.01,1.14-0.01,1.67-0.02c0.53-0.01,0.98-0.02,1.37-0.03
							l-0.11,6.83c-0.19-0.01-0.55-0.03-1.08-0.06c-0.53-0.02-1.13-0.05-1.81-0.08c-0.68-0.03-1.36-0.06-2.04-0.09
							c-0.68-0.03-1.27-0.05-1.78-0.07s-0.86-0.02-1.06-0.02c-0.02,0.13-0.03,0.34-0.03,0.61c-0.01,0.27-0.02,0.58-0.02,0.91
							c-0.01,0.33-0.01,0.67-0.02,1.01c-0.01,0.34-0.02,0.66-0.02,0.95c-0.01,0.29-0.01,0.52-0.01,0.7
							c0.16-0.01,0.67-0.02,1.52-0.02s1.74,0,2.66,0c0.68,0,1.35,0.01,2.01,0.03c0.66,0.02,1.28,0.05,1.85,0.09
							c0.57,0.04,1.05,0.08,1.44,0.12c-0.01,0.67-0.05,1.43-0.11,2.29c-0.06,0.86-0.13,1.71-0.21,2.56
							c-0.08,0.85-0.17,1.58-0.26,2.2C81.52,73.03,81.44,73.43,81.39,73.63z"/>
						<path d="M100.3,74.03c0-0.93-0.02-2.12-0.06-3.55c-0.04-1.43-0.09-3.03-0.14-4.78c-0.06-1.76-0.13-3.59-0.21-5.5
							s-0.16-3.81-0.24-5.71c-0.08-1.9-0.17-3.71-0.26-5.42c-0.09-1.71-0.17-3.25-0.25-4.6c0.58-0.1,1.25-0.18,2-0.23
							c0.76-0.05,1.46-0.08,2.11-0.08c0.8,0,1.55,0.03,2.24,0.09c0.69,0.06,1.23,0.13,1.61,0.2c0,0.39,0.01,1.01,0.04,1.86
							c0.03,0.85,0.06,1.83,0.09,2.92c0.03,1.09,0.07,2.2,0.11,3.32c0.04,1.12,0.1,2.14,0.16,3.06c0.52-0.49,1.08-1.13,1.67-1.92
							c0.59-0.79,1.21-1.7,1.86-2.73c0.65-1.02,1.29-2.13,1.95-3.32c0.65-1.19,1.3-2.41,1.94-3.67c1.32,1.01,2.61,1.89,3.88,2.64
							s2.18,1.27,2.73,1.55c-0.16,0.42-0.49,1.02-0.99,1.83s-1.09,1.69-1.79,2.67s-1.44,1.94-2.24,2.88
							c-0.79,0.94-1.58,1.76-2.37,2.46c0.71,0.83,1.43,1.73,2.15,2.68c0.72,0.96,1.41,1.92,2.06,2.88c0.65,0.96,1.25,1.87,1.79,2.73
							c0.54,0.85,0.99,1.61,1.36,2.27c0.36,0.66,0.62,1.15,0.77,1.48c-0.43,0.28-1.06,0.65-1.88,1.09c-0.82,0.45-1.7,0.88-2.64,1.3
							c-0.93,0.42-1.79,0.75-2.56,0.99c-0.16-0.43-0.42-0.99-0.76-1.68c-0.34-0.69-0.73-1.45-1.18-2.27
							c-0.45-0.82-0.91-1.65-1.39-2.49c-0.48-0.84-0.94-1.62-1.38-2.35c-0.44-0.73-0.84-1.34-1.21-1.83
							c-0.24,0.19-0.46,0.35-0.66,0.48c-0.2,0.13-0.4,0.25-0.61,0.37c0.06,0.82,0.13,1.73,0.2,2.74s0.14,1.99,0.2,2.94
							c0.06,0.95,0.11,1.77,0.16,2.47s0.07,1.16,0.07,1.4c-0.3,0.02-0.89,0.06-1.78,0.14c-0.89,0.08-1.92,0.19-3.08,0.31
							C102.6,73.76,101.44,73.89,100.3,74.03z"/>
						<path d="M131.59,73.65c-0.39,0-0.94-0.01-1.67-0.03c-0.73-0.02-1.52-0.05-2.37-0.08c-0.85-0.03-1.68-0.06-2.47-0.08
							c-0.79-0.02-1.46-0.05-1.99-0.08c0.16-0.96,0.39-2.17,0.69-3.6c0.3-1.44,0.64-3.02,1.02-4.75s0.8-3.53,1.24-5.4
							c0.44-1.87,0.88-3.73,1.34-5.58c0.45-1.85,0.9-3.61,1.33-5.29s0.85-3.18,1.24-4.52c1.69-0.21,3.29-0.37,4.81-0.5
							c1.51-0.13,2.97-0.19,4.38-0.19c0.86,0,1.71,0.03,2.54,0.08c0.83,0.05,1.67,0.13,2.52,0.23c0.3,1.31,0.59,2.78,0.89,4.43
							c0.3,1.65,0.6,3.6,0.91,5.86c0.31,2.26,0.63,4.94,0.95,8.04c0.32,3.1,0.64,6.76,0.97,10.97c-0.55,0.07-1.34,0.15-2.36,0.22
							c-1.02,0.07-2.09,0.13-3.2,0.18c-1.11,0.04-2.1,0.07-2.96,0.07c-0.03-0.43-0.06-0.89-0.08-1.39c-0.02-0.5-0.04-1.02-0.07-1.57
							c-0.02-0.55-0.04-1.11-0.06-1.67c-0.02-0.56-0.03-1.12-0.03-1.68s-0.01-1.09-0.01-1.59c-0.47,0.01-0.96,0.03-1.47,0.06
							s-1,0.04-1.49,0.07c-0.49,0.02-0.95,0.05-1.37,0.09c-0.42,0.04-0.8,0.08-1.12,0.12c-0.33,0.04-0.57,0.08-0.73,0.11
							c-0.21,0.92-0.4,1.85-0.58,2.78c-0.18,0.93-0.33,1.81-0.47,2.62C131.77,72.4,131.66,73.08,131.59,73.65z M133.97,59.23
							c0.27-0.04,0.72-0.1,1.37-0.16c0.65-0.06,1.32-0.11,2.01-0.14s1.23-0.06,1.6-0.06c-0.02-0.27-0.04-0.81-0.07-1.64
							s-0.07-1.72-0.11-2.7s-0.09-1.87-0.12-2.66c-0.04-0.79-0.06-1.31-0.08-1.55c-0.21,0-0.53,0.02-0.96,0.04
							c-0.43,0.03-0.84,0.06-1.23,0.08c-0.39,0.02-0.67,0.05-0.83,0.08c-0.09,0.43-0.21,1.03-0.36,1.8s-0.3,1.59-0.46,2.47
							c-0.16,0.88-0.3,1.71-0.45,2.49S134.05,58.72,133.97,59.23z"/>
						<path d="M161.66,73.69c-1.02,0-2.09-0.11-3.2-0.32s-2.21-0.56-3.29-1.02c-1.08-0.47-2.1-1.08-3.04-1.84
							c-0.94-0.76-1.75-1.68-2.41-2.76c0.09-0.16,0.35-0.45,0.78-0.85s0.93-0.85,1.5-1.34c0.57-0.49,1.13-0.95,1.69-1.37
							c0.56-0.42,1-0.72,1.35-0.9c0.55,0.59,1.09,1.15,1.64,1.66s1.1,0.96,1.68,1.35c0.58,0.39,1.18,0.69,1.81,0.9
							c0.63,0.22,1.29,0.32,1.99,0.32c0.74,0,1.33-0.14,1.76-0.41c0.43-0.27,0.74-0.63,0.92-1.06s0.28-0.88,0.28-1.34
							c0-0.34-0.08-0.68-0.24-1.02c-0.16-0.34-0.43-0.68-0.79-1.01c-0.36-0.33-0.83-0.67-1.41-1.01c-0.58-0.34-1.28-0.67-2.11-0.98
							c-1.78-0.74-3.41-1.5-4.9-2.28c-1.48-0.78-2.67-1.72-3.55-2.82c-0.88-1.1-1.32-2.48-1.32-4.14c0-1.78,0.5-3.27,1.5-4.48
							c1-1.21,2.31-2.13,3.94-2.75c1.62-0.62,3.37-0.94,5.24-0.94c1.32,0,2.62,0.13,3.91,0.4s2.51,0.7,3.67,1.3
							c1.16,0.6,2.21,1.42,3.13,2.46c-0.24,0.36-0.63,0.83-1.17,1.44c-0.54,0.6-1.11,1.21-1.71,1.81c-0.6,0.61-1.12,1.1-1.55,1.47
							c-0.65-0.62-1.34-1.15-2.06-1.59s-1.44-0.77-2.16-1.01c-0.72-0.24-1.4-0.36-2.04-0.36c-0.77,0-1.45,0.16-2.03,0.47
							s-0.87,0.81-0.87,1.49c0,0.27,0.06,0.53,0.19,0.78c0.13,0.25,0.31,0.48,0.57,0.69s0.56,0.41,0.94,0.6
							c0.37,0.19,0.81,0.37,1.31,0.53c1.54,0.53,3,1.08,4.37,1.65c1.37,0.56,2.59,1.21,3.65,1.95c1.06,0.73,1.89,1.63,2.48,2.68
							c0.59,1.05,0.89,2.34,0.89,3.85c0,1.48-0.28,2.83-0.85,4.03c-0.56,1.2-1.36,2.23-2.38,3.08c-1.02,0.85-2.23,1.51-3.61,1.98
							C164.77,73.46,163.27,73.69,161.66,73.69z"/>
						<path d="M176.97,74.03c0-0.93-0.02-2.12-0.06-3.55c-0.04-1.43-0.09-3.03-0.14-4.78c-0.06-1.76-0.13-3.59-0.21-5.5
							s-0.16-3.81-0.24-5.71c-0.08-1.9-0.17-3.71-0.26-5.42c-0.09-1.71-0.17-3.25-0.25-4.6c0.58-0.1,1.25-0.18,2-0.23
							c0.76-0.05,1.46-0.08,2.11-0.08c0.8,0,1.55,0.03,2.24,0.09c0.69,0.06,1.23,0.13,1.61,0.2c0,0.39,0.01,1.01,0.04,1.86
							c0.03,0.85,0.06,1.83,0.09,2.92c0.03,1.09,0.07,2.2,0.11,3.32c0.04,1.12,0.1,2.14,0.16,3.06c0.52-0.49,1.08-1.13,1.67-1.92
							c0.59-0.79,1.21-1.7,1.86-2.73c0.65-1.02,1.29-2.13,1.95-3.32c0.65-1.19,1.3-2.41,1.94-3.67c1.32,1.01,2.61,1.89,3.88,2.64
							c1.27,0.75,2.18,1.27,2.73,1.55c-0.16,0.42-0.49,1.02-0.99,1.83c-0.5,0.8-1.1,1.69-1.79,2.67s-1.44,1.94-2.24,2.88
							c-0.79,0.94-1.58,1.76-2.37,2.46c0.71,0.83,1.43,1.73,2.15,2.68c0.72,0.96,1.41,1.92,2.06,2.88c0.65,0.96,1.25,1.87,1.79,2.73
							c0.54,0.85,0.99,1.61,1.36,2.27c0.36,0.66,0.62,1.15,0.77,1.48c-0.43,0.28-1.06,0.65-1.88,1.09c-0.82,0.45-1.7,0.88-2.64,1.3
							c-0.94,0.42-1.79,0.75-2.56,0.99c-0.16-0.43-0.42-0.99-0.76-1.68c-0.34-0.69-0.73-1.45-1.18-2.27
							c-0.45-0.82-0.91-1.65-1.39-2.49s-0.94-1.62-1.38-2.35c-0.44-0.73-0.84-1.34-1.21-1.83c-0.24,0.19-0.46,0.35-0.66,0.48
							c-0.2,0.13-0.4,0.25-0.61,0.37c0.06,0.82,0.13,1.73,0.2,2.74s0.14,1.99,0.2,2.94c0.06,0.95,0.11,1.77,0.16,2.47
							s0.07,1.16,0.07,1.4c-0.3,0.02-0.89,0.06-1.78,0.14c-0.89,0.08-1.92,0.19-3.08,0.31C179.26,73.76,178.11,73.89,176.97,74.03z"
							/>
						<path d="M208.26,73.65c-0.39,0-0.94-0.01-1.67-0.03c-0.73-0.02-1.52-0.05-2.37-0.08c-0.85-0.03-1.68-0.06-2.47-0.08
							c-0.79-0.02-1.46-0.05-1.99-0.08c0.16-0.96,0.39-2.17,0.69-3.6c0.3-1.44,0.64-3.02,1.02-4.75c0.39-1.73,0.8-3.53,1.23-5.4
							s0.88-3.73,1.34-5.58c0.45-1.85,0.9-3.61,1.33-5.29s0.85-3.18,1.24-4.52c1.69-0.21,3.29-0.37,4.81-0.5
							c1.51-0.13,2.97-0.19,4.38-0.19c0.86,0,1.71,0.03,2.54,0.08c0.83,0.05,1.67,0.13,2.51,0.23c0.3,1.31,0.59,2.78,0.89,4.43
							c0.3,1.65,0.6,3.6,0.91,5.86s0.63,4.94,0.95,8.04c0.32,3.1,0.64,6.76,0.97,10.97c-0.55,0.07-1.34,0.15-2.36,0.22
							s-2.09,0.13-3.21,0.18c-1.11,0.04-2.1,0.07-2.96,0.07c-0.03-0.43-0.06-0.89-0.08-1.39c-0.02-0.5-0.04-1.02-0.07-1.57
							s-0.04-1.11-0.06-1.67s-0.03-1.12-0.03-1.68s-0.01-1.09-0.01-1.59c-0.48,0.01-0.96,0.03-1.47,0.06c-0.5,0.02-1,0.04-1.49,0.07
							c-0.49,0.02-0.95,0.05-1.37,0.09c-0.42,0.04-0.8,0.08-1.12,0.12c-0.33,0.04-0.57,0.08-0.73,0.11
							c-0.21,0.92-0.4,1.85-0.58,2.78s-0.33,1.81-0.47,2.62C208.44,72.4,208.33,73.08,208.26,73.65z M210.64,59.23
							c0.27-0.04,0.72-0.1,1.37-0.16c0.65-0.06,1.32-0.11,2.01-0.14c0.7-0.04,1.23-0.06,1.6-0.06c-0.01-0.27-0.04-0.81-0.07-1.64
							c-0.03-0.82-0.07-1.72-0.11-2.7c-0.04-0.98-0.08-1.87-0.12-2.66c-0.04-0.79-0.06-1.31-0.08-1.55c-0.21,0-0.53,0.02-0.96,0.04
							c-0.43,0.03-0.84,0.06-1.24,0.08c-0.39,0.02-0.67,0.05-0.83,0.08c-0.09,0.43-0.21,1.03-0.36,1.8s-0.3,1.59-0.46,2.47
							c-0.16,0.88-0.3,1.71-0.45,2.49S210.71,58.72,210.64,59.23z"/>
						<path d="M236.72,73.47c-1.02,0-2.1-0.03-3.22-0.1s-2.15-0.14-3.09-0.22c-0.94-0.08-1.67-0.15-2.19-0.21
							c0-0.12,0-0.46,0.01-1.04c0.01-0.57,0.01-1.31,0.01-2.2s0-1.91,0.01-3.04c0.01-1.13,0.01-2.32,0.02-3.58
							c0.01-1.26,0.01-2.54,0.01-3.83c0-1.76-0.01-3.53-0.02-5.31c-0.02-1.77-0.04-3.43-0.08-4.96s-0.09-2.81-0.17-3.82
							c0.31,0,0.8,0.02,1.48,0.04c0.68,0.03,1.42,0.07,2.24,0.11c0.82,0.04,1.61,0.1,2.39,0.18c0.78,0.07,1.44,0.15,1.99,0.22
							c0.93,1.31,1.81,2.62,2.63,3.94c0.82,1.32,1.59,2.64,2.31,3.96s1.42,2.66,2.07,4.01c0.65,1.35,1.27,2.73,1.85,4.14
							l-0.87-16.18c0.47,0,1.07,0.02,1.79,0.07c0.72,0.04,1.47,0.1,2.25,0.17c0.78,0.07,1.49,0.15,2.14,0.25
							c0.65,0.1,1.13,0.19,1.46,0.28c0.06,0.56,0.11,1.2,0.17,1.9c0.05,0.71,0.09,1.46,0.12,2.27c0.03,0.81,0.06,1.65,0.09,2.51
							c0.03,0.87,0.05,1.75,0.06,2.64c0.01,0.89,0.01,1.77,0.01,2.63c0,1.66-0.02,3.31-0.06,4.95s-0.09,3.16-0.17,4.55
							c-0.07,1.4-0.16,2.57-0.25,3.54s-0.19,1.59-0.29,1.89c-0.45,0.01-0.92,0.03-1.44,0.04c-0.51,0.02-1.04,0.02-1.57,0.02
							c-0.8,0-1.58-0.02-2.33-0.06s-1.38-0.1-1.88-0.19c-0.12-0.22-0.32-0.6-0.6-1.15c-0.28-0.54-0.63-1.21-1.06-1.99
							c-0.42-0.79-0.89-1.66-1.4-2.63c-0.51-0.96-1.05-1.97-1.61-3.02c-0.56-1.05-1.13-2.09-1.7-3.15s-1.12-2.07-1.66-3.05
							c0.06,0.4,0.11,0.99,0.15,1.76c0.04,0.77,0.07,1.65,0.11,2.65c0.04,0.99,0.07,2.03,0.11,3.1c0.04,1.08,0.07,2.12,0.09,3.15
							c0.02,1.02,0.04,1.95,0.06,2.78C236.71,72.34,236.72,73,236.72,73.47z"/>
						<path d="M255.68,51.01c-0.07-0.36-0.14-0.87-0.21-1.55c-0.07-0.67-0.12-1.39-0.16-2.14s-0.07-1.42-0.09-2.01
							c-0.02-0.59-0.03-0.99-0.03-1.18c1.66-0.13,3.55-0.24,5.65-0.33c2.11-0.09,4.24-0.13,6.41-0.13c1.65,0,3.26,0.03,4.84,0.1
							c1.58,0.07,3.02,0.2,4.31,0.39c0.01,1.39-0.03,2.69-0.13,3.88c-0.1,1.19-0.23,2.08-0.38,2.66c-0.27,0-0.65,0-1.14-0.01
							c-0.49-0.01-1.03-0.01-1.62-0.02c-0.59-0.01-1.18-0.01-1.75-0.02c-0.57-0.01-1.07-0.02-1.48-0.03
							c0.03,0.55,0.07,1.35,0.11,2.39c0.04,1.05,0.1,2.24,0.17,3.58c0.07,1.34,0.14,2.75,0.21,4.22c0.07,1.47,0.14,2.9,0.21,4.31
							c0.07,1.4,0.13,2.68,0.19,3.84c0.06,1.16,0.11,2.1,0.16,2.84c0.04,0.73,0.07,1.16,0.07,1.28c-0.68,0.1-1.56,0.2-2.63,0.29
							c-1.07,0.09-2.13,0.16-3.18,0.2c-1.05,0.04-1.91,0.07-2.58,0.07c-0.04-0.86-0.09-1.89-0.13-3.08
							c-0.04-1.19-0.08-2.48-0.11-3.85c-0.03-1.37-0.06-2.78-0.09-4.23c-0.03-1.45-0.05-2.86-0.07-4.25
							c-0.01-1.39-0.02-2.67-0.02-3.86c0-0.68,0-1.33,0.01-1.94c0.01-0.61,0.02-1.16,0.03-1.65c-0.49,0.04-1,0.08-1.55,0.1
							c-0.54,0.02-1.09,0.04-1.66,0.07c-0.56,0.02-1.13,0.04-1.69,0.04C256.79,50.99,256.23,51,255.68,51.01z"/>
						<path d="M287.62,73.78c-0.67,0-1.45-0.01-2.34-0.02c-0.89-0.02-1.78-0.04-2.68-0.09c-0.9-0.04-1.72-0.11-2.46-0.2
							c-0.03-0.94-0.06-2.14-0.09-3.61c-0.03-1.47-0.06-3.05-0.08-4.74c-0.02-1.69-0.03-3.33-0.03-4.92c0-2.45,0.02-5.03,0.06-7.76
							c0.04-2.72,0.09-5.52,0.17-8.4c0.28-0.01,0.73-0.03,1.36-0.04c0.62-0.01,1.32-0.03,2.09-0.06c0.77-0.02,1.52-0.04,2.26-0.06
							c0.73-0.01,1.35-0.02,1.84-0.02c0.09,1.51,0.16,3.23,0.22,5.16c0.06,1.93,0.11,3.92,0.14,5.98s0.06,4.06,0.06,6.02
							c0,0.98-0.01,1.97-0.02,2.97c-0.01,1-0.03,1.98-0.04,2.94s-0.04,1.86-0.09,2.71c-0.04,0.85-0.1,1.64-0.16,2.35
							C287.76,72.71,287.69,73.31,287.62,73.78z"/>
						<path d="M301.35,73.47c-1.02,0-2.1-0.03-3.22-0.1s-2.15-0.14-3.09-0.22c-0.94-0.08-1.67-0.15-2.19-0.21
							c0-0.12,0-0.46,0.01-1.04c0.01-0.57,0.01-1.31,0.01-2.2s0-1.91,0.01-3.04c0.01-1.13,0.01-2.32,0.02-3.58
							c0.01-1.26,0.01-2.54,0.01-3.83c0-1.76-0.01-3.53-0.02-5.31c-0.02-1.77-0.04-3.43-0.08-4.96s-0.09-2.81-0.17-3.82
							c0.31,0,0.8,0.02,1.48,0.04c0.68,0.03,1.42,0.07,2.24,0.11c0.82,0.04,1.61,0.1,2.39,0.18c0.78,0.07,1.44,0.15,1.99,0.22
							c0.93,1.31,1.81,2.62,2.63,3.94c0.82,1.32,1.59,2.64,2.31,3.96s1.42,2.66,2.07,4.01c0.65,1.35,1.27,2.73,1.85,4.14
							l-0.87-16.18c0.47,0,1.07,0.02,1.79,0.07c0.72,0.04,1.47,0.1,2.25,0.17c0.78,0.07,1.49,0.15,2.14,0.25
							c0.65,0.1,1.13,0.19,1.46,0.28c0.06,0.56,0.11,1.2,0.17,1.9c0.05,0.71,0.09,1.46,0.12,2.27c0.03,0.81,0.06,1.65,0.09,2.51
							c0.03,0.87,0.05,1.75,0.06,2.64c0.01,0.89,0.01,1.77,0.01,2.63c0,1.66-0.02,3.31-0.06,4.95s-0.09,3.16-0.17,4.55
							c-0.07,1.4-0.16,2.57-0.25,3.54s-0.19,1.59-0.29,1.89c-0.45,0.01-0.92,0.03-1.44,0.04c-0.51,0.02-1.04,0.02-1.57,0.02
							c-0.8,0-1.58-0.02-2.33-0.06s-1.38-0.1-1.88-0.19c-0.12-0.22-0.32-0.6-0.6-1.15c-0.28-0.54-0.63-1.21-1.06-1.99
							c-0.42-0.79-0.89-1.66-1.4-2.63c-0.51-0.96-1.05-1.97-1.61-3.02c-0.56-1.05-1.13-2.09-1.7-3.15s-1.12-2.07-1.66-3.05
							c0.06,0.4,0.11,0.99,0.15,1.76c0.04,0.77,0.07,1.65,0.11,2.65c0.04,0.99,0.07,2.03,0.11,3.1c0.04,1.08,0.07,2.12,0.09,3.15
							c0.02,1.02,0.04,1.95,0.06,2.78C301.34,72.34,301.35,73,301.35,73.47z"/>
						<path d="M337.22,73.63c-1.41-0.09-2.81-0.17-4.2-0.26c-1.39-0.08-2.79-0.16-4.2-0.23c-1.28-0.06-2.56-0.13-3.86-0.2
							c-1.3-0.07-2.59-0.15-3.88-0.22c-0.09-2.57-0.16-5.03-0.2-7.4c-0.04-2.37-0.07-4.59-0.07-6.67c0-3.17,0.03-5.9,0.09-8.18
							c0.06-2.28,0.12-3.94,0.18-5c2.85-0.55,5.49-0.95,7.93-1.19c2.44-0.25,4.48-0.4,6.11-0.46c1.63-0.06,2.65-0.09,3.05-0.09
							c0,1.07-0.03,2.13-0.1,3.17c-0.07,1.05-0.15,2.15-0.26,3.3l-8.9,0.73c-0.03,0.13-0.05,0.37-0.06,0.7
							c-0.01,0.33-0.02,0.7-0.02,1.09c-0.01,0.39-0.01,0.76-0.01,1.09s0,0.58,0,0.72c0.36,0,0.78,0,1.28-0.01
							c0.5-0.01,1.04-0.02,1.62-0.03c0.59-0.01,1.17-0.03,1.76-0.03c0.59-0.01,1.14-0.01,1.67-0.02c0.53-0.01,0.98-0.02,1.37-0.03
							l-0.11,6.83c-0.19-0.01-0.55-0.03-1.08-0.06c-0.53-0.02-1.13-0.05-1.81-0.08c-0.68-0.03-1.36-0.06-2.04-0.09
							c-0.68-0.03-1.27-0.05-1.78-0.07c-0.51-0.01-0.87-0.02-1.06-0.02c-0.01,0.13-0.03,0.34-0.03,0.61
							c-0.01,0.27-0.01,0.58-0.02,0.91c-0.01,0.33-0.01,0.67-0.02,1.01c-0.01,0.34-0.01,0.66-0.02,0.95
							c-0.01,0.29-0.01,0.52-0.01,0.7c0.16-0.01,0.67-0.02,1.52-0.02s1.74,0,2.66,0c0.68,0,1.35,0.01,2.01,0.03s1.28,0.05,1.85,0.09
							s1.05,0.08,1.44,0.12c-0.01,0.67-0.05,1.43-0.11,2.29s-0.13,1.71-0.21,2.56c-0.08,0.85-0.17,1.58-0.26,2.2
							S337.28,73.43,337.22,73.63z"/>
					</g>
				</g>
				<path d="M338.1,82.72H38.06c-0.88,0-1.59-0.71-1.59-1.59v-0.87c0-0.88,0.71-1.59,1.59-1.59H338.1c0.88,0,1.59,0.71,1.59,1.59
					v0.87C339.69,82.01,338.98,82.72,338.1,82.72z"/>
				<path d="M338.1,37.39H38.06c-0.88,0-1.59-0.71-1.59-1.59v-0.87c0-0.88,0.71-1.59,1.59-1.59H338.1c0.88,0,1.59,0.71,1.59,1.59
					v0.87C339.69,36.68,338.98,37.39,338.1,37.39z"/>
				<path d="M335.38,35.58v-9.16c0-0.88,0.71-1.59,1.59-1.59h1.12c0.88,0,1.59,0.71,1.59,1.59v9.16c0,0.88-0.71,1.59-1.59,1.59
					h-1.12C336.1,37.18,335.38,36.46,335.38,35.58z"/>
				<path d="M36.46,35.53v-9.16c0-0.88,0.71-1.59,1.59-1.59h1.28c0.88,0,1.59,0.71,1.59,1.59v9.16c0,0.88-0.71,1.59-1.59,1.59h-1.28
					C37.18,37.12,36.46,36.41,36.46,35.53z"/>
				<path d="M189.34,15.85c-0.04,0.01-0.08,0.01-0.12,0.02c0,0,0,0,0,0c0,0-0.01,0-0.01,0c-0.01,0-0.01,0-0.02,0
					c-0.16,0.01-0.32,0-0.48-0.04c-0.11-0.03-0.23-0.07-0.34-0.09c-0.05,0-0.09-0.01-0.14-0.01c-0.01,0-0.01,0-0.02,0
					c-0.03,0-0.06,0.01-0.09,0.01c-0.06,0-0.11-0.01-0.16-0.03c-0.01,0-0.02,0-0.03,0c-0.07-0.01-0.12-0.05-0.18-0.09L38.22,24.76
					c-0.88,0.05-1.55,0.81-1.49,1.69l0.05,0.79c0.05,0.88,0.81,1.55,1.69,1.49l149.52-9.15c0.88-0.05,1.55-0.81,1.49-1.69
					L189.34,15.85C189.35,15.85,189.34,15.85,189.34,15.85z"/>
				<path d="M187.66,15.63c-0.02,0.07-0.06,0.14-0.11,0.19c-0.03,0.02-0.06,0.05-0.09,0.07c-0.07,0.04-0.15,0.06-0.24,0.06
					c-0.04-0.01-0.08-0.01-0.12-0.02c-0.06-0.01-0.11-0.04-0.16-0.08c-0.04-0.03-0.08-0.07-0.11-0.11
					c-0.03,0.01-0.06,0.02-0.08,0.03c-0.16,0.06-0.33,0.08-0.5,0.1c-0.01,0-0.03,0-0.04-0.01l-0.13,2.05
					c-0.05,0.88,0.62,1.64,1.49,1.69l149.52,9.15c0.88,0.05,1.64-0.62,1.69-1.49l0.05-0.79c0.05-0.88-0.62-1.64-1.49-1.69
					L187.66,15.63z"/>
			</g>
			<g>
				<g>
					<path class="st2" d="M41.55,71.48c-0.09-0.68-0.19-1.67-0.3-2.97c-0.11-1.3-0.24-2.79-0.39-4.47
						c-0.15-1.68-0.29-3.45-0.43-5.31s-0.28-3.69-0.42-5.51s-0.27-3.51-0.38-5.07s-0.21-2.9-0.29-4.02
						c-0.08-1.11-0.14-1.88-0.17-2.29c0.65-0.07,1.48-0.16,2.48-0.24s2.06-0.17,3.18-0.23c1.12-0.07,2.19-0.1,3.22-0.1
						c2.77,0,5.13,0.29,7.05,0.86c1.93,0.57,3.49,1.47,4.68,2.69c1.19,1.22,2.06,2.81,2.6,4.75c0.54,1.94,0.81,4.28,0.81,7.01
						c0,3.13-0.43,5.68-1.28,7.63s-2.16,3.46-3.93,4.52c-1.77,1.05-4.01,1.77-6.73,2.16C48.54,71.27,45.31,71.47,41.55,71.48z
						 M49.05,63.18c1.54-0.03,2.75-0.28,3.63-0.76c0.88-0.47,1.49-1.15,1.85-2.03c0.36-0.88,0.53-1.94,0.53-3.2
						c0-1.47-0.18-2.89-0.53-4.27s-0.94-2.51-1.74-3.41c-0.8-0.89-1.88-1.33-3.25-1.33c-0.25,0-0.52,0-0.8,0.01
						c-0.28,0.01-0.52,0.02-0.71,0.03c0.1,1.42,0.21,3.02,0.33,4.77c0.12,1.76,0.24,3.52,0.36,5.3
						C48.84,60.07,48.95,61.7,49.05,63.18z"/>
					<path class="st2" d="M82.99,71.06c-1.41-0.09-2.81-0.17-4.2-0.26s-2.79-0.16-4.19-0.23c-1.28-0.06-2.56-0.13-3.86-0.2
						c-1.3-0.07-2.59-0.15-3.88-0.22c-0.09-2.57-0.16-5.03-0.2-7.4c-0.04-2.37-0.07-4.59-0.07-6.67c0-3.17,0.03-5.9,0.09-8.18
						c0.06-2.28,0.12-3.94,0.18-5c2.85-0.55,5.49-0.95,7.93-1.19c2.44-0.25,4.48-0.4,6.11-0.46c1.63-0.06,2.65-0.09,3.05-0.09
						c0,1.07-0.03,2.13-0.1,3.17c-0.07,1.05-0.15,2.15-0.26,3.3l-8.9,0.73c-0.03,0.13-0.05,0.37-0.06,0.7
						c-0.01,0.33-0.02,0.7-0.02,1.09c-0.01,0.39-0.01,0.76-0.01,1.09s0,0.58,0,0.72c0.36,0,0.78,0,1.28-0.01
						c0.5-0.01,1.04-0.02,1.62-0.03c0.59-0.01,1.17-0.03,1.76-0.03c0.59-0.01,1.14-0.01,1.67-0.02c0.53-0.01,0.98-0.02,1.37-0.03
						l-0.11,6.83c-0.19-0.01-0.55-0.03-1.08-0.06c-0.53-0.02-1.13-0.05-1.81-0.08c-0.68-0.03-1.36-0.06-2.04-0.09
						c-0.68-0.03-1.27-0.05-1.78-0.07s-0.86-0.02-1.06-0.02c-0.02,0.13-0.03,0.34-0.03,0.61c-0.01,0.27-0.02,0.58-0.02,0.91
						c-0.01,0.33-0.01,0.67-0.02,1.01c-0.01,0.34-0.02,0.66-0.02,0.95c-0.01,0.29-0.01,0.52-0.01,0.7c0.16-0.01,0.67-0.02,1.52-0.02
						s1.74,0,2.66,0c0.68,0,1.35,0.01,2.01,0.03c0.66,0.02,1.28,0.05,1.85,0.09c0.57,0.04,1.05,0.08,1.44,0.12
						c-0.01,0.67-0.05,1.43-0.11,2.29c-0.06,0.86-0.13,1.71-0.21,2.56c-0.08,0.85-0.17,1.58-0.26,2.2
						C83.12,70.46,83.05,70.86,82.99,71.06z"/>
					<path class="st2" d="M101.91,71.46c0-0.93-0.02-2.12-0.06-3.55c-0.04-1.43-0.09-3.03-0.14-4.78c-0.06-1.76-0.13-3.59-0.21-5.5
						s-0.16-3.81-0.24-5.71c-0.08-1.9-0.17-3.71-0.26-5.42c-0.09-1.71-0.17-3.25-0.25-4.6c0.58-0.1,1.25-0.18,2-0.23
						c0.76-0.05,1.46-0.08,2.11-0.08c0.8,0,1.55,0.03,2.24,0.09c0.69,0.06,1.23,0.13,1.61,0.2c0,0.39,0.01,1.01,0.04,1.86
						c0.03,0.85,0.06,1.83,0.09,2.92c0.03,1.09,0.07,2.2,0.11,3.32c0.04,1.12,0.1,2.14,0.16,3.06c0.52-0.49,1.08-1.13,1.67-1.92
						c0.59-0.79,1.21-1.7,1.86-2.73c0.65-1.02,1.29-2.13,1.95-3.32c0.65-1.19,1.3-2.41,1.94-3.67c1.32,1.01,2.61,1.89,3.88,2.64
						s2.18,1.27,2.73,1.55c-0.16,0.42-0.49,1.02-0.99,1.83s-1.09,1.69-1.79,2.67s-1.44,1.94-2.24,2.88
						c-0.79,0.94-1.58,1.76-2.37,2.46c0.71,0.83,1.43,1.73,2.15,2.68c0.72,0.96,1.41,1.92,2.06,2.88c0.65,0.96,1.25,1.87,1.79,2.73
						c0.54,0.85,0.99,1.61,1.36,2.27c0.36,0.66,0.62,1.15,0.77,1.48c-0.43,0.28-1.06,0.65-1.88,1.09c-0.82,0.45-1.7,0.88-2.64,1.3
						c-0.93,0.42-1.79,0.75-2.56,0.99c-0.16-0.43-0.42-0.99-0.76-1.68c-0.34-0.69-0.73-1.45-1.18-2.27
						c-0.45-0.82-0.91-1.65-1.39-2.49c-0.48-0.84-0.94-1.62-1.38-2.35c-0.44-0.73-0.84-1.34-1.21-1.83
						c-0.24,0.19-0.46,0.35-0.66,0.48c-0.2,0.13-0.4,0.25-0.61,0.37c0.06,0.82,0.13,1.73,0.2,2.74s0.14,1.99,0.2,2.94
						c0.06,0.95,0.11,1.77,0.16,2.47s0.07,1.16,0.07,1.4c-0.3,0.02-0.89,0.06-1.78,0.14c-0.89,0.08-1.92,0.19-3.08,0.31
						C104.2,71.19,103.05,71.33,101.91,71.46z"/>
					<path class="st2" d="M133.2,71.08c-0.39,0-0.94-0.01-1.67-0.03c-0.73-0.02-1.52-0.05-2.37-0.08c-0.85-0.03-1.68-0.06-2.47-0.08
						c-0.79-0.02-1.46-0.05-1.99-0.08c0.16-0.96,0.39-2.17,0.69-3.6c0.3-1.44,0.64-3.02,1.02-4.75s0.8-3.53,1.24-5.4
						c0.44-1.87,0.88-3.73,1.34-5.58c0.45-1.85,0.9-3.61,1.33-5.29s0.85-3.18,1.24-4.52c1.69-0.21,3.29-0.37,4.81-0.5
						c1.51-0.13,2.97-0.19,4.38-0.19c0.86,0,1.71,0.03,2.54,0.08c0.83,0.05,1.67,0.13,2.52,0.23c0.3,1.31,0.59,2.78,0.89,4.43
						c0.3,1.65,0.6,3.6,0.91,5.86c0.31,2.26,0.63,4.94,0.95,8.04c0.32,3.1,0.64,6.76,0.97,10.97c-0.55,0.07-1.34,0.15-2.36,0.22
						c-1.02,0.07-2.09,0.13-3.2,0.18c-1.11,0.04-2.1,0.07-2.96,0.07c-0.03-0.43-0.06-0.89-0.08-1.39c-0.02-0.5-0.04-1.02-0.07-1.57
						c-0.02-0.55-0.04-1.11-0.06-1.67c-0.02-0.56-0.03-1.12-0.03-1.68s-0.01-1.09-0.01-1.59c-0.47,0.01-0.96,0.03-1.47,0.06
						s-1,0.04-1.49,0.07c-0.49,0.02-0.95,0.05-1.37,0.09c-0.42,0.04-0.8,0.08-1.12,0.12c-0.33,0.04-0.57,0.08-0.73,0.11
						c-0.21,0.92-0.4,1.85-0.58,2.78c-0.18,0.93-0.33,1.81-0.47,2.62C133.38,69.83,133.27,70.52,133.2,71.08z M135.58,56.66
						c0.27-0.04,0.72-0.1,1.37-0.16c0.65-0.06,1.32-0.11,2.01-0.14s1.23-0.06,1.6-0.06c-0.02-0.27-0.04-0.81-0.07-1.64
						s-0.07-1.72-0.11-2.7s-0.09-1.87-0.12-2.66c-0.04-0.79-0.06-1.31-0.08-1.55c-0.21,0-0.53,0.02-0.96,0.04
						c-0.43,0.03-0.84,0.06-1.23,0.08c-0.39,0.02-0.67,0.05-0.83,0.08c-0.09,0.43-0.21,1.03-0.36,1.8s-0.3,1.59-0.46,2.47
						c-0.16,0.88-0.3,1.71-0.45,2.49S135.65,56.15,135.58,56.66z"/>
					<path class="st2" d="M163.26,71.12c-1.02,0-2.09-0.11-3.2-0.32s-2.21-0.56-3.29-1.02c-1.08-0.47-2.1-1.08-3.04-1.84
						c-0.94-0.76-1.75-1.68-2.41-2.76c0.09-0.16,0.35-0.45,0.78-0.85s0.93-0.85,1.5-1.34c0.57-0.49,1.13-0.95,1.69-1.37
						c0.56-0.42,1-0.72,1.35-0.9c0.55,0.59,1.09,1.15,1.64,1.66s1.1,0.96,1.68,1.35c0.58,0.39,1.18,0.69,1.81,0.9
						c0.63,0.22,1.29,0.32,1.99,0.32c0.74,0,1.33-0.14,1.76-0.41c0.43-0.27,0.74-0.63,0.92-1.06s0.28-0.88,0.28-1.34
						c0-0.34-0.08-0.68-0.24-1.02c-0.16-0.34-0.43-0.68-0.79-1.01c-0.36-0.33-0.83-0.67-1.41-1.01c-0.58-0.34-1.28-0.67-2.11-0.98
						c-1.78-0.74-3.41-1.5-4.9-2.28c-1.48-0.78-2.67-1.72-3.55-2.82c-0.88-1.1-1.32-2.48-1.32-4.14c0-1.78,0.5-3.27,1.5-4.48
						c1-1.21,2.31-2.13,3.94-2.75c1.62-0.62,3.37-0.94,5.24-0.94c1.32,0,2.62,0.13,3.91,0.4s2.51,0.7,3.67,1.3
						c1.16,0.6,2.21,1.42,3.13,2.46c-0.24,0.36-0.63,0.83-1.17,1.44c-0.54,0.6-1.11,1.21-1.71,1.81c-0.6,0.61-1.12,1.1-1.55,1.47
						c-0.65-0.62-1.34-1.15-2.06-1.59s-1.44-0.77-2.16-1.01c-0.72-0.24-1.4-0.36-2.04-0.36c-0.77,0-1.45,0.16-2.03,0.47
						s-0.87,0.81-0.87,1.49c0,0.27,0.06,0.53,0.19,0.78c0.13,0.25,0.31,0.48,0.57,0.69s0.56,0.41,0.94,0.6
						c0.37,0.19,0.81,0.37,1.31,0.53c1.54,0.53,3,1.08,4.37,1.65c1.37,0.56,2.59,1.21,3.65,1.95c1.06,0.73,1.89,1.63,2.48,2.68
						c0.59,1.05,0.89,2.34,0.89,3.85c0,1.48-0.28,2.83-0.85,4.03c-0.56,1.2-1.36,2.23-2.38,3.08c-1.02,0.85-2.23,1.51-3.61,1.98
						C166.38,70.89,164.88,71.12,163.26,71.12z"/>
					<path class="st2" d="M178.57,71.46c0-0.93-0.02-2.12-0.06-3.55c-0.04-1.43-0.09-3.03-0.14-4.78c-0.06-1.76-0.13-3.59-0.21-5.5
						s-0.16-3.81-0.24-5.71c-0.08-1.9-0.17-3.71-0.26-5.42c-0.09-1.71-0.17-3.25-0.25-4.6c0.58-0.1,1.25-0.18,2-0.23
						c0.76-0.05,1.46-0.08,2.11-0.08c0.8,0,1.55,0.03,2.24,0.09c0.69,0.06,1.23,0.13,1.61,0.2c0,0.39,0.01,1.01,0.04,1.86
						c0.03,0.85,0.06,1.83,0.09,2.92c0.03,1.09,0.07,2.2,0.11,3.32c0.04,1.12,0.1,2.14,0.16,3.06c0.52-0.49,1.08-1.13,1.67-1.92
						c0.59-0.79,1.21-1.7,1.86-2.73s1.29-2.13,1.95-3.32c0.65-1.19,1.3-2.41,1.94-3.67c1.32,1.01,2.61,1.89,3.88,2.64
						c1.27,0.75,2.18,1.27,2.73,1.55c-0.16,0.42-0.49,1.02-0.99,1.83c-0.5,0.8-1.1,1.69-1.79,2.67s-1.44,1.94-2.24,2.88
						c-0.79,0.94-1.58,1.76-2.37,2.46c0.71,0.83,1.43,1.73,2.15,2.68c0.72,0.96,1.41,1.92,2.06,2.88c0.65,0.96,1.25,1.87,1.79,2.73
						c0.54,0.85,0.99,1.61,1.36,2.27c0.36,0.66,0.62,1.15,0.77,1.48c-0.43,0.28-1.06,0.65-1.88,1.09c-0.82,0.45-1.7,0.88-2.64,1.3
						c-0.94,0.42-1.79,0.75-2.56,0.99c-0.16-0.43-0.42-0.99-0.76-1.68c-0.34-0.69-0.73-1.45-1.18-2.27
						c-0.45-0.82-0.91-1.65-1.39-2.49s-0.94-1.62-1.38-2.35c-0.44-0.73-0.84-1.34-1.21-1.83c-0.24,0.19-0.46,0.35-0.66,0.48
						c-0.2,0.13-0.4,0.25-0.61,0.37c0.06,0.82,0.13,1.73,0.2,2.74s0.14,1.99,0.2,2.94c0.06,0.95,0.11,1.77,0.16,2.47
						s0.07,1.16,0.07,1.4c-0.3,0.02-0.89,0.06-1.78,0.14c-0.89,0.08-1.92,0.19-3.08,0.31C180.87,71.19,179.72,71.33,178.57,71.46z"
						/>
					<path class="st2" d="M209.86,71.08c-0.39,0-0.94-0.01-1.67-0.03c-0.73-0.02-1.52-0.05-2.37-0.08
						c-0.85-0.03-1.68-0.06-2.47-0.08c-0.79-0.02-1.46-0.05-1.99-0.08c0.16-0.96,0.39-2.17,0.69-3.6c0.3-1.44,0.64-3.02,1.02-4.75
						c0.39-1.73,0.8-3.53,1.23-5.4s0.88-3.73,1.34-5.58c0.45-1.85,0.9-3.61,1.33-5.29s0.85-3.18,1.24-4.52
						c1.69-0.21,3.29-0.37,4.81-0.5c1.51-0.13,2.97-0.19,4.38-0.19c0.86,0,1.71,0.03,2.54,0.08c0.83,0.05,1.67,0.13,2.51,0.23
						c0.3,1.31,0.59,2.78,0.89,4.43c0.3,1.65,0.6,3.6,0.91,5.86s0.63,4.94,0.95,8.04c0.32,3.1,0.64,6.76,0.97,10.97
						c-0.55,0.07-1.34,0.15-2.36,0.22s-2.09,0.13-3.21,0.18c-1.11,0.04-2.1,0.07-2.96,0.07c-0.03-0.43-0.06-0.89-0.08-1.39
						c-0.02-0.5-0.04-1.02-0.07-1.57s-0.04-1.11-0.06-1.67s-0.03-1.12-0.03-1.68s-0.01-1.09-0.01-1.59
						c-0.48,0.01-0.96,0.03-1.47,0.06c-0.5,0.02-1,0.04-1.49,0.07c-0.49,0.02-0.95,0.05-1.37,0.09c-0.42,0.04-0.8,0.08-1.12,0.12
						c-0.33,0.04-0.57,0.08-0.73,0.11c-0.21,0.92-0.4,1.85-0.58,2.78s-0.33,1.81-0.47,2.62C210.04,69.83,209.94,70.52,209.86,71.08z
						 M212.25,56.66c0.27-0.04,0.72-0.1,1.37-0.16c0.65-0.06,1.32-0.11,2.01-0.14c0.7-0.04,1.23-0.06,1.6-0.06
						c-0.01-0.27-0.04-0.81-0.07-1.64c-0.03-0.82-0.07-1.72-0.11-2.7c-0.04-0.98-0.08-1.87-0.12-2.66
						c-0.04-0.79-0.06-1.31-0.08-1.55c-0.21,0-0.53,0.02-0.96,0.04c-0.43,0.03-0.84,0.06-1.24,0.08c-0.39,0.02-0.67,0.05-0.83,0.08
						c-0.09,0.43-0.21,1.03-0.36,1.8s-0.3,1.59-0.46,2.47c-0.16,0.88-0.3,1.71-0.45,2.49S212.32,56.15,212.25,56.66z"/>
					<path class="st2" d="M238.33,70.9c-1.02,0-2.1-0.03-3.22-0.1s-2.15-0.14-3.09-0.22c-0.94-0.08-1.67-0.15-2.19-0.21
						c0-0.12,0-0.46,0.01-1.04c0.01-0.57,0.01-1.31,0.01-2.2s0-1.91,0.01-3.04c0.01-1.13,0.01-2.32,0.02-3.58
						c0.01-1.26,0.01-2.54,0.01-3.83c0-1.76-0.01-3.53-0.02-5.31c-0.02-1.77-0.04-3.43-0.08-4.96s-0.09-2.81-0.17-3.82
						c0.31,0,0.8,0.02,1.48,0.04c0.68,0.03,1.42,0.07,2.24,0.11c0.82,0.04,1.61,0.1,2.39,0.18c0.78,0.07,1.44,0.15,1.99,0.22
						c0.93,1.31,1.81,2.62,2.63,3.94c0.82,1.32,1.59,2.64,2.31,3.96s1.42,2.66,2.07,4.01c0.65,1.35,1.27,2.73,1.85,4.14l-0.87-16.18
						c0.47,0,1.07,0.02,1.79,0.07c0.72,0.04,1.47,0.1,2.25,0.17c0.78,0.07,1.49,0.15,2.14,0.25c0.65,0.1,1.13,0.19,1.46,0.28
						c0.06,0.56,0.11,1.2,0.17,1.9c0.05,0.71,0.09,1.46,0.12,2.27c0.03,0.81,0.06,1.65,0.09,2.51c0.03,0.87,0.05,1.75,0.06,2.64
						c0.01,0.89,0.01,1.77,0.01,2.63c0,1.66-0.02,3.31-0.06,4.95s-0.09,3.16-0.17,4.55c-0.07,1.4-0.16,2.57-0.25,3.54
						s-0.19,1.59-0.29,1.89c-0.45,0.01-0.92,0.03-1.44,0.04c-0.51,0.02-1.04,0.02-1.57,0.02c-0.8,0-1.58-0.02-2.33-0.06
						s-1.38-0.1-1.88-0.19c-0.12-0.22-0.32-0.6-0.6-1.15c-0.28-0.54-0.63-1.21-1.06-1.99c-0.42-0.79-0.89-1.66-1.4-2.63
						c-0.51-0.96-1.05-1.97-1.61-3.02c-0.56-1.05-1.13-2.09-1.7-3.15s-1.12-2.07-1.66-3.05c0.06,0.4,0.11,0.99,0.15,1.76
						c0.04,0.77,0.07,1.65,0.11,2.65c0.04,0.99,0.07,2.03,0.11,3.1c0.04,1.08,0.07,2.12,0.09,3.15c0.02,1.02,0.04,1.95,0.06,2.78
						C238.32,69.77,238.33,70.43,238.33,70.9z"/>
					<path class="st2" d="M257.29,48.45c-0.07-0.36-0.14-0.87-0.21-1.55c-0.07-0.67-0.12-1.39-0.16-2.14s-0.07-1.42-0.09-2.01
						c-0.02-0.59-0.03-0.99-0.03-1.18c1.66-0.13,3.55-0.24,5.65-0.33c2.11-0.09,4.24-0.13,6.41-0.13c1.65,0,3.26,0.03,4.84,0.1
						c1.58,0.07,3.02,0.2,4.31,0.39c0.01,1.39-0.03,2.69-0.13,3.88c-0.1,1.19-0.23,2.08-0.38,2.66c-0.27,0-0.65,0-1.14-0.01
						c-0.49-0.01-1.03-0.01-1.62-0.02c-0.59-0.01-1.18-0.01-1.75-0.02c-0.57-0.01-1.07-0.02-1.48-0.03
						c0.03,0.55,0.07,1.35,0.11,2.39c0.04,1.05,0.1,2.24,0.17,3.58c0.07,1.34,0.14,2.75,0.21,4.22c0.07,1.47,0.14,2.9,0.21,4.31
						c0.07,1.4,0.13,2.68,0.19,3.84c0.06,1.16,0.11,2.1,0.16,2.84c0.04,0.73,0.07,1.16,0.07,1.28c-0.68,0.1-1.56,0.2-2.63,0.29
						c-1.07,0.09-2.13,0.16-3.18,0.2c-1.05,0.04-1.91,0.07-2.58,0.07c-0.04-0.86-0.09-1.89-0.13-3.08
						c-0.04-1.19-0.08-2.48-0.11-3.85c-0.03-1.37-0.06-2.78-0.09-4.23c-0.03-1.45-0.05-2.86-0.07-4.25
						c-0.01-1.39-0.02-2.67-0.02-3.86c0-0.68,0-1.33,0.01-1.94c0.01-0.61,0.02-1.16,0.03-1.65c-0.49,0.04-1,0.08-1.55,0.1
						c-0.54,0.02-1.09,0.04-1.66,0.07c-0.56,0.02-1.13,0.04-1.69,0.04C258.39,48.42,257.84,48.43,257.29,48.45z"/>
					<path class="st2" d="M289.22,71.21c-0.67,0-1.45-0.01-2.34-0.02c-0.89-0.02-1.78-0.04-2.68-0.09c-0.9-0.04-1.72-0.11-2.46-0.2
						c-0.03-0.94-0.06-2.14-0.09-3.61c-0.03-1.47-0.06-3.05-0.08-4.74c-0.02-1.69-0.03-3.33-0.03-4.92c0-2.45,0.02-5.03,0.06-7.76
						c0.04-2.72,0.09-5.52,0.17-8.4c0.28-0.01,0.73-0.03,1.36-0.04c0.62-0.01,1.32-0.03,2.09-0.06c0.77-0.02,1.52-0.04,2.26-0.06
						c0.73-0.01,1.35-0.02,1.84-0.02c0.09,1.51,0.16,3.23,0.22,5.16c0.06,1.93,0.11,3.92,0.14,5.98s0.06,4.06,0.06,6.02
						c0,0.98-0.01,1.97-0.02,2.97c-0.01,1-0.03,1.98-0.04,2.94s-0.04,1.86-0.09,2.71c-0.04,0.85-0.1,1.64-0.16,2.35
						C289.36,70.15,289.3,70.74,289.22,71.21z"/>
					<path class="st2" d="M302.95,70.9c-1.02,0-2.1-0.03-3.22-0.1s-2.15-0.14-3.09-0.22c-0.94-0.08-1.67-0.15-2.19-0.21
						c0-0.12,0-0.46,0.01-1.04c0.01-0.57,0.01-1.31,0.01-2.2s0-1.91,0.01-3.04c0.01-1.13,0.01-2.32,0.02-3.58
						c0.01-1.26,0.01-2.54,0.01-3.83c0-1.76-0.01-3.53-0.02-5.31c-0.02-1.77-0.04-3.43-0.08-4.96s-0.09-2.81-0.17-3.82
						c0.31,0,0.8,0.02,1.48,0.04c0.68,0.03,1.42,0.07,2.24,0.11c0.82,0.04,1.61,0.1,2.39,0.18c0.78,0.07,1.44,0.15,1.99,0.22
						c0.93,1.31,1.81,2.62,2.63,3.94c0.82,1.32,1.59,2.64,2.31,3.96s1.42,2.66,2.07,4.01c0.65,1.35,1.27,2.73,1.85,4.14l-0.87-16.18
						c0.47,0,1.07,0.02,1.79,0.07c0.72,0.04,1.47,0.1,2.25,0.17c0.78,0.07,1.49,0.15,2.14,0.25c0.65,0.1,1.13,0.19,1.46,0.28
						c0.06,0.56,0.11,1.2,0.17,1.9c0.05,0.71,0.09,1.46,0.12,2.27c0.03,0.81,0.06,1.65,0.09,2.51c0.03,0.87,0.05,1.75,0.06,2.64
						c0.01,0.89,0.01,1.77,0.01,2.63c0,1.66-0.02,3.31-0.06,4.95s-0.09,3.16-0.17,4.55c-0.07,1.4-0.16,2.57-0.25,3.54
						s-0.19,1.59-0.29,1.89c-0.45,0.01-0.92,0.03-1.44,0.04c-0.51,0.02-1.04,0.02-1.57,0.02c-0.8,0-1.58-0.02-2.33-0.06
						s-1.38-0.1-1.88-0.19c-0.12-0.22-0.32-0.6-0.6-1.15c-0.28-0.54-0.63-1.21-1.06-1.99c-0.42-0.79-0.89-1.66-1.4-2.63
						c-0.51-0.96-1.05-1.97-1.61-3.02c-0.56-1.05-1.13-2.09-1.7-3.15s-1.12-2.07-1.66-3.05c0.06,0.4,0.11,0.99,0.15,1.76
						c0.04,0.77,0.07,1.65,0.11,2.65c0.04,0.99,0.07,2.03,0.11,3.1c0.04,1.08,0.07,2.12,0.09,3.15c0.02,1.02,0.04,1.95,0.06,2.78
						C302.95,69.77,302.95,70.43,302.95,70.9z"/>
					<path class="st2" d="M338.83,71.06c-1.41-0.09-2.81-0.17-4.2-0.26c-1.39-0.08-2.79-0.16-4.2-0.23
						c-1.28-0.06-2.56-0.13-3.86-0.2c-1.3-0.07-2.59-0.15-3.88-0.22c-0.09-2.57-0.16-5.03-0.2-7.4c-0.04-2.37-0.07-4.59-0.07-6.67
						c0-3.17,0.03-5.9,0.09-8.18c0.06-2.28,0.12-3.94,0.18-5c2.85-0.55,5.49-0.95,7.93-1.19c2.44-0.25,4.48-0.4,6.11-0.46
						c1.63-0.06,2.65-0.09,3.05-0.09c0,1.07-0.03,2.13-0.1,3.17c-0.07,1.05-0.15,2.15-0.26,3.3l-8.9,0.73
						c-0.03,0.13-0.05,0.37-0.06,0.7c-0.01,0.33-0.02,0.7-0.02,1.09c-0.01,0.39-0.01,0.76-0.01,1.09s0,0.58,0,0.72
						c0.36,0,0.78,0,1.28-0.01c0.5-0.01,1.04-0.02,1.62-0.03c0.59-0.01,1.17-0.03,1.76-0.03c0.59-0.01,1.14-0.01,1.67-0.02
						c0.53-0.01,0.98-0.02,1.37-0.03l-0.11,6.83c-0.19-0.01-0.55-0.03-1.08-0.06c-0.53-0.02-1.13-0.05-1.81-0.08
						c-0.68-0.03-1.36-0.06-2.04-0.09c-0.68-0.03-1.27-0.05-1.78-0.07c-0.51-0.01-0.87-0.02-1.06-0.02
						c-0.01,0.13-0.03,0.34-0.03,0.61c-0.01,0.27-0.01,0.58-0.02,0.91c-0.01,0.33-0.01,0.67-0.02,1.01
						c-0.01,0.34-0.01,0.66-0.02,0.95c-0.01,0.29-0.01,0.52-0.01,0.7c0.16-0.01,0.67-0.02,1.52-0.02s1.74,0,2.66,0
						c0.68,0,1.35,0.01,2.01,0.03s1.28,0.05,1.85,0.09s1.05,0.08,1.44,0.12c-0.01,0.67-0.05,1.43-0.11,2.29s-0.13,1.71-0.21,2.56
						c-0.08,0.85-0.17,1.58-0.26,2.2S338.89,70.86,338.83,71.06z"/>
				</g>
			</g>
			<path class="st2" d="M339.6,80.15H39.77c-0.94,0-1.7-0.76-1.7-1.7v-0.67c0-0.94,0.76-1.7,1.7-1.7H339.6c0.94,0,1.7,0.76,1.7,1.7
				v0.67C341.3,79.39,340.54,80.15,339.6,80.15z"/>
			<path class="st2" d="M339.6,34.82H39.77c-0.94,0-1.7-0.76-1.7-1.7v-0.67c0-0.94,0.76-1.7,1.7-1.7H339.6c0.94,0,1.7,0.76,1.7,1.7
				v0.67C341.3,34.06,340.54,34.82,339.6,34.82z"/>
			<path class="st2" d="M336.99,32.91v-8.96c0-0.94,0.76-1.7,1.7-1.7h0.92c0.94,0,1.7,0.76,1.7,1.7v8.96c0,0.94-0.76,1.7-1.7,1.7
				h-0.92C337.75,34.61,336.99,33.85,336.99,32.91z"/>
			<path class="st2" d="M38.07,32.86V23.9c0-0.94,0.76-1.7,1.7-1.7h1.07c0.94,0,1.7,0.76,1.7,1.7v8.96c0,0.94-0.76,1.7-1.7,1.7
				h-1.07C38.83,34.56,38.07,33.8,38.07,32.86z"/>
			<path class="st2" d="M190.95,13.28c-0.04,0.01-0.08,0.01-0.12,0.02c0,0,0,0,0,0c0,0-0.01,0-0.01,0c-0.01,0-0.01,0-0.02,0
				c-0.16,0.01-0.32,0-0.48-0.04c-0.11-0.03-0.23-0.07-0.34-0.09c-0.05,0-0.09-0.01-0.14-0.01c-0.01,0-0.01,0-0.02,0
				c-0.03,0-0.06,0.01-0.09,0.01c-0.06,0-0.11-0.01-0.16-0.03c-0.01,0-0.02,0-0.03,0c-0.07-0.01-0.12-0.05-0.18-0.09L39.93,22.18
				c-0.94,0.06-1.65,0.86-1.59,1.8l0.04,0.59c0.06,0.94,0.86,1.65,1.8,1.59l149.31-9.14c0.94-0.06,1.65-0.86,1.59-1.8L190.95,13.28
				C190.95,13.28,190.95,13.28,190.95,13.28z"/>
			<path class="st2" d="M189.26,13.06c-0.02,0.07-0.06,0.14-0.11,0.19c-0.03,0.02-0.06,0.05-0.09,0.07
				c-0.07,0.04-0.15,0.06-0.24,0.06c-0.04-0.01-0.08-0.01-0.12-0.02c-0.06-0.01-0.11-0.04-0.16-0.08c-0.04-0.03-0.08-0.07-0.11-0.11
				c-0.03,0.01-0.06,0.02-0.08,0.03c-0.16,0.06-0.33,0.08-0.5,0.1c-0.01,0-0.03,0-0.04-0.01l-0.12,1.95
				c-0.06,0.94,0.65,1.74,1.59,1.8l149.31,9.14c0.94,0.06,1.74-0.65,1.8-1.59l0.04-0.59c0.06-0.94-0.65-1.74-1.59-1.8L189.26,13.06z
				"/>
		</g>
	</g>
</g>
</svg>
