<?xml version="1.0" encoding="utf-8"?>
<!-- Generator: Adobe Illustrator 27.8.1, SVG Export Plug-In . SVG Version: 6.00 Build 0)  -->
<svg version="1.1" id="Layer_1" xmlns="http://www.w3.org/2000/svg" xmlns:xlink="http://www.w3.org/1999/xlink" x="0px" y="0px"
	 viewBox="0 0 4000 3000" style="enable-background:new 0 0 4000 3000;" xml:space="preserve">
<style type="text/css">
	.st0{fill:#7CFCFC;}
	.st1{fill:#808080;}
	.st2{fill:#A67C52;}
	.st3{fill:#45793D;}
	.st4{fill:#744600;}
	.st5{fill:#4A9736;}
	.st6{fill:#225D36;}
</style>
<path class="st0" d="M426,1159.11"/>
<g>
	<path class="st1" d="M1924.64,1356.82c0,0-435.44-164.4-660.82,351.87s1926.27,535.49,1926.27,535.49s1265.44,61.7,226.03-307.85
		C3144.05,1839.6,1924.64,1356.82,1924.64,1356.82z"/>
	<path class="st2" d="M251.11,1050.56l966.72,565.7c27.09,15.85,61.58,6.15,77.69-21.86l16.71-29.05
		c15.01-26.1,9.05-59.57-13.89-77.95L421.09,784.64c-54.65-43.78-131.07-43.56-186.33,0.54l0,0
		C147.18,855.07,155.78,994.77,251.11,1050.56z"/>
	<g>
		<path class="st3" d="M3095.27,1891.59l-67.69-29.8c0.51-1.19,51.52-120.97,112.35-256.89c25.04-55.94-7.8-86.23-94.55-146.93
			c-41.16-28.81-83.73-58.59-115.74-98.14c-84.39-104.27,27.94-289.43,81.91-366.44c12.65-18.04,37.06-21.65,53.46-7.92h0
			c15.08,12.62,17.91,35.44,6.34,52.07c-56.18,80.69-128.59,217.74-84.54,272.15c25.52,31.53,63.84,58.35,100.9,84.28
			c77.24,54.05,173.37,121.32,119.33,242.08C3146.5,1771.26,3095.77,1890.4,3095.27,1891.59z M3092.63,1008.6l-28.54-23.88
			l28.55,23.87C3092.64,1008.59,3092.64,1008.6,3092.63,1008.6L3092.63,1008.6z"/>
	</g>
	<g>
		
			<ellipse transform="matrix(0.9952 -0.0974 0.0974 0.9952 -147.9818 249.9653)" class="st4" cx="2485.84" cy="1640.43" rx="431.87" ry="313.83"/>
	</g>
	<g>
		
			<ellipse transform="matrix(0.9952 -0.0974 0.0974 0.9952 -147.4899 323.2449)" class="st4" cx="3236.52" cy="1672.03" rx="431.87" ry="313.83"/>
	</g>
	<g>
		
			<ellipse transform="matrix(0.2996 -0.9541 0.9541 0.2996 482.7567 3646.1467)" class="st4" cx="2724.62" cy="1494.29" rx="283.45" ry="272.94"/>
	</g>
	<g>
		
			<ellipse transform="matrix(0.2996 -0.9541 0.9541 0.2996 711.5406 4110.3384)" class="st4" cx="3155.16" cy="1570.57" rx="283.45" ry="272.94"/>
	</g>
	<path class="st5" d="M3578.89,1018.45c40.98,1.96-115.81,74.12-276.41,68.51s-289.06-45.31-286.93-88.69
		c2.13-43.37,91.4-75.48,252-69.87C3428.15,934.01,3500.38,1014.69,3578.89,1018.45z"/>
	<path class="st6" d="M2465.56,1069.67c-40.72,6.41,120.01,61.27,279.71,38.21c159.71-23.06,285.28-76.61,280.47-119.61
		c-4.8-43-95.77-65.28-255.47-42.22C2610.57,969.11,2543.58,1057.38,2465.56,1069.67z"/>
</g>
</svg>
