<?xml version="1.0" encoding="utf-8"?>
<!-- Generator: Adobe Illustrator 28.0.0, SVG Export Plug-In . SVG Version: 6.00 Build 0)  -->
<svg version="1.1" id="Layer_1" xmlns="http://www.w3.org/2000/svg" xmlns:xlink="http://www.w3.org/1999/xlink" x="0px" y="0px"
	 viewBox="0 0 3000 3000" style="enable-background:new 0 0 3000 3000;" xml:space="preserve">
<style type="text/css">
	.st0{fill:#7CFCFC;}
	.st1{fill:#754C24;}
	.st2{fill:#45793D;}
	.st3{fill:#4A9736;}
	.st4{fill:#225D36;}
</style>
<g>
	<path class="st0" d="M270.6,245.4"/>
	<ellipse class="st1" cx="1517.9" cy="2146.8" rx="1211.5" ry="152.1"/>
	<g>
		<path class="st2" d="M1977.4,2134.7h-77.9c0.5-1.1,126.5-152.9,190.4-282.2c26.3-53.2-4.4-83.7-86.1-145.7
			c-38.8-29.4-78.9-59.8-108.4-99.2c-77.8-104,37.7-279.1,92.7-351.6c12.9-17,36.7-19.6,52-5.7l0,0c14.1,12.8,16,35,4.2,50.6
			c-57.3,76-132.4,206-91.8,260.3c23.5,31.5,59.6,58.8,94.5,85.3c72.8,55.1,163.3,123.8,106.6,238.7
			C2090.2,2013.7,1978,2133.5,1977.4,2134.7z M2066.1,1273.7l-26.7-24.2L2066.1,1273.7C2066.1,1273.7,2066.1,1273.7,2066.1,1273.7
			L2066.1,1273.7z"/>
	</g>
	<path class="st3" d="M2536.3,1301.1c39.6,3.4-114.8,67.5-270,56.1s-278.1-54.5-274.4-96.4c3.7-41.9,91.2-69.7,246.4-58.3
		C2393.6,1213.8,2460.5,1294.6,2536.3,1301.1z"/>
	<path class="st4" d="M1457.1,1309.7c-39.6,4.7,113.9,63.7,269.3,47.3c155.4-16.4,278.9-63.6,275.8-105.4
		c-3.1-41.8-90.3-66.7-245.7-50.3C1601.1,1217.7,1533,1300.7,1457.1,1309.7z"/>
	<g>
		<path class="st2" d="M1509.9,2183.7h-123c0.8-1.8,199.8-241.5,300.7-445.8c41.5-84.1-6.9-132.3-136-230.1
			c-61.2-46.4-124.6-94.4-171.2-156.7c-123-164.3,59.5-440.8,146.5-555.4c20.4-26.8,57.9-30.9,82.2-9l0,0
			c22.3,20.2,25.3,55.2,6.7,80c-90.6,120.1-209.2,325.4-145.1,411.1c37.2,49.7,94.2,92.9,149.4,134.7
			c114.9,87.1,258,195.5,168.4,377C1688,1992.6,1510.7,2181.9,1509.9,2183.7z M1650,823.6l-42.2-38.2L1650,823.6
			C1650,823.6,1650,823.6,1650,823.6L1650,823.6z"/>
	</g>
	<path class="st3" d="M2392.7,866.9c62.5,5.4-181.3,106.6-426.5,88.7s-439.2-86.1-433.5-152.3c5.8-66.2,144.1-110.1,389.3-92.2
		C2167.2,729.1,2272.9,856.6,2392.7,866.9z"/>
	<path class="st4" d="M687.8,880.5c-62.6,7.4,179.9,100.6,425.4,74.7c245.5-26,440.6-100.5,435.7-166.6
		c-4.8-66-142.6-105.4-388.1-79.4C915.3,735.2,807.8,866.2,687.8,880.5z"/>
	<g>
		<path class="st2" d="M831,1815.3c-66.9-135.5,39.9-216.5,125.7-281.5c41.2-31.2,83.8-63.5,111.5-100.6
			c47.9-64-40.7-217.3-108.3-307c-13.9-18.5-11.7-44.7,5-59.7l0,0c18.1-16.4,46.1-13.3,61.4,6.7c65,85.6,201.2,292,109.4,414.7
			c-34.8,46.5-82.1,82.4-127.9,117c-96.4,73-132.6,109-101.6,171.8c75.3,152.5,223.9,331.5,224.6,332.9H1039
			C1038.4,2108.3,906,1967,831,1815.3z M934.4,1094.1C934.4,1094.1,934.4,1094.1,934.4,1094.1l31.5-28.5L934.4,1094.1L934.4,1094.1z
			"/>
	</g>
	<path class="st3" d="M731.3,1010.1c183.1-13.4,286.4,19.4,290.7,68.8c4.3,49.4-140.6,100.3-323.7,113.7
		c-183.1,13.4-365.2-62.2-318.5-66.2C469.2,1118.7,548.2,1023.5,731.3,1010.1z"/>
	<path class="st4" d="M1299.7,1008.7c-183.3-19.4-286.2,10-289.8,59.3c-3.6,49.3,142,105,325.3,124.4
		c183.3,19.4,364.4-50.2,317.6-55.7C1563.3,1126,1483,1028.1,1299.7,1008.7z"/>
</g>
</svg>
