<?xml version="1.0" encoding="utf-8"?>
<!-- Generator: Adobe Illustrator 27.8.1, SVG Export Plug-In . SVG Version: 6.00 Build 0)  -->
<svg version="1.1" id="Layer_1" xmlns="http://www.w3.org/2000/svg" xmlns:xlink="http://www.w3.org/1999/xlink" x="0px" y="0px"
	 viewBox="0 0 3000 3000" style="enable-background:new 0 0 3000 3000;" xml:space="preserve">
<style type="text/css">
	.st0{fill:#808080;}
	.st1{fill:#A67C52;}
	.st2{fill:#45793D;}
	.st3{fill:#744600;}
	.st4{fill:#4A9736;}
	.st5{fill:#225D36;}
</style>
<g>
	<path class="st0" d="M1453.6,1395.27c0,0-253.27-195.72-505.35,98.44s1158.99,739.69,1158.99,739.69s819.74,295.17,210.57-156.97
		C2158.36,1958.08,1453.6,1395.27,1453.6,1395.27z"/>
	<path class="st1" d="M414.7,857.17l521.9,566.5c14.63,15.87,39.26,16.43,55.49,1.26l16.83-15.74
		c15.12-14.14,17.94-37.35,6.55-54.05L579.98,716.5c-27.13-39.78-77.43-55.02-122.64-37.13l0,0
		C385.69,707.71,363.24,801.31,414.7,857.17z"/>
	<g>
		<path class="st2" d="M2115.82,1982.46l-38.52-33.22c0.57-0.68,58.22-69.18,125.57-146.33c27.72-31.75,12.22-58.27-32.62-115.64
			c-21.27-27.23-43.27-55.37-56.37-87.82c-34.52-85.55,76.6-184.71,127.59-224.49c11.95-9.32,28.73-6.78,36.75,5.55l0,0
			c7.38,11.33,4.65,26.91-6.31,35.52c-53.18,41.76-128.37,117.32-110.35,161.96c10.44,25.87,30.24,51.22,49.4,75.72
			c39.92,51.08,89.6,114.66,29.77,183.2C2173.72,1913.63,2116.39,1981.77,2115.82,1982.46z M2291.74,1401.27l-13.96-21.45
			L2291.74,1401.27C2291.74,1401.26,2291.74,1401.27,2291.74,1401.27L2291.74,1401.27z"/>
	</g>
	<g>
		
			<ellipse transform="matrix(0.198 -0.9802 0.9802 0.198 -245.185 3089.5959)" class="st3" cx="1765.51" cy="1694.63" rx="215.81" ry="296.98"/>
	</g>
	<g>
		
			<ellipse transform="matrix(0.198 -0.9802 0.9802 0.198 -22.8178 3705.0022)" class="st3" cx="2252.77" cy="1866.45" rx="215.81" ry="296.98"/>
	</g>
	<g>
		
			<ellipse transform="matrix(0.5656 -0.8247 0.8247 0.5656 -509.9569 2325.1492)" class="st3" cx="1952.11" cy="1646.64" rx="194.93" ry="187.7"/>
	</g>
	<g>
		
			<ellipse transform="matrix(0.5656 -0.8247 0.8247 0.5656 -506.4273 2605.4033)" class="st3" cx="2219.89" cy="1783.41" rx="194.93" ry="187.7"/>
	</g>
	<path class="st4" d="M2609.52,1505.58c26.55,9.53-91.07,25.44-195.55-10.56c-104.48-36-180.97-87.95-170.84-116.05
		c10.13-28.09,75.29-31.25,179.77,4.75C2527.38,1419.72,2558.65,1487.31,2609.52,1505.58z"/>
	<path class="st5" d="M1867.09,1315.27c-28.07-3.98,66.59,64.44,176.25,81.4c109.67,16.97,203.01,7.02,208.5-22.23
		c5.49-29.24-49.84-62.2-159.5-79.16C1982.68,1278.31,1920.86,1322.88,1867.09,1315.27z"/>
</g>
</svg>
