<?xml version="1.0" encoding="utf-8"?>
<!-- Generator: Adobe Illustrator 27.8.1, SVG Export Plug-In . SVG Version: 6.00 Build 0)  -->
<svg version="1.1" id="Layer_1" xmlns="http://www.w3.org/2000/svg" xmlns:xlink="http://www.w3.org/1999/xlink" x="0px" y="0px"
	 viewBox="0 0 3000 3000" style="enable-background:new 0 0 3000 3000;" xml:space="preserve">
<style type="text/css">
	.st0{fill:#7CFCFC;}
	.st1{fill:#BFFFFF;}
	.st2{fill:#225D36;}
	.st3{fill:#96E072;}
	.st4{fill:#508E2F;}
	.st5{fill:#FB8D4F;}
	.st6{fill:#DE541E;}
</style>
<g>
	<circle class="st0" cx="1500" cy="1610.3" r="1125"/>
	<circle class="st1" cx="1500" cy="1610.3" r="907.55"/>
</g>
<path class="st2" d="M754.2,1058.32L340.64,832.03c-13.37-7.32-14.78-25.98-2.65-35.22l81.42-62.01
	c11.85-9.03,28.45-8.34,39.51,1.64l320.25,288.98L754.2,1058.32z"/>
<path class="st3" d="M751.91,1108.76l-513.36-92.91c-13.23-2.39-18.79-18.3-9.94-28.41L309.53,895
	c13.56-15.49,35.42-20.75,54.54-13.11l415.79,166.03L751.91,1108.76z"/>
<path class="st4" d="M774.9,1057.62L466.67,673.09c-5.05-6.3,1.55-15.2,9.04-12.2l206.42,82.63c11.47,4.59,20.59,13.61,25.32,25.02
	l108.98,263.22L774.9,1057.62z"/>
<path class="st5" d="M2478.6,1896.67c-373.91-546.63-937.28-885.08-1169.13-1008.48c-76.34-40.63-165.23-51.32-248.87-29.34
	c-430.41,113.1-519.4,554.69-519.4,554.69s-90.71,210.06,1727.6,573.51c48.43,9.68,96.44,21.36,143.88,35.11
	c81.8,23.72,196.82,60.2,212.32,81.91L2478.6,1896.67z"/>
<path class="st6" d="M2478.56,1896.85c-559.92-416.92-1937.4-483.13-1937.4-483.13s-90.7,210.03,1727.24,573.44
	c49.16,9.83,97.88,21.71,146.02,35.7c81.68,23.73,195.15,59.85,210.55,81.4L2478.56,1896.85z"/>
</svg>
