<?xml version="1.0" encoding="utf-8"?>
<!-- Generator: Adobe Illustrator 27.8.1, SVG Export Plug-In . SVG Version: 6.00 Build 0)  -->
<svg version="1.1" id="Layer_1" xmlns="http://www.w3.org/2000/svg" xmlns:xlink="http://www.w3.org/1999/xlink" x="0px" y="0px"
	 viewBox="0 0 4000 3000" style="enable-background:new 0 0 4000 3000;" xml:space="preserve">
<style type="text/css">
	.st0{fill:#7CFCFC;}
	.st1{fill:#BFFFFF;}
	.st2{fill:#225D36;}
	.st3{fill:#96E072;}
	.st4{fill:#508E2F;}
	.st5{fill:#FB8D4F;}
	.st6{fill:#DE541E;}
</style>
<g>
	<circle class="st0" cx="2130.33" cy="1456" r="1299"/>
	<circle class="st1" cx="2131.83" cy="1457.5" r="1047.92"/>
	<path class="st2" d="M1197.55,936.41L708.28,668.7c-15.82-8.66-17.48-30.73-3.14-41.66l96.33-73.36
		c14.02-10.68,33.66-9.86,46.74,1.95l378.86,341.87L1197.55,936.41z"/>
	<path class="st3" d="M1194.83,996.09L587.51,886.17c-15.65-2.83-22.23-21.65-11.75-33.61l95.72-109.36
		c16.04-18.33,41.9-24.54,64.52-15.51l491.9,196.42L1194.83,996.09z"/>
	<path class="st4" d="M1222.03,935.58L857.38,480.67c-5.97-7.45,1.83-17.98,10.7-14.43L1112.28,564
		c13.56,5.43,24.36,16.1,29.95,29.6l128.93,311.4L1222.03,935.58z"/>
	<path class="st5" d="M3237.56,1928.21C2795.21,1281.53,2128.72,881.12,1854.43,735.14c-90.31-48.07-195.47-60.71-294.42-34.71
		c-509.19,133.81-614.47,656.22-614.47,656.22s-107.31,248.51,2043.81,678.49c57.29,11.45,114.1,25.27,170.21,41.54
		c96.77,28.06,232.84,71.22,251.19,96.9L3237.56,1928.21z"/>
	<path class="st6" d="M3237.52,1928.41c-662.4-493.24-2292.01-571.56-2292.01-571.56s-107.3,248.47,2043.38,678.4
		c58.15,11.63,115.8,25.69,172.75,42.23c96.63,28.07,230.87,70.8,249.08,96.29L3237.52,1928.41z"/>
</g>
<path class="st0" d="M426,1159.11"/>
</svg>
