<?xml version="1.0" encoding="utf-8"?>
<!-- Generator: Adobe Illustrator 28.0.0, SVG Export Plug-In . SVG Version: 6.00 Build 0)  -->
<svg version="1.1" id="Layer_1" xmlns="http://www.w3.org/2000/svg" xmlns:xlink="http://www.w3.org/1999/xlink" x="0px" y="0px"
	 viewBox="0 0 3000 3000" style="enable-background:new 0 0 3000 3000;" xml:space="preserve">
<style type="text/css">
	.st0{fill:#7CFCFC;}
	.st1{fill:#BFFFFF;}
	.st2{fill:#225D36;}
	.st3{fill:#96E072;}
	.st4{fill:#508E2F;}
	.st5{fill:#FB8D4F;}
	.st6{fill:#DE541E;}
</style>
<g>
	<circle class="st0" cx="1500" cy="1508.3" r="1125"/>
	<circle class="st1" cx="1500" cy="1508.3" r="907.6"/>
</g>
<path class="st2" d="M754.2,956.3L340.6,730c-13.4-7.3-14.8-26-2.6-35.2l81.4-62c11.9-9,28.5-8.3,39.5,1.6l320.2,289L754.2,956.3z"
	/>
<path class="st3" d="M751.9,1006.8l-513.4-92.9c-13.2-2.4-18.8-18.3-9.9-28.4l80.9-92.4c13.6-15.5,35.4-20.8,54.5-13.1l415.8,166
	L751.9,1006.8z"/>
<path class="st4" d="M774.9,955.6L466.7,571.1c-5-6.3,1.5-15.2,9-12.2l206.4,82.6c11.5,4.6,20.6,13.6,25.3,25l109,263.2L774.9,955.6
	z"/>
<path class="st5" d="M2478.6,1794.7C2104.7,1248,1541.3,909.6,1309.5,786.2c-76.3-40.6-165.2-51.3-248.9-29.3
	C630.2,870,541.2,1311.5,541.2,1311.5s-90.7,210.1,1727.6,573.5c48.4,9.7,96.4,21.4,143.9,35.1c81.8,23.7,196.8,60.2,212.3,81.9
	L2478.6,1794.7z"/>
<path class="st6" d="M2478.6,1794.8c-559.9-416.9-1937.4-483.1-1937.4-483.1s-90.7,210,1727.2,573.4c49.2,9.8,97.9,21.7,146,35.7
	c81.7,23.7,195.1,59.9,210.6,81.4L2478.6,1794.8z"/>
</svg>
