<?xml version="1.0" encoding="utf-8"?>
<!-- Generator: Adobe Illustrator 27.8.1, SVG Export Plug-In . SVG Version: 6.00 Build 0)  -->
<svg version="1.1" id="Layer_1" xmlns="http://www.w3.org/2000/svg" xmlns:xlink="http://www.w3.org/1999/xlink" x="0px" y="0px"
	 viewBox="0 0 4000 3000" style="enable-background:new 0 0 4000 3000;" xml:space="preserve">
<style type="text/css">
	.st0{fill:#45793D;}
	.st1{fill:#744600;}
	.st2{fill:#4A9736;}
	.st3{fill:#225D36;}
	.st4{fill:#DE541E;}
	.st5{fill:#CC6633;}
</style>
<g>
	<g>
		<path class="st0" d="M2048.39,1810.09c-33.03-75.27-70.46-160.58-94.84-286.97c-26.51-137.41-29.16-281.31-7.96-428.46
			c3.83-26.57,26.23-44.17,49.3-38.78h0c21.8,5.1,36.29,28.95,32.67,54.06c-19.5,135.24-17.13,267.14,7.09,392.72
			c22.15,114.83,57.12,194.53,87.97,264.84"/>
	</g>
	<g>
		<path class="st1" d="M2245.43,1687.19h-500.71c-181.43,0-328.51,147.08-328.51,328.51v0c0,61.52,49.87,111.39,111.39,111.39
			h934.94c61.52,0,111.39-49.87,111.39-111.39v0C2573.94,1834.26,2426.86,1687.19,2245.43,1687.19z"/>
	</g>
	<path class="st2" d="M2752.95,1149.75c56.67,6.44-165.09,88.35-387.31,65.88c-222.22-22.47-397.8-87.57-392.17-145.39
		s131.35-92.45,353.57-69.98C2549.26,1022.74,2644.37,1137.41,2752.95,1149.75z"/>
	<path class="st3" d="M1206.81,1114.47c-56.83,4.78,162.53,93.15,385.29,77.19s400.11-75.89,396.11-133.85
		c-4-57.97-128.69-96.25-351.45-80.29C1414,993.48,1315.7,1105.31,1206.81,1114.47z"/>
	<g>
		<path class="st4" d="M3170.33,1377.32h-258.28c0-508.69-376.72-922.54-885.41-922.54c-276.47,0-540.07,56.14-692.08,162.36
			c-161.39,112.78-242.07,279.11-246.63,508.51l-258.23-5.14c3.13-157.5,36.18-298.97,98.24-420.48
			c59.98-117.46,147.02-216.58,258.68-294.61c102.4-71.55,226.02-125.54,367.43-160.46c130.21-32.16,313.85-48.46,472.58-48.46
			c159.35,0,276.88,31.24,422.54,92.85c140.62,59.48,266.89,144.6,375.3,253.01c108.4,108.4,193.53,234.67,253.01,375.3
			C3139.09,1063.31,3170.33,1217.96,3170.33,1377.32z"/>
	</g>
	<polyline class="st4" points="3041.19,1357.14 3368.79,1357.14 3041.19,1751.07 	"/>
	<polyline class="st4" points="3041.19,1357.14 2713.58,1357.14 3041.19,1751.07 	"/>
	<g>
		<path class="st5" d="M2010.49,2803.5c-159.35,0-314.01-31.24-459.67-92.85c-140.63-59.48-266.89-144.6-375.3-253.01
			c-108.4-108.4-193.53-234.67-253.01-375.3c-61.61-145.66-92.85-300.32-92.85-459.67h258.28c0,508.69,413.85,922.54,922.54,922.54
			c276.47,0,502.95-56.14,654.95-162.36c161.39-112.77,242.07-279.11,246.63-508.51l258.23,5.14
			c-3.13,157.5-36.18,298.97-98.24,420.48c-59.98,117.46-147.02,216.58-258.68,294.61c-102.4,71.55-226.02,125.54-367.43,160.46
			C2315.73,2787.2,2169.23,2803.5,2010.49,2803.5z"/>
	</g>
	<polyline class="st5" points="958.81,1642.86 631.21,1642.86 958.81,1248.93 	"/>
	<polyline class="st5" points="958.81,1642.86 1286.42,1642.86 958.81,1248.93 	"/>
</g>
</svg>
