<?xml version="1.0" encoding="utf-8"?>
<!-- Generator: Adobe Illustrator 27.8.1, SVG Export Plug-In . SVG Version: 6.00 Build 0)  -->
<svg version="1.1" id="Layer_1" xmlns="http://www.w3.org/2000/svg" xmlns:xlink="http://www.w3.org/1999/xlink" x="0px" y="0px"
	 viewBox="0 0 3000 3000" style="enable-background:new 0 0 3000 3000;" xml:space="preserve">
<style type="text/css">
	.st0{fill:#45793D;}
	.st1{fill:#744600;}
	.st2{fill:#4A9736;}
	.st3{fill:#225D36;}
	.st4{fill:#DE541E;}
	.st5{fill:#CC6633;}
</style>
<g>
	<g>
		<path class="st0" d="M1548.41,1866.28c-33.03-75.27-70.46-160.58-94.84-286.97c-26.51-137.41-29.16-281.31-7.96-428.46
			c3.83-26.57,26.23-44.17,49.3-38.78l0,0c21.8,5.1,36.29,28.95,32.67,54.06c-19.5,135.24-17.13,267.14,7.09,392.72
			c22.15,114.83,57.12,194.53,87.97,264.84"/>
	</g>
	<g>
		<path class="st1" d="M1745.45,1743.38h-500.71c-181.43,0-328.51,147.08-328.51,328.51l0,0c0,61.52,49.87,111.39,111.39,111.39
			h934.94c61.52,0,111.39-49.87,111.39-111.39l0,0C2073.96,1890.45,1926.88,1743.38,1745.45,1743.38z"/>
	</g>
	<path class="st2" d="M2252.97,1205.94c56.67,6.44-165.09,88.35-387.31,65.88s-397.8-87.57-392.17-145.39s131.35-92.45,353.57-69.98
		C2049.28,1078.93,2144.39,1193.6,2252.97,1205.94z"/>
	<path class="st3" d="M706.83,1170.66c-56.83,4.78,162.53,93.15,385.29,77.19s400.11-75.89,396.11-133.85
		c-4-57.97-128.69-96.25-351.45-80.29C914.02,1049.67,815.72,1161.5,706.83,1170.66z"/>
	<g>
		<path class="st4" d="M2670.35,1433.51h-258.28c0-508.69-376.72-922.54-885.41-922.54c-276.47,0-540.07,56.14-692.08,162.36
			c-161.39,112.78-242.07,279.11-246.63,508.51l-258.23-5.14c3.13-157.5,36.18-298.97,98.24-420.48
			c59.98-117.46,147.02-216.58,258.68-294.61c102.4-71.55,226.02-125.54,367.43-160.46c130.21-32.16,313.85-48.46,472.58-48.46
			c159.35,0,276.88,31.24,422.54,92.85c140.62,59.48,266.89,144.6,375.3,253.01c108.4,108.4,193.53,234.67,253.01,375.3
			C2639.11,1119.5,2670.35,1274.15,2670.35,1433.51z"/>
	</g>
	<polyline class="st4" points="2541.21,1413.33 2868.81,1413.33 2541.21,1807.26 	"/>
	<polyline class="st4" points="2541.21,1413.33 2213.6,1413.33 2541.21,1807.26 	"/>
	<g>
		<path class="st5" d="M1510.51,2859.69c-159.35,0-314.01-31.24-459.67-92.85c-140.63-59.48-266.89-144.6-375.3-253.01
			c-108.4-108.4-193.53-234.67-253.01-375.3c-61.61-145.66-92.85-300.32-92.85-459.67h258.28c0,508.69,413.85,922.54,922.54,922.54
			c276.47,0,502.95-56.14,654.95-162.36c161.39-112.77,242.07-279.11,246.63-508.51l258.23,5.14
			c-3.13,157.5-36.18,298.97-98.24,420.48c-59.98,117.46-147.02,216.58-258.68,294.61c-102.4,71.55-226.02,125.54-367.43,160.46
			C1815.74,2843.39,1669.24,2859.69,1510.51,2859.69z"/>
	</g>
	<polyline class="st5" points="458.83,1699.05 131.23,1699.05 458.83,1305.12 	"/>
	<polyline class="st5" points="458.83,1699.05 786.44,1699.05 458.83,1305.12 	"/>
</g>
</svg>
