<?xml version="1.0" encoding="utf-8"?>
<!-- Generator: Adobe Illustrator 28.0.0, SVG Export Plug-In . SVG Version: 6.00 Build 0)  -->
<svg version="1.1" id="Layer_1" xmlns="http://www.w3.org/2000/svg" xmlns:xlink="http://www.w3.org/1999/xlink" x="0px" y="0px"
	 viewBox="0 0 3000 3000" style="enable-background:new 0 0 3000 3000;" xml:space="preserve">
<style type="text/css">
	.st0{fill:#45793D;}
	.st1{fill:#744600;}
	.st2{fill:#4A9736;}
	.st3{fill:#225D36;}
	.st4{fill:#DE541E;}
	.st5{fill:#CC6633;}
	.st6{fill:#FFFFFF;}
</style>
<g>
	<g>
		<path class="st0" d="M1548.4,1816.3c-33-75.3-70.5-160.6-94.8-287c-26.5-137.4-29.2-281.3-8-428.5c3.8-26.6,26.2-44.2,49.3-38.8
			l0,0c21.8,5.1,36.3,28.9,32.7,54.1c-19.5,135.2-17.1,267.1,7.1,392.7c22.2,114.8,57.1,194.5,88,264.8"/>
	</g>
	<g>
		<path class="st1" d="M1745.4,1693.4h-500.7c-181.4,0-328.5,147.1-328.5,328.5l0,0c0,61.5,49.9,111.4,111.4,111.4h934.9
			c61.5,0,111.4-49.9,111.4-111.4l0,0C2074,1840.4,1926.9,1693.4,1745.4,1693.4z"/>
	</g>
	<path class="st2" d="M2253,1155.9c56.7,6.4-165.1,88.3-387.3,65.9s-397.8-87.6-392.2-145.4s131.3-92.4,353.6-70
		C2049.3,1028.9,2144.4,1143.6,2253,1155.9z"/>
	<path class="st3" d="M706.8,1120.7c-56.8,4.8,162.5,93.2,385.3,77.2s400.1-75.9,396.1-133.8c-4-58-128.7-96.2-351.4-80.3
		S815.7,1111.5,706.8,1120.7z"/>
	<g>
		<path class="st4" d="M2670.4,1383.5h-258.3c0-508.7-376.7-922.5-885.4-922.5c-276.5,0-540.1,56.1-692.1,162.4
			C673.2,736.1,592.5,902.4,588,1131.8l-258.2-5.1c3.1-157.5,36.2-299,98.2-420.5c60-117.5,147-216.6,258.7-294.6
			c102.4-71.5,226-125.5,367.4-160.5c130.2-32.2,313.8-48.5,472.6-48.5c159.3,0,276.9,31.2,422.5,92.9
			c140.6,59.5,266.9,144.6,375.3,253c108.4,108.4,193.5,234.7,253,375.3C2639.1,1069.5,2670.4,1224.2,2670.4,1383.5z"/>
	</g>
	<polyline class="st4" points="2536.4,1363.3 2868.8,1363.3 2536.4,1757.3 	"/>
	<polyline class="st4" points="2544.7,1363.3 2213.6,1363.3 2544.7,1757.3 	"/>
	<g>
		<path class="st5" d="M1510.5,2809.7c-159.3,0-314-31.2-459.7-92.9c-140.6-59.5-266.9-144.6-375.3-253
			c-108.4-108.4-193.5-234.7-253-375.3c-61.6-145.7-92.9-300.3-92.9-459.7H588c0,508.7,413.8,922.5,922.5,922.5
			c276.5,0,502.9-56.1,654.9-162.4c161.4-112.8,242.1-279.1,246.6-508.5l258.2,5.1c-3.1,157.5-36.2,299-98.2,420.5
			c-60,117.5-147,216.6-258.7,294.6c-102.4,71.6-226,125.5-367.4,160.5C1815.7,2793.4,1669.2,2809.7,1510.5,2809.7z"/>
	</g>
	<polyline class="st5" points="461.8,1649.1 131.2,1649.1 461.8,1255.1 	"/>
	<polyline class="st5" points="455.3,1649.1 786.4,1649.1 455.3,1255.1 	"/>
</g>
<polyline class="st6" points="2529.8,1758.2 2545.5,1758.2 2529.8,1739.5 "/>
<polyline class="st6" points="2548.5,1743 2532.7,1761.7 2548.5,1761.7 "/>
<polyline class="st6" points="469.5,1253.3 453.7,1253.3 469.5,1272 "/>
<polyline class="st6" points="450.6,1268.4 466.4,1249.7 450.6,1249.7 "/>
</svg>
