<?xml version="1.0" encoding="utf-8"?>
<!-- Generator: Adobe Illustrator 27.8.1, SVG Export Plug-In . SVG Version: 6.00 Build 0)  -->
<svg version="1.1" id="Layer_1" xmlns="http://www.w3.org/2000/svg" xmlns:xlink="http://www.w3.org/1999/xlink" x="0px" y="0px"
	 viewBox="0 0 3000 3000" style="enable-background:new 0 0 3000 3000;" xml:space="preserve">
<style type="text/css">
	.st0{fill:#DE541E;}
</style>
<g>
	<path class="st0" d="M1507.13,2684.36c-97.98,0-179.13-29.5-243.37-88.51c-64.28-59-96.4-134.29-96.4-225.96
		c0-90.58,32.89-161.99,98.75-214.14c65.86-52.15,144.08-78.22,234.71-78.22c91.62,0,169.84,27.43,234.62,82.19
		c64.78,54.76,97.21,123.78,97.21,207.01c0,96.94-31.35,174.12-94.05,231.5C1675.88,2655.63,1598.75,2684.36,1507.13,2684.36z
		 M1705.92,1828.79c-3.06,69.47-61.29,123.62-130.79,121.63c-0.55-0.02-1.09-0.03-1.64-0.05c-54.81-1.58-109.84-4.2-165.15-7.89
		c-8.2-0.55-16.17-1.1-23.91-1.66c-63.74-4.61-114.15-55.8-117.83-119.6c-3.8-65.82-7.38-133.93-10.73-204.3
		c-5.28-110.07-9.74-221.76-13.44-334.99c-3.7-113.23-6.59-226.23-8.71-338.96s-3.43-222.03-3.97-327.9
		c-0.23-45.95-0.21-90.77,0.06-134.44c0.56-90.16,75.88-161.81,165.95-157.91l251.22,10.88c90.61,3.93,159.6,82.69,151.56,173.02
		c-1.24,13.88-2.51,28.44-3.82,43.67c-8.44,97.44-17.64,209.4-27.65,335.8s-19.53,256.5-28.46,390.29s-16.83,259.97-23.68,378.47
		C1711.23,1718.37,1708.23,1776.34,1705.92,1828.79z"/>
</g>
</svg>
